<?xml version="1.0" standalone="no"?><!DOCTYPE svg PUBLIC "-//W3C//DTD SVG 1.1//EN" "http://www.w3.org/Graphics/SVG/1.1/DTD/svg11.dtd"><svg width="200" height="200" viewBox="0 0 200 200" version="1.1" xmlns="http://www.w3.org/2000/svg" xmlns:xlink="http://www.w3.org/1999/xlink"><defs><style type="text/css"><![CDATA[
@font-face { font-family: ifont; src: url(http://at.alicdn.com/t/font_1442373896_4754455.eot?#iefix) format(embedded-opentype), url(http://at.alicdn.com/t/font_1442373896_4754455.woff) format(woff), url(http://at.alicdn.com/t/font_1442373896_4754455.ttf) format(truetype), url(http://at.alicdn.com/t/font_1442373896_4754455.svg#ifont) format(svg); }

]]></style></defs><g class="transform-group"><g transform="scale(0.1953125, 0.1953125)"><path d="M916.25 398.75l-60 0c-5-17.5-12.5-33.75-20-50l42.5-42.5c21.25-21.25 21.25-57.5 0-78.75l-81.25-81.25c-10-10-25-16.25-40-16.25-15 0-28.75 6.25-40 16.25L675 188.75c-16.25-8.75-32.5-15-50-21.25L625 107.5c0-31.25-25-56.25-56.25-56.25l-115 0c-31.25 0-56.25 25-56.25 56.25l0 60c-17.5 6.25-33.75 12.5-50 21.25l-42.5-42.5c-10-10-25-16.25-40-16.25-15 0-28.75 6.25-40 16.25l-81.25 81.25c-10 10-16.25 25-16.25 40s6.25 28.75 16.25 40l42.5 42.5c-7.5 16.25-15 32.5-20 50l-60 0c-31.25 0-56.25 25-56.25 56.25l0 115c0 31.25 25 56.25 56.25 56.25l60 0c5 17.5 12.5 33.75 20 50l-42.5 42.5c-10 10-16.25 25-16.25 40 0 15 6.25 28.75 16.25 40l81.25 81.25c10 10 25 16.25 40 16.25s28.75-6.25 40-16.25l42.5-42.5c16.25 8.75 32.5 15 50 21.25l0 60c0 31.25 25 56.25 56.25 56.25l115 0c31.25 0 56.25-25 56.25-56.25l0-60c17.5-6.25 33.75-12.5 50-21.25l42.5 42.5c10 10 25 16.25 38.75 16.25 15 0 28.75-6.25 40-16.25l81.25-81.25c21.25-21.25 21.25-57.5 0-78.75L836.25 675c7.5-16.25 15-32.5 20-50l60 0c31.25 0 56.25-25 56.25-56.25l0-115C972.5 423.75 947.5 398.75 916.25 398.75L916.25 398.75zM912.5 568.75c0 1.25-1.25 2.5-2.5 2.5l-78.75 0c-12.5 0-22.5 7.5-25 20-6.25 26.25-17.5 51.25-30 73.75-6.25 10-3.75 23.75 3.75 32.5l56.25 56.25c1.25 1.25 1.25 2.5 0 2.5l-80 80c-1.25 1.25-2.5 1.25-2.5 0l-55-55c-8.75-8.75-21.25-10-32.5-3.75-23.75 13.75-47.5 23.75-73.75 31.25-11.25 2.5-20 13.75-20 25l0 78.75c0 1.25-1.25 2.5-2.5 2.5l-113.75 0c-1.25 0-2.5-1.25-2.5-2.5l0-78.75c0-12.5-7.5-22.5-20-25-26.25-7.5-51.25-17.5-73.75-31.25-3.75-2.5-8.75-3.75-13.75-3.75-6.25 0-13.75 2.5-18.75 7.5l-55 55c-1.25 1.25-2.5 1.25-2.5 0l-80-80c0 0 0-1.25 0-1.25 0 0 0-1.25 0-1.25l56.25-56.25c8.75-8.75 10-21.25 3.75-32.5-13.75-23.75-23.75-47.5-30-73.75-2.5-11.25-13.75-20-25-20l-78.75 0c-1.25 0-2.5-1.25-2.5-2.5l0-113.75c0-1.25 1.25-2.5 2.5-2.5l78.75 0c12.5 0 22.5-7.5 25-20 6.25-26.25 17.5-51.25 30-73.75 6.25-10 3.75-23.75-3.75-32.5l-56.25-56.25c0 0 0-1.25 0-1.25 0 0 0-1.25 0-1.25l80-80c1.25-1.25 2.5-1.25 2.5 0l55 55c8.75 8.75 21.25 10 32.5 3.75 23.75-13.75 47.5-23.75 73.75-31.25 11.25-2.5 20-13.75 20-25l0-78.75c0-1.25 1.25-2.5 2.5-2.5l113.75 0c1.25 0 2.5 1.25 2.5 2.5l0 78.75c0 12.5 7.5 22.5 20 25 26.25 7.5 51.25 17.5 73.75 31.25 10 6.25 23.75 3.75 32.5-3.75l55-55c1.25-1.25 2.5-1.25 2.5 0l80 80c1.25 1.25 1.25 2.5 0 2.5l-56.25 56.25c-8.75 8.75-10 21.25-3.75 32.5 13.75 23.75 23.75 47.5 30 73.75 2.5 11.25 13.75 20 25 20l78.75 0c1.25 0 2.5 1.25 2.5 2.5L912.5 568.75 912.5 568.75 912.5 568.75zM517.5 335c-93.75 0-168.75 78.75-168.75 175 0 96.25 76.25 175 168.75 175 93.75 0 168.75-78.75 168.75-175C687.5 413.75 611.25 335 517.5 335L517.5 335zM517.5 631.25c-63.75 0-115-53.75-115-121.25 0-66.25 51.25-121.25 115-121.25s115 53.75 115 121.25C633.75 577.5 581.25 631.25 517.5 631.25L517.5 631.25z" fill="#272636"></path></g></g></svg>