<?xml version="1.0" encoding="utf-8"?>
<!-- Generator: Adobe Illustrator 17.0.0, SVG Export Plug-In . SVG Version: 6.00 Build 0)  -->
<!DOCTYPE svg PUBLIC "-//W3C//DTD SVG 1.1//EN" "http://www.w3.org/Graphics/SVG/1.1/DTD/svg11.dtd">
<svg version="1.1" id="图层_1" xmlns="http://www.w3.org/2000/svg" xmlns:xlink="http://www.w3.org/1999/xlink" x="0px" y="0px"
	 width="16px" height="16px" viewBox="0 0 16 16" enable-background="new 0 0 16 16" xml:space="preserve">
<g>
	<path fill="#fff" d="M4.536,8.75H4.9v0.364H4.536V8.75L4.536,8.75z M4.536,8.75"/>
	<path fill="#fff" d="M4.536,8.021H4.9v0.364H4.536V8.021L4.536,8.021z M4.536,8.021"/>
	<path fill="#fff" d="M4.536,7.292H4.9v0.364H4.536V7.292L4.536,7.292z M4.536,7.292"/>
	<path fill="#fff" d="M4.536,6.564H4.9v0.364H4.536V6.564L4.536,6.564z M4.536,6.564"/>
	<path fill="#fff" d="M4.536,9.478H4.9v0.364H4.536V9.478L4.536,9.478z M4.536,9.478"/>
	<path fill="#fff" d="M6.539,4.56h0.364v0.364H6.539V4.56L6.539,4.56z M6.539,4.56"/>
	<path fill="#fff" d="M7.268,4.56h0.365v0.364H7.268V4.56L7.268,4.56z M7.268,4.56"/>
	<path fill="#fff" d="M7.997,4.56h0.364v0.364H7.997V4.56L7.997,4.56z M7.997,4.56"/>
	<path fill="#fff" d="M9.454,4.56h0.364v0.364H9.454V4.56L9.454,4.56z M9.454,4.56"/>
	<path fill="#fff" d="M8.726,4.56H9.09v0.364H8.726V4.56L8.726,4.56z M8.726,4.56"/>
	<path fill="#fff" d="M11.458,10.222V5.82c0.517-0.087,0.911-0.536,0.911-1.078c0-0.604-0.489-1.093-1.093-1.093
		c-0.604,0-1.093,0.489-1.093,1.093c0,0.236,0.075,0.455,0.202,0.633L8.63,7.13C8.451,7.003,8.233,6.928,7.997,6.928
		c-0.236,0-0.454,0.075-0.632,0.201L5.611,5.373c0.093-0.131,0.157-0.283,0.185-0.448h0.379V4.56H5.796
		C5.709,4.043,5.259,3.649,4.718,3.649c-0.604,0-1.093,0.489-1.093,1.093c0,0.542,0.394,0.991,0.911,1.078v0.38H4.9V5.82
		c0.167-0.028,0.321-0.094,0.454-0.189l1.753,1.756C6.979,7.566,6.904,7.784,6.904,8.021c0,0.236,0.075,0.455,0.202,0.633
		l-1.755,1.755c-0.179-0.127-0.397-0.202-0.633-0.202c-0.604,0-1.093,0.489-1.093,1.093c0,0.604,0.489,1.093,1.093,1.093
		c0.542,0,0.991-0.394,1.078-0.911h4.402c0.087,0.517,0.536,0.911,1.078,0.911c0.604,0,1.093-0.489,1.093-1.093
		C12.369,10.758,11.975,10.309,11.458,10.222L11.458,10.222z M4.354,4.742c0-0.201,0.163-0.364,0.364-0.364
		c0.201,0,0.364,0.163,0.364,0.364c0,0.201-0.163,0.364-0.364,0.364C4.517,5.106,4.354,4.943,4.354,4.742L4.354,4.742z
		 M11.276,4.378c0.201,0,0.364,0.163,0.364,0.364c0,0.201-0.163,0.364-0.364,0.364c-0.201,0-0.364-0.163-0.364-0.364
		C10.911,4.541,11.074,4.378,11.276,4.378L11.276,4.378z M7.997,7.656c0.201,0,0.364,0.163,0.364,0.364
		c0,0.201-0.163,0.364-0.364,0.364c-0.201,0-0.364-0.163-0.364-0.364C7.633,7.82,7.796,7.656,7.997,7.656L7.997,7.656z M7.363,8.912
		c0.179,0.127,0.397,0.202,0.633,0.202c0.236,0,0.454-0.075,0.632-0.201l0.236,0.237l0.258-0.258L8.887,8.655
		C9.015,8.476,9.09,8.257,9.09,8.021c0-0.236-0.075-0.455-0.202-0.633l1.755-1.755c0.132,0.094,0.285,0.159,0.451,0.187v4.402
		c-0.167,0.028-0.321,0.094-0.454,0.189l-0.148-0.148l-0.258,0.258l0.149,0.149c-0.093,0.131-0.157,0.283-0.185,0.448H5.796
		c-0.028-0.166-0.093-0.319-0.187-0.451L7.363,8.912L7.363,8.912z M4.718,11.664c-0.201,0-0.364-0.163-0.364-0.364
		c0-0.201,0.163-0.364,0.364-0.364c0.201,0,0.364,0.163,0.364,0.364C5.082,11.501,4.919,11.664,4.718,11.664L4.718,11.664z
		 M11.276,11.664c-0.201,0-0.364-0.163-0.364-0.364c0-0.201,0.163-0.364,0.364-0.364c0.201,0,0.364,0.163,0.364,0.364
		C11.64,11.501,11.477,11.664,11.276,11.664L11.276,11.664z M11.276,11.664"/>
	<path fill="#fff" d="M9.946,9.715L9.669,9.438L9.411,9.696l0.277,0.277L9.946,9.715z M9.946,9.715"/>
</g>
<circle fill="none" stroke="#fff" stroke-width="0.5" stroke-miterlimit="10" cx="8" cy="8.021" r="7.814"/>
</svg>
