<?xml version="1.0" encoding="utf-8"?>
<!DOCTYPE svg PUBLIC "-//W3C//DTD SVG 1.1//EN" "http://www.w3.org/Graphics/SVG/1.1/DTD/svg11.dtd">
<svg version="1.1" id="图形" xmlns="http://www.w3.org/2000/svg" xmlns:xlink="http://www.w3.org/1999/xlink" x="0px" y="0px" width="1024px" height="1024px" viewBox="0 0 1024 1024" enable-background="new 0 0 1024 1024" xml:space="preserve">
  <path class="svgpath" data-index="path_0" fill="#fff" d="M512 17.344C239.232 17.344 17.344 239.232 17.344 512c0 272.768 221.888 494.656 494.656 494.656 272.768 0 494.656-221.888 494.656-494.656C1006.656 239.232 784.768 17.344 512 17.344L512 17.344zM512 979.52c-257.792 0-467.52-209.728-467.52-467.52 0-257.792 209.728-467.52 467.52-467.52 257.792 0 467.584 209.728 467.584 467.52C979.52 769.792 769.792 979.52 512 979.52L512 979.52zM512 959.552" />
<path class="svgpath" data-index="path_1" fill="#fff" d="M512 350.144c-41.6 0-80.768 16.064-110.208 45.184-29.44 29.12-45.632 67.904-45.632 109.12 0 41.216 16.192 79.936 45.632 109.12C431.232 642.688 470.4 658.752 512 658.752s80.768-16.064 110.208-45.184c29.44-29.12 45.632-67.904 45.632-109.12 0-41.216-16.192-80-45.632-109.12C592.768 366.208 553.6 350.144 512 350.144L512 350.144zM512 626.24c-67.84 0-123.008-54.592-123.008-121.728C388.992 437.312 444.16 382.72 512 382.72c67.84 0 123.008 54.592 123.008 121.792C635.008 571.584 579.84 626.24 512 626.24L512 626.24zM513.856 310.272c9.088 0 16.448-7.296 16.448-16.256L530.304 254.656c0-9.024-7.36-16.256-16.448-16.256-9.088 0-16.448 7.296-16.448 16.256l0 39.36C497.408 303.04 504.768 310.272 513.856 310.272L513.856 310.272zM375.68 365.44c4.224 0 8.384-1.6 11.648-4.8 6.464-6.336 6.464-16.64 0-22.976L359.168 309.824c-6.4-6.336-16.832-6.336-23.232 0-6.4 6.4-6.4 16.64 0 23.04l28.096 27.84C367.296 363.84 371.456 365.44 375.68 365.44L375.68 365.44zM317.376 468.608 277.632 468.608c-9.088 0-16.448 7.296-16.448 16.256 0 9.024 7.36 16.256 16.448 16.256l39.808 0c9.088 0 16.448-7.296 16.448-16.256C333.824 475.84 326.464 468.608 317.376 468.608L317.376 468.608zM746.368 472.192l-39.808 0c-9.088 0-16.448 7.296-16.448 16.256 0 9.024 7.36 16.256 16.448 16.256l39.808 0c9.088 0 16.448-7.296 16.448-16.256C762.816 479.488 755.456 472.192 746.368 472.192L746.368 472.192zM650.88 368c4.224 0 8.448-1.6 11.648-4.736l28.16-27.84c6.4-6.336 6.4-16.64 0-23.04-6.4-6.336-16.832-6.336-23.232 0L639.296 340.224c-6.4 6.336-6.4 16.64 0 23.04C642.496 366.4 646.656 368 650.88 368L650.88 368zM572.672 691.2 451.328 691.2c-9.088 0-16.448 7.296-16.448 16.256 0 9.024 7.36 16.256 16.448 16.256l121.344 0c9.088 0 16.448-7.296 16.448-16.256C589.12 698.496 581.76 691.2 572.672 691.2L572.672 691.2zM550.72 753.088l-77.44 0c-9.088 0-16.448 7.296-16.448 16.256 0 8.96 7.36 16.256 16.448 16.256l77.44 0c9.088 0 16.448-7.296 16.448-16.256C567.168 760.384 559.808 753.088 550.72 753.088L550.72 753.088zM550.72 753.088" />
<path class="svgpath" data-index="path_2" fill="#fff" d="M512 350.144c-41.6 0-80.768 16.064-110.208 45.184-29.44 29.12-45.632 67.904-45.632 109.12 0 41.216 16.192 79.936 45.632 109.12C431.232 642.688 470.4 658.752 512 658.752s80.768-16.064 110.208-45.184c29.44-29.12 45.632-67.904 45.632-109.12 0-41.216-16.192-80-45.632-109.12C592.768 366.208 553.6 350.144 512 350.144L512 350.144zM512 626.24c-67.84 0-123.008-54.592-123.008-121.728C388.992 437.312 444.16 382.72 512 382.72c67.84 0 123.008 54.592 123.008 121.792C635.008 571.584 579.84 626.24 512 626.24L512 626.24zM513.856 310.272c9.088 0 16.448-7.296 16.448-16.256L530.304 254.656c0-9.024-7.36-16.256-16.448-16.256-9.088 0-16.448 7.296-16.448 16.256l0 39.36C497.408 303.04 504.768 310.272 513.856 310.272L513.856 310.272zM375.68 365.44c4.224 0 8.384-1.6 11.648-4.8 6.464-6.336 6.464-16.64 0-22.976L359.168 309.824c-6.4-6.336-16.832-6.336-23.232 0-6.4 6.4-6.4 16.64 0 23.04l28.096 27.84C367.296 363.84 371.456 365.44 375.68 365.44L375.68 365.44zM317.376 468.608 277.632 468.608c-9.088 0-16.448 7.296-16.448 16.256 0 9.024 7.36 16.256 16.448 16.256l39.808 0c9.088 0 16.448-7.296 16.448-16.256C333.824 475.84 326.464 468.608 317.376 468.608L317.376 468.608zM746.368 472.192l-39.808 0c-9.088 0-16.448 7.296-16.448 16.256 0 9.024 7.36 16.256 16.448 16.256l39.808 0c9.088 0 16.448-7.296 16.448-16.256C762.816 479.488 755.456 472.192 746.368 472.192L746.368 472.192zM650.88 368c4.224 0 8.448-1.6 11.648-4.736l28.16-27.84c6.4-6.336 6.4-16.64 0-23.04-6.4-6.336-16.832-6.336-23.232 0L639.296 340.224c-6.4 6.336-6.4 16.64 0 23.04C642.496 366.4 646.656 368 650.88 368L650.88 368zM572.672 691.2 451.328 691.2c-9.088 0-16.448 7.296-16.448 16.256 0 9.024 7.36 16.256 16.448 16.256l121.344 0c9.088 0 16.448-7.296 16.448-16.256C589.12 698.496 581.76 691.2 572.672 691.2L572.672 691.2zM550.72 753.088l-77.44 0c-9.088 0-16.448 7.296-16.448 16.256 0 8.96 7.36 16.256 16.448 16.256l77.44 0c9.088 0 16.448-7.296 16.448-16.256C567.168 760.384 559.808 753.088 550.72 753.088L550.72 753.088zM550.72 753.088" />

</svg>
