<?xml version="1.0" standalone="no"?>
<!DOCTYPE svg PUBLIC "-//W3C//DTD SVG 1.1//EN" "http://www.w3.org/Graphics/SVG/1.1/DTD/svg11.dtd" >
<svg xmlns="http://www.w3.org/2000/svg">
<metadata>
Created by FontForge 20120731 at Thu Nov  3 17:27:01 2016
 By admin
</metadata>
<defs>
<font id="iconfont" horiz-adv-x="1024" >
  <font-face 
    font-family="iconfont"
    font-weight="500"
    font-stretch="normal"
    units-per-em="1024"
    panose-1="2 0 6 3 0 0 0 0 0 0"
    ascent="896"
    descent="-128"
    x-height="792"
    bbox="-6 -134 1280 902"
    underline-thickness="0"
    underline-position="0"
    unicode-range="U+0078-E72E"
  />
<missing-glyph 
 />
    <glyph glyph-name=".notdef" 
 />
    <glyph glyph-name=".notdef" 
 />
    <glyph glyph-name=".null" horiz-adv-x="0" 
 />
    <glyph glyph-name="nonmarkingreturn" horiz-adv-x="341" 
 />
    <glyph glyph-name="x" unicode="x" horiz-adv-x="1001" 
d="M281 543q-27 -1 -53 -1h-83q-18 0 -36.5 -6t-32.5 -18.5t-23 -32t-9 -45.5v-76h912v41q0 16 -0.5 30t-0.5 18q0 13 -5 29t-17 29.5t-31.5 22.5t-49.5 9h-133v-97h-438v97zM955 310v-52q0 -23 0.5 -52t0.5 -58t-10.5 -47.5t-26 -30t-33 -16t-31.5 -4.5q-14 -1 -29.5 -0.5
t-29.5 0.5h-32l-45 128h-439l-44 -128h-29h-34q-20 0 -45 1q-25 0 -41 9.5t-25.5 23t-13.5 29.5t-4 30v167h911zM163 247q-12 0 -21 -8.5t-9 -21.5t9 -21.5t21 -8.5q13 0 22 8.5t9 21.5t-9 21.5t-22 8.5zM316 123q-8 -26 -14 -48q-5 -19 -10.5 -37t-7.5 -25t-3 -15t1 -14.5
t9.5 -10.5t21.5 -4h37h67h81h80h64h36q23 0 34 12t2 38q-5 13 -9.5 30.5t-9.5 34.5q-5 19 -11 39h-368zM336 498v228q0 11 2.5 23t10 21.5t20.5 15.5t34 6h188q31 0 51.5 -14.5t20.5 -52.5v-227h-327z" />
    <glyph glyph-name="jiantou" unicode="&#xe72b;" 
d="M266 29l239 808l309 -783l-280 173z" />
    <glyph glyph-name="formula" unicode="&#xe63e;" 
d="M902 436q13 13 19 13h89q5 0 9 3.5t4 8.5v102q0 5 -4 9t-9 4h-101q-6 0 -12.5 -4.5t-6.5 -8.5l-109 -114q-4 -5 -8 -5t-4 5l-57 114q-13 13 -20 13h-165q-5 0 -8.5 -4t-3.5 -9v-102q0 -5 3.5 -8.5t8.5 -3.5h102q6 0 19 -13l38 -83v-19l-114 -133q-3 0 -9.5 -3.5
t-9.5 -3.5h-89q-5 0 -9 -4t-4 -8v-102q0 -5 4 -9t9 -4h101q6 0 12.5 4t6.5 9l147 165q4 5 8 5t4 -5l83 -165q0 -5 7 -9t12 -4h102q4 0 8 4t4 9v102q0 4 -4 8t-8 4h-38q-7 0 -19 13l-64 127v19zM381 830q-58 -47 -83 -127l-31 -127h-185q-4 0 -8 -4t-4 -9v-102q0 -5 4 -8.5
t8 -3.5h153l-95 -382q-6 -21 -15.5 -35.5t-18 -20t-18 -7.5t-13 -1.5t-5.5 1.5v0h-64v-127h64q96 0 127 38q41 41 63 152l96 382h146q5 0 9 3.5t4 8.5v102q0 5 -4 9t-9 4h-115l32 120q5 14 23.5 33.5t33.5 30.5q17 12 38 18.5t38 8.5t42 -0.5t38.5 -5t39.5 -8t33 -7.5v108
q-4 1 -26.5 6t-34.5 7t-37 5.5t-42.5 3t-44 -3.5t-47.5 -10.5t-45.5 -20.5t-46.5 -31v0v0zM381 830z" />
    <glyph glyph-name="nav-108" unicode="&#xe640;" 
d="M787 -22h-712q-33 0 -57 23.5t-24 57.5v520q0 33 24 57t57 24h712q33 0 56.5 -24t23.5 -57v-520q0 -34 -23.5 -57.5t-56.5 -23.5zM75 616q-15 0 -26 -11t-11 -26v-520q0 -16 11 -26.5t26 -10.5h712q15 0 26 10.5t11 26.5v520q0 15 -11 26t-26 11h-712zM945 105h-84v44h84
q16 0 27 11.5t11 27.5v517q0 16 -11 27.5t-27 11.5h-725q-16 0 -27.5 -11.5t-11.5 -27.5v-51h-43v51q0 34 24 58t58 24h725q34 0 58 -24t24 -58v-517q0 -34 -24 -58.5t-58 -24.5zM823 22l-203 174l-162 -97l-220 252l-206 -207l-31 31l239 240l227 -259l158 94l226 -194z
M638 329q-42 0 -71.5 29.5t-29.5 71.5t29.5 72t71.5 30t72 -30t30 -72t-30 -71.5t-72 -29.5zM638 488q-24 0 -41 -17t-17 -41t17 -40.5t41 -16.5t41 16.5t17 40.5t-17 41t-41 17z" />
    <glyph glyph-name="nav-106" unicode="&#xe600;" 
d="M903 719q-50 0 -85.5 -35.5t-35.5 -84.5q0 -30 15 -59l-100 -145q-12 2 -19 2q-36 0 -67 -20l-145 98q1 13 1 16q0 50 -35.5 85t-85.5 35t-85.5 -35t-35.5 -85q0 -29 15 -56l-101 -148q-14 3 -18 3q-50 0 -85.5 -35.5t-35.5 -85t35.5 -85t85.5 -35.5t85.5 35.5t35.5 84.5
q0 35 -18 65l95 140q14 -3 27 -3q36 0 67 20l145 -98q-1 -13 -1 -16q0 -50 35.5 -85t85.5 -35t85.5 35t35.5 85q0 34 -18 63l97 141q12 -3 25 -3q50 0 85.5 35.5t35.5 85t-35.5 85t-85.5 35.5v0zM121 123q-19 0 -33 13.5t-14 33t14 33t33 13.5q12 0 22 -6q25 -13 25 -41
q0 -19 -13.5 -32.5t-33.5 -13.5v0zM346 445q-19 0 -33 13.5t-14 32.5t14 32.5t33 13.5t33 -13.5t14 -32.5t-14 -32.5t-33 -13.5v0zM678 231q-19 0 -33 13.5t-14 32.5t14 32.5t33 13.5t33 -13.5t14 -32.5t-14 -32.5t-33 -13.5v0zM903 548q-21 0 -36.5 15t-15.5 36t15.5 35.5
t36.5 14.5t36 -14.5t15 -35.5t-15 -36t-36 -15v0z" />
    <glyph glyph-name="nav-105" unicode="&#xe601;" 
d="M1024 384q0 -30 -24 -70t-70.5 -81.5t-107 -77t-142.5 -58t-168 -22.5q-84 0 -165.5 22.5t-142 57.5t-108 76.5t-72 81.5t-24.5 71t24.5 71.5t72 81.5t108.5 76t142 57.5t165 22.5q87 0 169 -22.5t142.5 -57.5t107 -76.5t70 -81.5t23.5 -71v0zM512.5 636
q-102.5 0 -174.5 -73.5t-72 -178.5t72 -178.5t174.5 -73.5t174.5 73.5t72 178.5t-72 178.5t-174.5 73.5zM512 545q-65 0 -111 -47t-46 -114t46 -114t111 -47t111 47t46 114t-46 114t-111 47z" />
    <glyph glyph-name="nav-103" unicode="&#xe603;" 
d="M410 879h-308q-28 0 -48 -20t-20 -48v-308q0 -28 20 -48t48 -20h308q28 0 48 20t20 48v308q0 28 -20 48t-48 20zM922 879h-308q-28 0 -48 -20t-20 -48v-308q0 -28 20 -48t48 -20h308q28 0 48 20t20 48v308q0 28 -20 48t-48 20zM410 367h-308q-28 0 -48 -20t-20 -48v-342
q0 -28 20 -48t48 -20h308q28 0 48 20t20 48v342q0 28 -20 48t-48 20zM922 367h-308q-28 0 -48 -20t-20 -48v-342q0 -28 20 -48t48 -20h308q28 0 48 20t20 48v342q0 28 -20 48t-48 20z" />
    <glyph glyph-name="nav-104" unicode="&#xe604;" 
d="M1022 342q0 119 -55.5 220.5t-149.5 166.5q4 16 4 31q0 55 -39 94t-95 39q-41 0 -74.5 -23t-48.5 -61q-2 0 -5 0.5t-5 0.5q-95 0 -180.5 -36.5t-148 -98t-100 -147t-39.5 -179.5q-37 -15 -60.5 -48.5t-23.5 -75.5q0 -55 39.5 -94t94.5 -39q8 0 22 2q63 -101 168 -160
t228 -59q92 0 177 35q39 -35 90 -35q55 0 94.5 39t39.5 94q0 35 -18 66q85 121 85 268zM889 123q-32 19 -68 19q-55 0 -94.5 -39.5t-39.5 -94.5q0 -19 8 -41q-69 -26 -141 -26q-103 0 -191.5 49t-143.5 131q51 41 51 104q0 51 -33.5 88.5t-82.5 43.5q3 106 57.5 194.5
t145 140t197.5 51.5h0.5h0.5q7 -50 44.5 -83.5t87.5 -33.5q58 0 98 43q79 -55 124.5 -141t45.5 -186q0 -119 -66 -219z" />
    <glyph glyph-name="nav-102" unicode="&#xe605;" 
d="M694 894h-546q-15 0 -27 -2.5t-20 -5t-13 -10l-8 -12t-4 -16.5t-1 -17.5v-22v-24.5v-800v-27.5v-23t0.5 -18t2.5 -15t5.5 -10t8.5 -8t13 -4.5t18.5 -3.5t24.5 -0.5h692q38 0 59 4.5t32.5 18.5t14.5 32t3 55v655q-59 58 -83.5 87.5t-53 59t-118.5 108.5zM876 20
q0 -51 -10.5 -62t-61.5 -11h-583q-26 0 -36.5 1t-21 8.5t-13 21.5t-2.5 42v728v5q0 56 4.5 64.5t29.5 5.5q23 -2 39 -2h437v-146q0 -57 26 -83t83 -26h109v-546zM294 384h473v73h-473v-73zM294 202h473v73h-473v-73z" />
    <glyph glyph-name="nav-101" unicode="&#xe606;" 
d="M715 672l-32 18l-35 -102h34zM632 383l-128 511l-115 -515q-13 -28 -13 -60v0v0q0 -38 18 -70q28 -50 82.5 -64.5t103.5 13.5q32 19 49.5 51.5t17.5 69.5h1v2q-1 33 -16 62zM512 214q-42 0 -72 30.5t-30 74t30 74t72 30.5t72 -30.5t30 -74t-30 -74t-72 -30.5zM605 816
l-13 -66q141 -28 234.5 -140.5t93.5 -259.5q0 -111 -54.5 -205t-148.5 -148.5t-205 -54.5t-205 54.5t-148.5 148.5t-54.5 205q0 147 93.5 259.5t234.5 140.5l-13 66q-165 -33 -274 -164t-109 -302q0 -97 38 -185t101.5 -151.5t151.5 -101.5t185 -38t185 38t151.5 101.5
t101.5 151.5t38 185q0 171 -109 302t-274 164zM750 520v-34l95 47l-19 31zM138 350h102v34h-102v-34zM886 350v34h-102v-34h102zM342 588h34l-35 102l-32 -18zM295 510l-97 54l-19 -31l97 -54zM512 388q-28 0 -48 -20.5t-20 -49t20 -49t48 -20.5t48 20.5t20 49t-20 49
t-48 20.5z" />
    <glyph glyph-name="nav-100" unicode="&#xe607;" 
d="M1011 441l-141 129v156q0 8 -6 14.5t-15 6.5h-94q-8 0 -14.5 -6.5t-6.5 -14.5v-41l-5 5l-172 153q-1 0 -2 1q-20 16 -43 16q-25 0 -44 -17q-1 0 -1 -1l-454 -401q-9 -7 -10.5 -20t5 -24t17.5 -13t20 6l453 401h1q6 5 13 5t13 -5h1l453 -401q9 -8 20 -5.5t17.5 13t5 23.5
t-10.5 20zM548 658v0q-16 14 -36 14t-36 -14v0l-315 -282q-11 -10 -11 -26v-374q0 -28 20 -48t48 -20h179v233q0 35 21 60t51 25h75q30 0 51 -25t21 -60v-233h189q29 0 48.5 20t19.5 48l1 374q0 16 -11 26z" />
    <glyph glyph-name="tq-100" unicode="&#xe602;" 
d="M512 658q-113 0 -193.5 -80.5t-80.5 -193.5t80.5 -193.5t193.5 -80.5t193.5 80.5t80.5 193.5t-80.5 193.5t-193.5 80.5zM512 188q-81 0 -138.5 57.5t-57.5 138.5t57.5 138.5t138.5 57.5t138.5 -57.5t57.5 -138.5t-57.5 -138.5t-138.5 -57.5zM512 737q16 0 27.5 11.5
t11.5 27.5v79q0 16 -11.5 27.5t-27.5 11.5t-27.5 -11.5t-11.5 -27.5v-79q0 -16 11.5 -27.5t27.5 -11.5zM512 31q-16 0 -27.5 -11.5t-11.5 -27.5v-78q0 -17 11.5 -28.5t27.5 -11.5t27.5 11.5t11.5 27.5v79q0 16 -11.5 27.5t-27.5 11.5zM817 634l55 55q12 11 12 27.5t-11.5 28
t-28 11.5t-27.5 -12l-56 -55q-11 -12 -11 -28t11.5 -27.5t27.5 -11.5t28 12zM207 134l-55 -55q-12 -11 -12 -27.5t11.5 -28t28 -11.5t27.5 12l55 55q12 12 12 28t-11.5 27.5t-27.5 11.5t-28 -12zM159 384q0 16 -11.5 27.5t-27.5 11.5h-79q-16 0 -27.5 -11.5t-11.5 -27.5
t11.5 -27.5t27.5 -11.5h79q16 0 27.5 11.5t11.5 27.5zM982 423h-78q-16 0 -27.5 -11.5t-11.5 -27.5t11.5 -27.5t27.5 -11.5h78q17 0 28.5 11.5t11.5 27.5t-11.5 27.5t-28.5 11.5zM207 634q11 -12 27.5 -12t28 11.5t11.5 27.5t-12 28l-55 55q-12 12 -28 12t-27.5 -11.5
t-11.5 -27.5t11 -28zM817 135q-11 11 -27.5 11t-28 -11.5t-11.5 -27.5t12 -28l55 -55q12 -12 28 -12t27.5 11.5t11.5 28t-11 27.5z" />
    <glyph glyph-name="tq-101" unicode="&#xe608;" 
d="M809 252q-6 -60 -51 -100.5t-105 -40.5q-54 0 -96 33q-10 8 -22.5 6t-20.5 -11v-1v0q-50 -27 -107 -27q-60 0 -112 30q-13 7 -27 1q-8 -1 -14 -6q-32 -25 -73 -25q-49 0 -83.5 35t-34.5 84t34.5 83.5t83.5 34.5q52 0 87 -38q9 -9 21.5 -9.5t21.5 8t9.5 21t-8.5 21.5
q-49 54 -122 57q22 71 82 115.5t135 44.5q7 0 19 -1q12 30 31 56q-28 5 -50 5q-103 0 -182 -64t-100 -165q-54 -18 -88.5 -64.5t-34.5 -104.5q0 -74 52.5 -126.5t126.5 -52.5q54 0 99 30q60 -30 127 -30q70 0 132 32q52 -32 114 -32q85 0 147 57.5t69 141.5q-14 -2 -24 -2
q-17 0 -36 4zM590 477q-5 -2 -16 -6q-2 -9 -7 -14q-13 -11 -28 -3q-17 -11 -27 -20q-10 -8 -11 -20.5t7 -22t20.5 -10.5t22.5 7q44 38 102 38q55 0 98 -35t55 -88q19 -6 39 -6q10 0 23 2q-11 79 -71 132.5t-141 54.5q-51 87 -146 123q-21 -23 -34 -52q70 -22 114 -80z
M1022 425q0 72 -51 123.5t-124 52.5q-31 54 -85 85t-117 31q-56 0 -105.5 -25t-82.5 -69q28 -5 53 -14q55 59 135 59q44 0 83.5 -19.5t65.5 -54.5q-36 -11 -64 -35q-7 -6 -8 -16.5t5.5 -18t16.5 -8.5t18 6q36 30 83 30q53 0 90.5 -37.5t37.5 -89.5q0 -47 -30 -82.5
t-75 -43.5q2 -16 2 -31q0 -7 -1 -18q65 9 109 58.5t44 116.5zM567 457q6 5 7 14q-18 -7 -35 -17q15 -8 28 3zM868 299q-13 -2 -23 -2q-20 0 -39 6q4 -18 4 -34q0 -8 -1 -17q20 -4 36 -4q11 0 24 2q1 11 1 19q0 13 -2 30zM476 557q13 29 34 52q-25 9 -53 14q-19 -26 -31 -56
q26 -2 50 -10z" />
    <glyph glyph-name="tq-102" unicode="&#xe609;" 
d="M1019 337q-13 92 -83.5 155t-165.5 64q-60 102 -172 144q-29 11 -61.5 17t-58.5 6q-121 0 -214 -75.5t-118 -193.5q-63 -21 -103.5 -75.5t-40.5 -123.5q0 -87 61.5 -148.5t148.5 -61.5q64 0 116 35q71 -35 150 -35q82 0 155 38q61 -38 133 -38q100 0 173 67.5t82 165.5
q1 13 1 23q0 16 -3 36zM766 116q-63 0 -113 38q-11 9 -25.5 7.5t-23.5 -13.5l-0.5 -0.5l-0.5 -0.5q-59 -31 -125 -31q-71 0 -132 35q-16 8 -32 1q-9 -1 -16 -7q-38 -29 -86 -29q-57 0 -98 40.5t-41 98.5t41 98.5t98 40.5q61 0 102 -45q10 -10 25 -11t25.5 9t11 25t-9.5 25
q-58 64 -144 68q26 83 96.5 135t159.5 52q5 0 22 -1q30 -3 59 -12q82 -26 133 -94q-5 -2 -18 -7q-21 -8 -41 -20q-19 -12 -33 -23q-11 -10 -12 -24.5t8.5 -25.5t24 -12t25.5 8q52 44 120 44q66 0 116 -41t64 -103q5 -21 5 -40q0 -10 -1 -20q-8 -70 -60.5 -117.5
t-123.5 -47.5v0z" />
    <glyph glyph-name="tq-103" unicode="&#xe60b;" 
d="M997 465h-50q-10 0 -17.5 -7.5t-7.5 -17.5t7.5 -17.5t17.5 -7.5h50q10 0 17.5 7.5t7.5 17.5t-7.5 17.5t-17.5 7.5zM504 599q7 -8 17.5 -8t17.5 7.5t7 18t-7 17.5l-35 35q-8 7 -18 7t-17.5 -7t-7.5 -17.5t7 -17.5zM892 599l35 35q7 7 7 17.5t-7.5 17.5t-17.5 7t-17 -7
l-36 -35q-7 -7 -7 -17.5t7.5 -18t17.5 -7.5t18 8zM697.5 664q10.5 0 17.5 7.5t7 17.5v50q0 10 -7 17.5t-17.5 7.5t-17.5 -7.5t-7 -17.5v-50q0 -10 7 -17.5t17.5 -7.5zM892 281q-8 7 -18 7t-17.5 -7t-7.5 -17.5t7 -17.5l36 -35q7 -8 17.5 -8t17.5 7.5t7 18t-7 17.5zM698 565
q51 0 87.5 -36.5t36.5 -88.5q0 -46 -31 -82q14 -23 21 -49q60 53 60 131q0 72 -51 123t-123 51q-46 0 -85 -21.5t-62 -59.5q21 -16 37 -34q16 30 45.5 48t64.5 18zM812 309q-24 -21 -51 -31q3 -16 3 -26q0 -8 -1 -16q-5 -56 -47.5 -94t-99.5 -38q-51 0 -91 30
q-9 8 -20.5 6.5t-19.5 -11.5v0v0q-47 -25 -101 -25q-57 0 -106 28q-12 7 -25 1q-8 -1 -13 -6q-30 -23 -69 -23q-46 0 -79 32.5t-33 79t33 79t79 32.5q49 0 82 -36q8 -9 20 -9t20.5 8t9 19.5t-7.5 20.5q-47 50 -116 54q21 67 77.5 108.5t127.5 41.5q6 0 18 -1q24 -2 47 -9
q44 -14 79 -45q6 29 23 54q-34 26 -70 40q-23 9 -49 13.5t-48 4.5q-97 0 -171.5 -60.5t-94.5 -155.5q-51 -17 -83.5 -61t-32.5 -99q0 -69 49.5 -118.5t119.5 -49.5q51 0 93 28q57 -28 120 -28q66 0 125 30q49 -30 107 -30q80 0 139 54t65 133q1 10 1 18q0 12 -2 29
q-2 11 -7 28zM483 408q-9 -8 -10 -19.5t6.5 -20.5t19.5 -10t21 7q4 3 15 11q-10 27 -11 58q-1 -1 -7 -3.5t-8 -4.5q-15 -9 -26 -18zM745 325q26 10 46 33q-27 45 -72.5 71.5t-99.5 27.5q-12 21 -31 42q-15 -29 -15 -59q0 -22 8 -44q20 4 35 4q41 0 75 -20.5t54 -54.5z
M557 448l-15 -5q-1 0 -18 -9q1 -31 11 -58q22 14 46 20q-8 22 -8 44q0 30 15 59q-16 18 -37 34q-17 -25 -23 -54q18 -16 29 -31zM745 325q11 -21 16 -41v-3v-3q28 11 51 31q-7 26 -21 49q-20 -23 -46 -33z" />
    <glyph glyph-name="tq-200" unicode="&#xe60c;" 
d="M809 791h53v-857h-53v857zM956 -96q0 -12 -9 -21t-21 -9h-181q-12 0 -21 9t-9 21v0q0 13 9 21.5t21 8.5h181q12 0 21 -8.5t9 -21.5v0zM782 791q0 -22 15.5 -38t38 -16t38 16t15.5 38t-15.5 37.5t-38 15.5t-38 -15.5t-15.5 -37.5zM253 210v0q-50 0 -76 42l-95 148
q-20 32 -12 69q8 36 40 56l452 363l19 -31l-2 -14q-10 -22 7 -76t56 -115.5t81 -99.5t65 -39h12l19 -30l-20 -15l-500 -245q-20 -13 -46 -13zM533 808l-398 -318q-18 -12 -22 -31t6 -35l94 -149q14 -21 40 -21v0q13 0 25 7l459 225q-33 20 -68.5 58.5t-63.5 83.5
q-65 102 -72 180zM789 470h-2l1 43q5 0 6 1q4 3 5.5 13t-1 28.5t-9.5 40.5t-21 52.5t-34 61.5q-33 51 -66 86t-55 46.5t-33 5.5q1 1 -1 -4l-40 16q8 19 19 26q29 17 69.5 -3.5t75.5 -59.5t68 -90q33 -52 52.5 -103t19.5 -93.5t-26 -59.5q-12 -7 -28 -7zM558 360
q-46 27 -82.5 59.5t-58.5 63t-38 64t-23 58t-10.5 49t-3.5 33.5v15l44 -2q0 -9 0.5 -23.5t10 -52.5t27.5 -73t58.5 -78t97.5 -75zM393 282q-56 32 -96.5 75t-58 78.5t-27 73.5t-10 53t-0.5 24l44 -2q-1 -8 0 -21t9.5 -46t24 -63.5t51 -68t84.5 -65.5zM692 809h130v-37h-130
v37z" />
    <glyph glyph-name="tq-201" unicode="&#xe60d;" 
d="M684 838h56v-900h-56v900zM838 -94q0 -13 -9 -22.5t-22 -9.5h-190q-13 0 -22.5 9.5t-9.5 22.5v0q0 13 9.5 22t22.5 9h190q13 1 22 -8.5t9 -22.5v0zM655 837.5q0 -23.5 16.5 -40t40 -16.5t40 16.5t16.5 40t-16.5 40t-40 16.5t-40 -16.5t-16.5 -40zM442 -24q-20 0 -39 9
l-168 77q-35 16 -49 53t3 72l192 577l33 -16l6 -13q4 -25 50 -63.5t115 -69.5q100 -46 171 -46q26 0 38 7l10 6l33 -15l-8 -24l-302 -501q-11 -24 -34 -38.5t-51 -14.5zM400 680l-170 -509q-9 -21 -2 -40.5t26 -28.5l168 -77q18 -8 37.5 -1t28.5 25l277 462q-80 -5 -198 50
q-116 53 -167 119zM817 525l-23 38q4 2 5 4q2 6 -5.5 20.5t-27.5 33.5q-49 47 -132 86q-58 26 -107.5 38t-76 9.5t-32.5 -13.5q1 1 2 -5l-44 -8q-3 21 2 32q16 32 63 37t100.5 -9t110.5 -41q90 -41 145 -93q63 -61 42 -106q-7 -14 -22 -23zM647 297q-70 0 -132 18.5
t-99 41.5t-68 53.5t-40.5 43.5t-14.5 23l39 22q5 -9 13.5 -21t39 -40.5t66.5 -49t96 -35t128 -11.5l3 -44q-18 -1 -31 -1zM549 134q-62 0 -117 16.5t-88 37t-60.5 47.5t-36 38.5t-13.5 19.5l39 22q5 -7 12.5 -18t34 -35.5t58 -42.5t84.5 -31t112 -9l2 -45h-27zM591 767
l103 90l26 -30l-103 -89z" />
    <glyph glyph-name="tq-202" unicode="&#xe60e;" 
d="M809 791h53v-857h-53v857zM956 -96q0 -12 -9 -21t-21 -9h-181q-12 0 -21 9t-9 21v0q0 13 9 21.5t21 8.5h181q12 0 21 -8.5t9 -21.5v0zM782 791q0 -22 15.5 -38t38 -16t38 16t15.5 38t-15.5 37.5t-38 15.5t-38 -15.5t-15.5 -37.5zM253 210v0q-50 0 -76 42l-95 148
q-20 32 -12 69q8 36 40 56l452 363l19 -31l-2 -14q-10 -22 7 -76t56 -115.5t81 -99.5t65 -39h12l19 -30l-20 -15l-500 -245q-20 -13 -46 -13zM533 808l-398 -318q-18 -12 -22 -31t6 -35l94 -149q14 -21 40 -21v0q13 0 25 7l459 225q-33 20 -68.5 58.5t-63.5 83.5
q-65 102 -72 180zM789 470h-2l1 43q5 0 6 1q4 3 5.5 13t-1 28.5t-9.5 40.5t-21 52.5t-34 61.5q-33 51 -66 86t-55 46.5t-33 5.5q1 1 -1 -4l-40 16q8 19 19 26q29 17 69.5 -3.5t75.5 -59.5t68 -90q33 -52 52.5 -103t19.5 -93.5t-26 -59.5q-12 -7 -28 -7zM558 360
q-46 27 -82.5 59.5t-58.5 63t-38 64t-23 58t-10.5 49t-3.5 33.5v15l44 -2q0 -9 0.5 -23.5t10 -52.5t27.5 -73t58.5 -78t97.5 -75zM393 282q-56 32 -96.5 75t-58 78.5t-27 73.5t-10 53t-0.5 24l44 -2q-1 -8 0 -21t9.5 -46t24 -63.5t51 -68t84.5 -65.5zM692 809h130v-37h-130
v37z" />
    <glyph glyph-name="tq-203" unicode="&#xe60f;" 
d="M809 791h53v-857h-53v857zM956 -96q0 -12 -9 -21t-21 -9h-181q-12 0 -21 9t-9 21v0q0 13 9 21.5t21 8.5h181q12 0 21 -8.5t9 -21.5v0zM782 791q0 -22 15.5 -38t38 -16t38 16t15.5 38t-15.5 37.5t-38 15.5t-38 -15.5t-15.5 -37.5zM253 210v0q-50 0 -76 42l-95 148
q-20 32 -12 69q8 36 40 56l452 363l19 -31l-2 -14q-10 -22 7 -76t56 -115.5t81 -99.5t65 -39h12l19 -30l-20 -15l-500 -245q-20 -13 -46 -13zM533 808l-398 -318q-18 -12 -22 -31t6 -35l94 -149q14 -21 40 -21v0q13 0 25 7l459 225q-33 20 -68.5 58.5t-63.5 83.5
q-65 102 -72 180zM789 470h-2l1 43q5 0 6 1q4 3 5.5 13t-1 28.5t-9.5 40.5t-21 52.5t-34 61.5q-33 51 -66 86t-55 46.5t-33 5.5q1 1 -1 -4l-40 16q8 19 19 26q29 17 69.5 -3.5t75.5 -59.5t68 -90q33 -52 52.5 -103t19.5 -93.5t-26 -59.5q-12 -7 -28 -7zM558 360
q-46 27 -82.5 59.5t-58.5 63t-38 64t-23 58t-10.5 49t-3.5 33.5v15l44 -2q0 -9 0.5 -23.5t10 -52.5t27.5 -73t58.5 -78t97.5 -75zM393 282q-56 32 -96.5 75t-58 78.5t-27 73.5t-10 53t-0.5 24l44 -2q-1 -8 0 -21t9.5 -46t24 -63.5t51 -68t84.5 -65.5zM692 809h130v-37h-130
v37z" />
    <glyph glyph-name="tq-204" unicode="&#xe610;" 
d="M809 791h53v-857h-53v857zM956 -96q0 -12 -9 -21t-21 -9h-181q-12 0 -21 9t-9 21v0q0 13 9 21.5t21 8.5h181q12 0 21 -8.5t9 -21.5v0zM782 791q0 -22 15.5 -38t38 -16t38 16t15.5 38t-15.5 37.5t-38 15.5t-38 -15.5t-15.5 -37.5zM253 210v0q-50 0 -76 42l-95 148
q-20 32 -12 69q8 36 40 56l452 363l19 -31l-2 -14q-10 -22 7 -76t56 -115.5t81 -99.5t65 -39h12l19 -30l-20 -15l-500 -245q-20 -13 -46 -13zM533 808l-398 -318q-18 -12 -22 -31t6 -35l94 -149q14 -21 40 -21v0q13 0 25 7l459 225q-33 20 -68.5 58.5t-63.5 83.5
q-65 102 -72 180zM789 470h-2l1 43q5 0 6 1q4 3 5.5 13t-1 28.5t-9.5 40.5t-21 52.5t-34 61.5q-33 51 -66 86t-55 46.5t-33 5.5q1 1 -1 -4l-40 16q8 19 19 26q29 17 69.5 -3.5t75.5 -59.5t68 -90q33 -52 52.5 -103t19.5 -93.5t-26 -59.5q-12 -7 -28 -7zM558 360
q-46 27 -82.5 59.5t-58.5 63t-38 64t-23 58t-10.5 49t-3.5 33.5v15l44 -2q0 -9 0.5 -23.5t10 -52.5t27.5 -73t58.5 -78t97.5 -75zM393 282q-56 32 -96.5 75t-58 78.5t-27 73.5t-10 53t-0.5 24l44 -2q-1 -8 0 -21t9.5 -46t24 -63.5t51 -68t84.5 -65.5zM692 809h130v-37h-130
v37z" />
    <glyph glyph-name="tg-205" unicode="&#xe611;" 
d="M856 838h56v-900h-56v900zM1010 -94q0 -13 -9 -22.5t-22 -9.5h-190q-13 0 -22.5 9.5t-9.5 22.5v0q0 13 9.5 22t22.5 9h190q13 1 22 -8.5t9 -22.5v0zM827 837.5q0 -23.5 16.5 -40t40 -16.5t40 16.5t16.5 40t-16.5 40t-40 16.5t-40 -16.5t-16.5 -40zM688 312l-582 64v0
q-38 0 -65 28t-27 67v184q0 40 27.5 67.5t66.5 27.5l604 67v-37l-10 -11q-20 -14 -35.5 -72t-15.5 -134t15.5 -134t36.5 -72l9 -6v-37zM644 764l-533 -59q-22 0 -37.5 -14.5t-15.5 -35.5v-184q0 -21 15 -35.5t35 -14.5l536 -59q-38 73 -38 201t38 201zM708 310q-15 0 -30 10
l25 37q3 -2 5 -2q7 0 17 13t19 39q22 64 22 156q0 49 -5.5 90t-14.5 66t-19 39.5t-20 14.5q1 0 0 -1t-3 -2l-26 36q18 12 30 11q27 0 48 -23.5t32.5 -61t17 -80.5t5.5 -89q0 -99 -25 -170q-28 -83 -78 -83zM413 352q-35 67 -48 135.5t-8 115t19.5 90.5t23.5 59.5t15 23.5
l36 -25q-5 -8 -13 -21.5t-20.5 -52.5t-16 -80.5t8 -102.5t43.5 -121zM222 376q-31 59 -42.5 120t-7.5 102t17.5 80.5t21 52.5t13.5 22l36 -26q-5 -7 -11.5 -19t-17.5 -46t-14.5 -70t7 -89.5t38.5 -105.5zM790 671l120 -65l-19 -35l-120 65zM770 513l124 58l17 -35l-124 -58z
" />
    <glyph glyph-name="tq-206" unicode="&#xe612;" 
d="M856 838h56v-900h-56v900zM1010 -94q0 -13 -9 -22.5t-22 -9.5h-190q-13 0 -22.5 9.5t-9.5 22.5v0q0 13 9.5 22t22.5 9h190q13 1 22 -8.5t9 -22.5v0zM827 837.5q0 -23.5 16.5 -40t40 -16.5t40 16.5t16.5 40t-16.5 40t-40 16.5t-40 -16.5t-16.5 -40zM688 312l-582 64v0
q-38 0 -65 28t-27 67v184q0 40 27.5 67.5t66.5 27.5l604 67v-37l-10 -11q-20 -14 -35.5 -72t-15.5 -134t15.5 -134t36.5 -72l9 -6v-37zM644 764l-533 -59q-22 0 -37.5 -14.5t-15.5 -35.5v-184q0 -21 15 -35.5t35 -14.5l536 -59q-38 73 -38 201t38 201zM708 310q-15 0 -30 10
l25 37q3 -2 5 -2q7 0 17 13t19 39q22 64 22 156q0 49 -5.5 90t-14.5 66t-19 39.5t-20 14.5q1 0 0 -1t-3 -2l-26 36q18 12 30 11q27 0 48 -23.5t32.5 -61t17 -80.5t5.5 -89q0 -99 -25 -170q-28 -83 -78 -83zM413 352q-35 67 -48 135.5t-8 115t19.5 90.5t23.5 59.5t15 23.5
l36 -25q-5 -8 -13 -21.5t-20.5 -52.5t-16 -80.5t8 -102.5t43.5 -121zM222 376q-31 59 -42.5 120t-7.5 102t17.5 80.5t21 52.5t13.5 22l36 -26q-5 -7 -11.5 -19t-17.5 -46t-14.5 -70t7 -89.5t38.5 -105.5zM790 671l120 -65l-19 -35l-120 65zM770 513l124 58l17 -35l-124 -58z
" />
    <glyph glyph-name="tq-207" unicode="&#xe613;" 
d="M856 838h56v-900h-56v900zM1010 -94q0 -13 -9 -22.5t-22 -9.5h-190q-13 0 -22.5 9.5t-9.5 22.5v0q0 13 9.5 22t22.5 9h190q13 1 22 -8.5t9 -22.5v0zM827 837.5q0 -23.5 16.5 -40t40 -16.5t40 16.5t16.5 40t-16.5 40t-40 16.5t-40 -16.5t-16.5 -40zM688 312l-582 64v0
q-38 0 -65 28t-27 67v184q0 40 27.5 67.5t66.5 27.5l604 67v-37l-10 -11q-20 -14 -35.5 -72t-15.5 -134t15.5 -134t36.5 -72l9 -6v-37zM644 764l-533 -59q-22 0 -37.5 -14.5t-15.5 -35.5v-184q0 -21 15 -35.5t35 -14.5l536 -59q-38 73 -38 201t38 201zM708 310q-15 0 -30 10
l25 37q3 -2 5 -2q7 0 17 13t19 39q22 64 22 156q0 49 -5.5 90t-14.5 66t-19 39.5t-20 14.5q1 0 0 -1t-3 -2l-26 36q18 12 30 11q27 0 48 -23.5t32.5 -61t17 -80.5t5.5 -89q0 -99 -25 -170q-28 -83 -78 -83zM413 352q-35 67 -48 135.5t-8 115t19.5 90.5t23.5 59.5t15 23.5
l36 -25q-5 -8 -13 -21.5t-20.5 -52.5t-16 -80.5t8 -102.5t43.5 -121zM222 376q-31 59 -42.5 120t-7.5 102t17.5 80.5t21 52.5t13.5 22l36 -26q-5 -7 -11.5 -19t-17.5 -46t-14.5 -70t7 -89.5t38.5 -105.5zM790 671l120 -65l-19 -35l-120 65zM770 513l124 58l17 -35l-124 -58z
" />
    <glyph glyph-name="tg-208" unicode="&#xe614;" 
d="M990 811q0 -12 -8.5 -20.5t-19.5 -8.5h-900q-11 0 -19.5 8.5t-8.5 20.5v22q0 12 8.5 20.5t19.5 8.5h900q11 0 19.5 -8.5t8.5 -20.5v-22zM990 665q0 -12 -8.5 -20.5t-19.5 -8.5h-758q-12 0 -20 8.5t-8 20.5v22q0 12 8 20.5t20 8.5h758q11 0 19.5 -8.5t8.5 -20.5v-22z
M820 519q0 -12 -8.5 -20.5t-19.5 -8.5h-673q-12 0 -20 8.5t-8 20.5v22q0 12 8 20.5t20 8.5h673q11 0 19.5 -8.5t8.5 -20.5v-22zM990 373q0 -12 -8.5 -20.5t-19.5 -8.5h-673q-12 0 -20 8.5t-8 20.5v22q0 12 8 20.5t20 8.5h673q11 0 19.5 -8.5t8.5 -20.5v-22zM848 227
q0 -12 -8 -20.5t-20 -8.5h-389q-12 0 -20.5 8.5t-8.5 20.5v22q0 12 8.5 20.5t20.5 8.5h389q12 0 20 -8.5t8 -20.5v-22zM707 81q0 -12 -8.5 -20.5t-20.5 -8.5h-219q-12 0 -20 8.5t-8 20.5v22q0 12 8 20.5t20 8.5h219q12 0 20.5 -8.5t8.5 -20.5v-22zM565 -65q0 -12 -8 -20.5
t-20 -8.5h-85q-11 0 -19.5 8.5t-8.5 20.5v22q0 12 8.5 20.5t19.5 8.5h85q12 0 20 -8.5t8 -20.5v-22z" />
    <glyph glyph-name="tq-209" unicode="&#xe615;" 
d="M990 811q0 -12 -8.5 -20.5t-19.5 -8.5h-900q-11 0 -19.5 8.5t-8.5 20.5v22q0 12 8.5 20.5t19.5 8.5h900q11 0 19.5 -8.5t8.5 -20.5v-22zM990 665q0 -12 -8.5 -20.5t-19.5 -8.5h-758q-12 0 -20 8.5t-8 20.5v22q0 12 8 20.5t20 8.5h758q11 0 19.5 -8.5t8.5 -20.5v-22z
M820 519q0 -12 -8.5 -20.5t-19.5 -8.5h-673q-12 0 -20 8.5t-8 20.5v22q0 12 8 20.5t20 8.5h673q11 0 19.5 -8.5t8.5 -20.5v-22zM990 373q0 -12 -8.5 -20.5t-19.5 -8.5h-673q-12 0 -20 8.5t-8 20.5v22q0 12 8 20.5t20 8.5h673q11 0 19.5 -8.5t8.5 -20.5v-22zM848 227
q0 -12 -8 -20.5t-20 -8.5h-389q-12 0 -20.5 8.5t-8.5 20.5v22q0 12 8.5 20.5t20.5 8.5h389q12 0 20 -8.5t8 -20.5v-22zM707 81q0 -12 -8.5 -20.5t-20.5 -8.5h-219q-12 0 -20 8.5t-8 20.5v22q0 12 8 20.5t20 8.5h219q12 0 20.5 -8.5t8.5 -20.5v-22zM565 -65q0 -12 -8 -20.5
t-20 -8.5h-85q-11 0 -19.5 8.5t-8.5 20.5v22q0 12 8.5 20.5t19.5 8.5h85q12 0 20 -8.5t8 -20.5v-22z" />
    <glyph glyph-name="tg-210" unicode="&#xe616;" 
d="M960 784q0 -11 -8 -19t-19 -8h-842q-11 0 -19 8t-8 19v21q0 11 8 19t19 8h842q11 0 19 -8t8 -19v-21zM960 647q0 -11 -8 -19t-19 -8h-710q-11 0 -18.5 8t-7.5 19v21q0 11 7.5 19t18.5 8h710q11 0 19 -8t8 -19v-21zM801 511q0 -12 -8 -20t-19 -8h-630q-11 0 -19 8t-8 20
v20q0 11 8 19t19 8h630q11 0 19 -8t8 -19v-20zM960 374q0 -12 -8 -20t-19 -8h-630q-11 0 -19 8t-8 20v20q0 12 8 20t19 8h630q11 0 19 -8t8 -20v-20zM827 237q0 -11 -7.5 -19t-18.5 -8h-365q-11 0 -19 8t-8 19v20q0 12 8 20t19 8h365q11 0 18.5 -8t7.5 -20v-20zM695 100
q0 -11 -8 -19t-19 -8h-206q-11 0 -18.5 8t-7.5 19v21q0 11 7.5 19t18.5 8h206q11 0 19 -8t8 -19v-21zM562 -37q0 -11 -8 -19t-19 -8h-79q-11 0 -19 8t-8 19v21q0 11 8 19t19 8h79q11 0 19 -8t8 -19v-21z" />
    <glyph glyph-name="tq-211" unicode="&#xe617;" 
d="M960 784q0 -11 -8 -19t-19 -8h-842q-11 0 -19 8t-8 19v21q0 11 8 19t19 8h842q11 0 19 -8t8 -19v-21zM960 647q0 -11 -8 -19t-19 -8h-710q-11 0 -18.5 8t-7.5 19v21q0 11 7.5 19t18.5 8h710q11 0 19 -8t8 -19v-21zM801 511q0 -12 -8 -20t-19 -8h-630q-11 0 -19 8t-8 20
v20q0 11 8 19t19 8h630q11 0 19 -8t8 -19v-20zM960 374q0 -12 -8 -20t-19 -8h-630q-11 0 -19 8t-8 20v20q0 12 8 20t19 8h630q11 0 19 -8t8 -20v-20zM827 237q0 -11 -7.5 -19t-18.5 -8h-365q-11 0 -19 8t-8 19v20q0 12 8 20t19 8h365q11 0 18.5 -8t7.5 -20v-20zM695 100
q0 -11 -8 -19t-19 -8h-206q-11 0 -18.5 8t-7.5 19v21q0 11 7.5 19t18.5 8h206q11 0 19 -8t8 -19v-21zM562 -37q0 -11 -8 -19t-19 -8h-79q-11 0 -19 8t-8 19v21q0 11 8 19t19 8h79q11 0 19 -8t8 -19v-21z" />
    <glyph glyph-name="tq-212" unicode="&#xe618;" 
d="M960 784q0 -11 -8 -19t-19 -8h-842q-11 0 -19 8t-8 19v21q0 11 8 19t19 8h842q11 0 19 -8t8 -19v-21zM960 647q0 -11 -8 -19t-19 -8h-710q-11 0 -18.5 8t-7.5 19v21q0 11 7.5 19t18.5 8h710q11 0 19 -8t8 -19v-21zM801 511q0 -12 -8 -20t-19 -8h-630q-11 0 -19 8t-8 20
v20q0 11 8 19t19 8h630q11 0 19 -8t8 -19v-20zM960 374q0 -12 -8 -20t-19 -8h-630q-11 0 -19 8t-8 20v20q0 12 8 20t19 8h630q11 0 19 -8t8 -20v-20zM827 237q0 -11 -7.5 -19t-18.5 -8h-365q-11 0 -19 8t-8 19v20q0 12 8 20t19 8h365q11 0 18.5 -8t7.5 -20v-20zM695 100
q0 -11 -8 -19t-19 -8h-206q-11 0 -18.5 8t-7.5 19v21q0 11 7.5 19t18.5 8h206q11 0 19 -8t8 -19v-21zM562 -37q0 -11 -8 -19t-19 -8h-79q-11 0 -19 8t-8 19v21q0 11 8 19t19 8h79q11 0 19 -8t8 -19v-21z" />
    <glyph glyph-name="tq-213" unicode="&#xe619;" 
d="M960 784q0 -11 -8 -19t-19 -8h-842q-11 0 -19 8t-8 19v21q0 11 8 19t19 8h842q11 0 19 -8t8 -19v-21zM960 647q0 -11 -8 -19t-19 -8h-710q-11 0 -18.5 8t-7.5 19v21q0 11 7.5 19t18.5 8h710q11 0 19 -8t8 -19v-21zM801 511q0 -12 -8 -20t-19 -8h-630q-11 0 -19 8t-8 20
v20q0 11 8 19t19 8h630q11 0 19 -8t8 -19v-20zM960 374q0 -12 -8 -20t-19 -8h-630q-11 0 -19 8t-8 20v20q0 12 8 20t19 8h630q11 0 19 -8t8 -20v-20zM827 237q0 -11 -7.5 -19t-18.5 -8h-365q-11 0 -19 8t-8 19v20q0 12 8 20t19 8h365q11 0 18.5 -8t7.5 -20v-20zM695 100
q0 -11 -8 -19t-19 -8h-206q-11 0 -18.5 8t-7.5 19v21q0 11 7.5 19t18.5 8h206q11 0 19 -8t8 -19v-21zM562 -37q0 -11 -8 -19t-19 -8h-79q-11 0 -19 8t-8 19v21q0 11 8 19t19 8h79q11 0 19 -8t8 -19v-21z" />
    <glyph glyph-name="tq-300" unicode="&#xe61a;" 
d="M997 483h-50q-10 0 -17.5 -7t-7.5 -17.5t7.5 -17.5t17.5 -7h50q10 -1 17.5 6.5t7.5 18t-7.5 17.5t-17.5 7zM504 617q7 -7 17.5 -7t17.5 7t7 17.5t-7 17.5l-35 36q-8 7 -18 7t-17.5 -7.5t-7.5 -17.5t7 -18zM892 617l35 35q7 8 7 18t-7.5 17.5t-17.5 7.5t-17 -7l-36 -36
q-7 -7 -7 -17.5t7.5 -17.5t17.5 -7t18 7zM697.5 683q10.5 0 17.5 7t7 18v50q0 10 -7 17.5t-17.5 7.5t-17.5 -7.5t-7 -17.5v-50q0 -11 7 -18t17.5 -7zM892 300q-8 7 -18 7t-17.5 -7.5t-7.5 -17.5t7 -18l36 -35q7 -7 17.5 -7t17.5 7.5t7 17.5t-7 17zM698 583q51 0 87.5 -36.5
t36.5 -88.5q0 -46 -31 -82q14 -22 21 -48q60 53 60 130q0 73 -51 124t-123 51q-46 0 -85 -22t-62 -59q21 -17 37 -35q16 30 45.5 48t64.5 18zM483 427q-9 -8 -10 -20t6.5 -21t19.5 -9.5t21 6.5q4 4 16 11q-11 28 -12 58q-2 0 -7.5 -2.5t-7.5 -4.5q-15 -9 -26 -18zM745 343
q26 11 46 33q-27 45 -72.5 72t-99.5 28q-12 20 -31 41q-15 -28 -15 -59q0 -22 8 -44q20 5 35 5q41 0 75 -20.5t54 -55.5zM557 467q-6 -2 -15 -6q-2 0 -18 -9q1 -30 11 -58q22 14 46 20q-8 22 -8 44q0 31 15 59q-16 18 -37 35q-17 -26 -23 -55q17 -15 29 -30zM745 343
q11 -20 16 -40v-3.5v-3.5q28 11 51 32q-7 26 -21 48q-20 -22 -46 -33zM441 38q0 -22 -15.5 -37.5t-37 -15.5t-37 15.5t-15.5 37.5q0 29 53 107q52 -78 52 -107zM318 133q-23 7 -40 17q-12 7 -25 1q-8 -1 -13 -5q-30 -24 -69 -24q-46 0 -79 33t-33 79t33 79t79 33
q49 0 82 -36q8 -9 20 -9.5t20.5 7.5t9 20t-7.5 20q-47 51 -116 54q21 67 77.5 109t127.5 42q6 0 18 -1q24 -2 47 -10q44 -13 79 -45q6 29 23 55q-34 26 -70 40q-23 8 -49 13t-48 5q-97 0 -171.5 -61t-94.5 -155q-51 -17 -83.5 -61t-32.5 -99q0 -70 49.5 -119.5t119.5 -49.5
q51 0 93 28q15 -7 32 -13l22 53v0zM819 299q-1 11 -7 29q-23 -21 -51 -32q3 -16 3 -26v-15q-6 -56 -48.5 -94.5t-99.5 -38.5q-51 0 -91 31q-9 7 -20.5 5.5t-18.5 -10.5q-1 0 -1 -0.5v-0.5q-7 -4 -32 -12l24 -53q17 6 32 13q49 -30 107 -30q80 0 139 54.5t65 133.5q1 10 1 17
q0 13 -2 29z" />
    <glyph glyph-name="tq-301" unicode="&#xe61b;" 
d="M967 554h-47q-10 0 -17 -7t-7 -16.5t7 -16.5t17 -7h47q9 0 16 7t7 16.5t-7 16.5t-16 7zM504 679q7 -7 16.5 -7t16.5 7t7 16.5t-7 16.5l-33 33q-7 7 -16.5 7t-16.5 -7t-7 -16.5t7 -16.5zM868 679l33 33q7 7 7 16.5t-7 16.5t-16.5 7t-16.5 -7l-33 -33q-7 -7 -7 -16.5
t7 -16.5t16.5 -7t16.5 7zM686 741q10 0 16.5 6.5t6.5 16.5v47q0 9 -6.5 16t-16.5 7t-16.5 -7t-6.5 -16v-47q0 -10 6.5 -16.5t16.5 -6.5zM868 381q-7 7 -16.5 7t-16.5 -6.5t-7 -16.5t7 -17l33 -33q7 -6 16.5 -6t16.5 6.5t7 16.5t-7 16zM686 647q48 0 82.5 -34t34.5 -83
q0 -43 -30 -77q13 -21 20 -45q57 49 57 122q0 68 -48 116t-116 48q-43 0 -79.5 -20.5t-58.5 -55.5q20 -16 35 -33q16 28 43 45t60 17zM485 500q-9 -7 -10 -18t6.5 -19.5t18.5 -9t19 6.5q4 3 15 10q-10 26 -11 55q-1 -1 -6.5 -3.5t-7.5 -3.5q-14 -9 -24 -18zM730 422
q25 10 43 31q-25 42 -67.5 67.5t-93.5 25.5q-11 20 -29 39q-14 -26 -14 -55q0 -20 8 -41q18 4 33 4q38 0 70 -19.5t50 -51.5zM554 538q-6 -2 -14 -5q-2 -1 -17 -8q1 -29 11 -55q20 13 43 19q-8 21 -8 41q0 29 14 55q-15 17 -35 33q-15 -24 -21 -51q16 -15 27 -29zM730 422
q11 -19 15 -38q0 -1 0.5 -3t0.5 -3q25 11 47 30q-7 24 -20 45q-18 -21 -43 -31zM445 167q0 -20 -14 -34.5t-34.5 -14.5t-35 14.5t-14.5 34.5q0 12 12.5 37t24.5 44.5t12 18.5q49 -73 49 -100zM208 18q0 -21 -14 -35t-34.5 -14t-35 14t-14.5 35q0 12 12.5 37t24.5 44l12 19
q49 -73 49 -100zM366 -17q0 -20 -14 -34.5t-34.5 -14.5t-35 14.5t-14.5 34.5q0 12 12.5 37t24.5 44l12 19q49 -73 49 -100zM524 -17q0 -20 -14.5 -34.5t-34.5 -14.5t-34.5 14.5t-14.5 34.5q0 12 12.5 37t24.5 44l12 19q49 -73 49 -100zM682 18q0 -21 -14.5 -35t-34.5 -14
t-34.5 14t-14.5 35q0 12 12 37t25 44l12 19q49 -73 49 -100zM330 225q-22 7 -37 16q-12 7 -24 1q-7 -1 -12 -5q-29 -22 -65 -22q-43 0 -73.5 30.5t-30.5 74t30.5 74t73.5 30.5q46 0 77 -33q8 -8 19 -8.5t19 7t8.5 18.5t-7.5 19q-43 47 -108 51q19 62 72 101.5t120 39.5
q5 0 17 -1q23 -2 44 -9q41 -13 74 -42q6 27 21 51q-31 24 -65 37q-22 8 -46.5 12.5t-44.5 4.5q-91 0 -161 -57t-88 -145q-48 -16 -78.5 -57.5t-30.5 -92.5q0 -66 46.5 -112t111.5 -46q48 0 87 26q14 -7 30 -12zM800 381q-2 10 -6 27q-23 -20 -48 -30q3 -15 3 -24
q0 -7 -1 -15q-6 -52 -45.5 -88t-92.5 -36q-48 0 -85 29q-9 7 -20 5.5t-18 -10.5v0v-1q-7 -3 -30 -11l23 -50q15 6 29 13q46 -28 101 -28q75 0 130 50.5t61 124.5q1 10 1 17q0 12 -2 27z" />
    <glyph glyph-name="tq-302" unicode="&#xe61c;" 
d="M720 -9q0 -26 -18.5 -45t-45 -19t-45.5 19t-19 45q0 16 16 48.5t32 57.5l16 25q64 -96 64 -131zM304 -9q0 -26 -18.5 -45t-45 -19t-45.5 19t-19 45q0 16 16 48.5t32 57.5l16 25q64 -96 64 -131zM1008 509q-1 13 -8 35q-9 31 -26 59q-33 54 -88.5 87t-121.5 34
q-14 25 -37 50q-19 22 -46 43q-41 31 -84 48q-29 11 -61 16.5t-57 5.5q-119 0 -210 -74t-115 -189q-62 -21 -101.5 -74.5t-39.5 -120.5q0 -85 60 -145.5t145 -60.5q62 0 114 35q19 -10 45 -18l51 58q-44 9 -79 29q-15 8 -31 1q-9 -1 -16 -6q-37 -29 -84 -29q-56 0 -96 40
t-40 96t40 96t96 40q60 0 101 -44q9 -10 23.5 -10.5t25 9t11 24t-8.5 25.5q-58 61 -142 65q26 82 95 133t156 51q6 0 22 -1q28 -3 57 -12q52 -16 95 -55q22 -19 36 -37q-7 -2 -19 -7q-1 0 -22 -10q-1 -1 -8 -4t-10 -6q-18 -11 -31 -22q-11 -9 -12.5 -23.5t8 -25.5t24 -12
t25.5 8q6 6 19 14q25 16 56 24q23 5 42 5q50 0 91.5 -25t65.5 -67q14 -25 19 -49q1 -1 1 -4v-4q4 -20 4 -31q0 -9 -1 -20q-8 -68 -59 -114.5t-121 -46.5q-62 0 -111 37q-11 9 -25 7.5t-23 -13.5l-0.5 -0.5l-0.5 -0.5q-5 -2 -14.5 -5.5t-11.5 -4.5l-33 -83q48 10 88 30
q60 -37 131 -37q98 0 169.5 66.5t79.5 162.5q1 13 1 22q0 15 -3 35zM522 313q2 5 1 5.5t-5 -2.5l-183 -208q-8 -9 4 -13l74 -20q12 -4 8 -15l-62 -174q-1 -5 0 -5.5t4 3.5l201 220q9 9 -3 13l-92 28q-12 3 -8 15l61 153v0z" />
    <glyph glyph-name="tq-303" unicode="&#xe61d;" 
d="M734 -9q0 -26 -18.5 -45t-45 -19t-45 19t-18.5 45q0 16 15.5 48.5t31.5 57.5l16 25q64 -96 64 -131zM924 69q0 -27 -18.5 -45.5t-45 -18.5t-45.5 18.5t-19 45.5q0 15 16 48t32 57l16 25q64 -95 64 -130zM319 -9q0 -26 -18.5 -45t-45 -19t-45 19t-18.5 45q0 16 16 48.5
t32 57.5l16 25q63 -96 63 -131zM134 69q0 -27 -19 -45.5t-45.5 -18.5t-45 18.5t-18.5 45.5q0 15 16 48t32 57l16 25q64 -95 64 -130zM1015 509q-2 13 -8 35q-9 31 -26 59q-33 54 -88.5 87t-121.5 34q-15 25 -37 50q-20 22 -46 43q-41 31 -85 48q-28 11 -60 16.5t-58 5.5
q-118 0 -209 -74t-115 -189q-63 -21 -102 -74.5t-39 -120.5q0 -85 60 -145.5t145 -60.5q62 0 114 35q19 -10 45 -18l51 58q-44 9 -79 29q-15 8 -31 1q-9 -1 -16 -6q-37 -29 -84 -29q-56 0 -96 40t-40 96t40 96t96 40q60 0 100 -44q10 -10 24.5 -10.5t25 9t11 24t-9.5 25.5
q-57 61 -141 65q26 82 94.5 133t155.5 51q7 0 22 -1q29 -3 57 -12q53 -16 96 -55q22 -19 35 -37q-6 -2 -18 -7q-1 0 -22 -10q-1 -1 -8 -4t-10 -6q-18 -11 -32 -22q-11 -9 -12 -23.5t8.5 -25.5t23.5 -12t25 8q7 6 20 14q25 16 55 24q24 5 43 5q49 0 91 -25t66 -67
q14 -25 19 -49q0 -1 0.5 -4t0.5 -4q4 -20 4 -31q0 -9 -1 -20q-8 -68 -59.5 -114.5t-120.5 -46.5q-62 0 -111 37q-11 9 -25.5 7.5t-22.5 -13.5q-1 0 -1 -0.5v-0.5q-5 -2 -14.5 -5.5t-11.5 -4.5l-33 -83q48 10 88 30q60 -37 131 -37q97 0 169 66.5t80 162.5q1 13 1 22
q0 15 -3 35zM537 313q2 5 1 5.5t-5 -2.5l-182 -208q-8 -9 3 -13l75 -20q11 -4 7 -15l-61 -174q-2 -5 -1 -5.5t5 3.5l201 220q8 9 -4 13l-92 28q-12 3 -7 15z" />
    <glyph glyph-name="tq-304" unicode="&#xe61e;" 
d="M1008 520q-1 14 -8 35q-9 31 -26 59q-33 55 -88.5 87.5t-121.5 33.5q-14 25 -37 51q-19 22 -46 42q-41 32 -84 49q-28 10 -61 16q-32 6 -57 6q-119 0 -210 -74t-115 -189q-62 -21 -101.5 -74.5t-39.5 -120.5q0 -85 60 -145.5t145 -60.5q62 0 114 34q69 -34 147 -34
q80 0 151 37q60 -37 131 -37q98 0 169.5 66t79.5 163q1 12 1 21q0 15 -3 35zM941 466q-8 -68 -59 -115t-121 -47q-62 0 -111 38q-11 9 -25 7t-23 -13l-1 -1q-57 -31 -122 -31q-70 0 -130 34q-15 9 -31 2q-9 -1 -16 -7q-37 -29 -84 -29q-56 0 -96 40t-40 96.5t40 96.5t96 40
q60 0 101 -44q9 -10 23.5 -11t25 9t11 24.5t-8.5 24.5q-58 62 -142 66q26 82 95 133t156 51q6 0 22 -2q28 -2 57 -11q52 -17 95 -55q22 -19 36 -37q-7 -2 -19 -7q-1 0 -22 -11q-1 -1 -8 -4t-10 -5q-18 -11 -31 -22q-11 -10 -12.5 -24t8 -25t24 -12t25.5 8q6 5 19 13
q25 17 56 24q23 6 42 6q50 0 91.5 -25t65.5 -67q14 -25 19 -49q1 -2 1 -4.5v-3.5q4 -20 4 -32q0 -9 -1 -19zM455 87q0 -24 16.5 -40.5t40.5 -16.5t40.5 16.5t16.5 40.5t-16.5 41t-40.5 17t-40.5 -17t-16.5 -41zM316 -73.5q0 -23.5 17 -40.5t40.5 -17t40.5 17t17 40.5
t-17 40.5t-40.5 17t-40.5 -17t-17 -40.5zM611 -73.5q0 -23.5 16.5 -40.5t40.5 -17t40.5 17t16.5 40.5t-16.5 40.5t-40.5 17t-40.5 -17t-16.5 -40.5zM713 122.5q0 -23.5 17 -40.5t40.5 -17t40.5 17t17 40.5t-17 40.5t-40.5 17t-40.5 -17t-17 -40.5zM196 122.5
q0 -23.5 17 -40.5t40.5 -17t40.5 17t17 40.5t-17 40.5t-40.5 17t-40.5 -17t-17 -40.5z" />
    <glyph glyph-name="tq-305" unicode="&#xe61f;" 
d="M576 -22q0 -26 -19 -45t-45 -19t-45 19t-19 45q0 35 64 131v0q64 -96 64 -131zM1008 475q-1 13 -8 35q-9 31 -26 59q-33 55 -88.5 87.5t-120.5 33.5q-15 25 -38 51q-19 22 -46 42q-41 32 -84 48q-28 11 -61 17q-32 6 -57 6q-119 0 -210 -74t-115 -190q-62 -20 -101.5 -74
t-39.5 -121q0 -85 60 -145t145 -60q62 0 114 34q69 -34 147 -34q80 0 151 36q60 -36 131 -36q98 0 169.5 66t79.5 162q1 13 1 22q0 15 -3 35zM941 421q-8 -69 -59 -115.5t-121 -46.5q-62 0 -111 38q-11 9 -25 7t-23 -14h-1q-57 -31 -122 -31q-70 0 -130 34q-15 9 -31 2
q-9 -2 -16 -7q-36 -29 -84 -29q-56 0 -96 40t-40 96.5t40 96.5t96 40q60 0 101 -44q9 -11 23.5 -11.5t25 9.5t11 24t-8.5 25q-57 62 -142 66q26 81 95 132t156 51q6 0 22 -1q29 -3 57 -11q52 -17 95 -55q22 -20 36 -38q-6 -2 -19 -6l-22 -11q-1 -1 -8 -4t-10 -5
q-19 -12 -31 -23q-11 -9 -12.5 -23.5t8 -25.5t24 -12t25.5 8q6 6 19 14q25 17 56 24q23 6 42 6q50 0 91.5 -25.5t65.5 -67.5q14 -24 19 -49q1 -1 1 -3.5v-4.5q4 -19 4 -31q0 -9 -1 -19z" />
    <glyph glyph-name="tq-306" unicode="&#xe620;" 
d="M576 -70q0 -27 -19 -45.5t-45 -18.5t-45 18.5t-19 45.5q0 35 64 130v0q64 -95 64 -130zM324 27q0 -27 -19 -45.5t-45 -18.5t-45 18.5t-19 45.5q0 15 16 48t32 57l16 25q64 -95 64 -130zM828 27q0 -27 -19 -45.5t-45.5 -18.5t-45 18.5t-18.5 45.5q0 35 64 130
q64 -95 64 -130zM1008 524q-1 13 -8 35q-9 31 -26 59q-33 54 -88.5 87t-121.5 34q-14 25 -37 50q-19 22 -46 43q-41 31 -84 48q-28 11 -61 16q-32 6 -57 6q-119 0 -210 -74t-115 -189q-62 -21 -101.5 -74.5t-39.5 -120.5q0 -85 60 -145.5t145 -60.5q62 0 114 34
q69 -34 147 -34q80 0 151 37q60 -37 131 -37q98 0 169.5 66t79.5 163q1 12 1 21q0 16 -3 36zM941 469q-8 -68 -59 -114.5t-121 -46.5q-62 0 -111 37q-11 9 -25 7t-23 -13l-1 -1q-57 -30 -122 -30q-70 0 -130 34q-15 8 -31 1q-9 -1 -16 -6q-36 -29 -84 -29q-56 0 -96 40
t-40 96t40 96t96 40q60 0 101 -44q9 -10 23.5 -10.5t25 9t11 24t-8.5 24.5q-58 62 -142 66q26 82 95 133t156 51q6 0 22 -1q29 -3 57 -12q52 -16 95 -55q22 -19 36 -37q-6 -2 -19 -7l-22 -11q-1 0 -8 -3.5t-10 -5.5q-18 -11 -31 -22q-11 -9 -12.5 -23.5t8 -25.5t24 -12
t25.5 8q6 5 19 14q25 16 56 24q23 5 42 5q50 0 91.5 -25t65.5 -67q14 -25 19 -49q1 -1 1 -4v-4q4 -20 4 -32q0 -9 -1 -19z" />
    <glyph glyph-name="tq-307" unicode="&#xe621;" 
d="M576 -70q0 -27 -19 -45.5t-45 -18.5t-45 18.5t-19 45.5q0 15 16 47.5t32 57.5l16 25q64 -95 64 -130zM402 27q0 -27 -19 -45.5t-45.5 -18.5t-45 18.5t-18.5 45.5q0 15 16 48t32 57l16 25q64 -95 64 -130zM215 59q0 -27 -19 -45.5t-45.5 -18.5t-45 18.5t-18.5 45.5
q0 35 64 130q64 -95 64 -130zM750 27q0 -27 -18.5 -45.5t-45 -18.5t-45.5 18.5t-19 45.5q0 15 16 48t32 57l16 25q64 -95 64 -130zM937 59q0 -27 -18.5 -45.5t-45 -18.5t-45.5 18.5t-19 45.5q0 35 64 130q64 -95 64 -130zM1008 524q-1 13 -8 35q-9 31 -26 59
q-33 54 -88.5 87t-121.5 34q-14 25 -37 50q-19 22 -46 43q-41 31 -84 48q-28 11 -61 16q-32 6 -57 6q-119 0 -210 -74t-115 -189q-62 -21 -101.5 -74.5t-39.5 -120.5q0 -85 60 -145.5t145 -60.5q62 0 114 34q69 -34 147 -34q80 0 151 37q60 -37 131 -37q98 0 169.5 66
t79.5 163q1 12 1 21q0 16 -3 36zM941 469q-8 -68 -59 -114.5t-121 -46.5q-62 0 -111 37q-11 9 -25 7t-23 -13l-1 -1q-57 -30 -122 -30q-70 0 -130 34q-15 8 -31 1q-9 -1 -16 -6q-36 -29 -84 -29q-56 0 -96 40t-40 96t40 96t96 40q60 0 101 -44q9 -10 23.5 -10.5t25 9t11 24
t-8.5 24.5q-58 62 -142 66q26 82 95 133t156 51q6 0 22 -1q29 -3 57 -12q52 -16 95 -55q22 -19 36 -37q-6 -2 -19 -7l-22 -11q-1 0 -8 -3.5t-10 -5.5q-18 -11 -31 -22q-11 -9 -12.5 -23.5t8 -25.5t24 -12t25.5 8q6 5 19 14q25 16 56 24q23 5 42 5q50 0 91.5 -25t65.5 -67
q14 -25 19 -49q1 -1 1 -4v-4q4 -20 4 -32q0 -9 -1 -19z" />
    <glyph glyph-name="tq-208" unicode="&#xe622;" 
d="M1008 515q-1 14 -8 35q-9 31 -26 59q-33 55 -88.5 88t-121.5 33q-14 25 -37 51q-19 22 -46 42q-41 32 -84 49q-28 10 -61 16q-32 6 -57 6q-119 0 -210 -74t-115 -189q-62 -21 -101.5 -74.5t-39.5 -120.5q0 -85 60 -145.5t145 -60.5q62 0 114 34q69 -34 147 -34
q80 0 151 37q60 -37 131 -37q98 0 169.5 66t79.5 163q1 12 1 21q0 15 -3 35zM941 461q-8 -68 -59 -115t-121 -47q-62 0 -111 38q-11 9 -25 7t-23 -13l-1 -1q-57 -31 -122 -31q-70 0 -130 35q-15 8 -31 1q-9 -1 -16 -7q-37 -29 -84 -29q-56 0 -96 40t-40 96.5t40 96.5t96 40
q60 0 101 -44q9 -10 23.5 -11t25 9t11 24.5t-8.5 24.5q-58 62 -142 66q26 82 95 133t156 51q6 0 22 -2q28 -2 57 -11q52 -17 95 -55q22 -19 36 -37q-7 -2 -19 -7l-22 -11q-1 -1 -8 -4t-10 -5q-18 -11 -31 -22q-11 -10 -12.5 -24t8 -25t24 -12.5t25.5 8.5q6 5 19 13
q25 17 56 24q23 6 42 6q50 0 91.5 -25t65.5 -67q14 -25 19 -49q1 -2 1 -4.5v-3.5q4 -20 4 -32q0 -9 -1 -19zM201 -26q0 -9 -5.5 -15.5t-13.5 -6.5v0q-8 0 -14 6.5t-6 15.5v172q0 9 6 15.5t14 6.5v0q8 0 13.5 -6.5t5.5 -15.5v-172zM318 -50q0 -10 -6 -16.5t-14 -6.5v0
q-8 0 -13.5 6.5t-5.5 16.5v172q0 9 5.5 15.5t13.5 6.5v0q8 0 14 -6.5t6 -15.5v-172zM434 -78q0 -9 -5.5 -15.5t-13.5 -6.5v0q-8 0 -14 6.5t-6 15.5v172q0 9 6 15.5t14 6.5v0q8 0 13.5 -6.5t5.5 -15.5v-172zM551 -104q0 -9 -6 -15.5t-14 -6.5v0q-8 0 -13.5 6.5t-5.5 15.5v172
q0 9 5.5 15.5t13.5 6.5v0q8 0 14 -6.5t6 -15.5v-172zM667 -78q0 -9 -5.5 -15.5t-13.5 -6.5v0q-8 0 -13.5 6.5t-5.5 15.5v172q0 9 5.5 15.5t13.5 6.5v0q8 0 13.5 -6.5t5.5 -15.5v-172zM784 -50q0 -10 -6 -16.5t-14 -6.5v0q-8 0 -13.5 6.5t-5.5 16.5v172q0 9 5.5 15.5
t13.5 6.5v0q8 0 14 -6.5t6 -15.5v-172zM900 -26q0 -9 -5.5 -15.5t-13.5 -6.5v0q-8 0 -13.5 6.5t-5.5 15.5v172q0 9 5.5 15.5t13.5 6.5v0q8 0 13.5 -6.5t5.5 -15.5v-172z" />
    <glyph glyph-name="tq-309" unicode="&#xe623;" 
d="M540 -47q0 -11 -8 -19.5t-20 -8.5t-20 8.5t-8 19.5q0 7 7 21.5t14 25.5l7 11q28 -42 28 -58zM410 -4q0 -12 -8.5 -20t-20 -8t-19.5 8t-8 20q0 15 28 57q28 -42 28 -57zM274 10q0 -12 -8.5 -20t-20 -8t-19.5 8t-8 20q0 16 28 57v0q28 -42 28 -57zM670 -4q0 -12 -8 -20
t-19.5 -8t-20 8t-8.5 20q0 15 28 57q28 -42 28 -57zM806 10q0 -12 -8 -20t-19.5 -8t-20 8t-8.5 20q0 16 28 57v0q28 -42 28 -57zM1008 464q-1 13 -8 35q-9 31 -26 59q-33 55 -88.5 87.5t-121.5 33.5q-14 25 -37 51q-19 22 -46 42q-41 32 -84 48q-28 11 -61 17q-32 6 -57 6
q-119 0 -210 -74t-115 -190q-62 -20 -101.5 -73.5t-39.5 -121.5q0 -85 60 -145t145 -60q62 0 114 34q69 -34 147 -34q80 0 151 37q60 -37 131 -37q98 0 169.5 66t79.5 162q1 13 1 22q0 15 -3 35zM941 410q-8 -69 -59 -115.5t-121 -46.5q-62 0 -111 38q-11 9 -25 7t-23 -13
q0 -1 -0.5 -1h-0.5q-57 -31 -122 -31q-70 0 -130 34q-15 9 -31 2q-9 -2 -16 -7q-36 -29 -84 -29q-56 0 -96 40t-40 96.5t40 96.5t96 40q60 0 101 -44q9 -11 23.5 -11.5t25 9.5t11 24t-8.5 25q-58 62 -142 66q26 81 95 132t156 51q6 0 22 -1q29 -3 57 -11q52 -17 95 -55
q22 -20 36 -38q-7 -2 -19 -6l-22 -11q-1 -1 -8 -4t-10 -5q-19 -12 -31 -23q-11 -9 -12.5 -23.5t8 -25.5t24 -12t25.5 9q6 5 19 13q25 17 56 24q23 6 42 6q50 0 91.5 -25.5t65.5 -66.5q14 -25 19 -49q1 -2 1 -4.5v-3.5q4 -20 4 -32q0 -9 -1 -19z" />
    <glyph glyph-name="tq-310" unicode="&#xe624;" 
d="M246 106q0 -24 -16.5 -40.5t-39.5 -16.5t-39.5 16.5t-16.5 40.5q0 13 14 41.5t28 51t14 21.5q56 -84 56 -114zM461 106q0 -24 -16.5 -40.5t-40 -16.5t-39.5 16.5t-16 40.5q0 13 14 41.5t28 51t14 21.5q56 -84 56 -114zM675 106q0 -24 -16.5 -40.5t-39.5 -16.5t-39.5 16.5
t-16.5 40.5q0 13 14 41.5t28 51t14 21.5q56 -84 56 -114zM890 106q0 -24 -16.5 -40.5t-39.5 -16.5t-39.5 16.5t-16.5 40.5q0 13 14 41.5t28 51t14 21.5q56 -84 56 -114zM354 -51q0 -23 -16.5 -39.5t-40 -16.5t-40 16.5t-16.5 39.5q0 14 14 42.5t28 51t14 21.5
q57 -84 57 -115zM568 -51q0 -23 -16.5 -39.5t-39.5 -16.5t-39.5 16.5t-16.5 39.5q0 14 14 42.5t28 51t14 21.5q56 -84 56 -115zM783 -51q0 -23 -16.5 -39.5t-40 -16.5t-40 16.5t-16.5 39.5q0 14 14.5 42.5t28.5 51t14 21.5q56 -84 56 -115zM948 542q-1 12 -7 31
q-8 27 -23 52q-29 48 -77.5 76.5t-106.5 29.5q-13 22 -33 45q-17 19 -40 37q-36 28 -75 42q-24 10 -53 15q-28 5 -50 5q-105 0 -185 -65t-101 -166q-55 -19 -89.5 -66t-34.5 -106q0 -75 53 -128t128 -53q55 0 100 30q61 -30 129 -30q70 0 133 33q53 -33 115 -33
q86 0 148.5 58.5t70.5 142.5q1 11 1 19q0 14 -3 31zM889 495q-7 -61 -52 -102t-106 -41q-54 0 -97 34q-10 7 -22.5 5.5t-20.5 -11.5v-0.5v-0.5q-51 -27 -108 -27q-61 0 -114 30q-13 8 -27 2q-8 -2 -14 -6q-33 -26 -74 -26q-49 0 -84.5 35.5t-35.5 85t35.5 84.5t84.5 35
q52 0 88 -39q9 -9 21.5 -9.5t21.5 8t9.5 21t-7.5 22.5q-50 54 -124 58q22 71 82.5 116t137.5 45q5 0 19 -1q25 -2 50 -10q46 -15 84 -48q19 -17 31 -33q-5 -2 -16 -6q-2 -1 -19 -10q-1 0 -7 -3t-9 -5q-16 -9 -28 -19q-10 -8 -10.5 -21t7.5 -22.5t20.5 -10.5t22.5 7
q5 5 17 12q22 15 49 21q20 5 37 5q43 0 80 -22t58 -59q12 -22 17 -43v-3.5t1 -3.5q3 -17 3 -28q0 -8 -1 -16z" />
    <glyph glyph-name="tq-311" unicode="&#xe625;" 
d="M338 3q0 -25 -17.5 -42.5t-42 -17.5t-42 17.5t-17.5 42.5q0 33 60 122v0q59 -89 59 -122zM572 -42q0 -24 -17.5 -41.5t-42.5 -17.5t-42.5 17.5t-17.5 41.5q0 15 15 45.5t30 53.5l15 24q60 -90 60 -123zM808 3q0 -25 -17.5 -42.5t-42.5 -17.5t-42.5 17.5t-17.5 42.5
q0 33 60 122v0q60 -89 60 -122zM977 515q-1 12 -7 32q-9 29 -25 56q-31 51 -83 81.5t-113 31.5q-14 23 -35 48q-19 20 -43 39q-39 30 -80 46q-26 10 -56 15t-54 5q-112 0 -197 -69t-108 -177q-58 -20 -95 -70t-37 -113q0 -80 56.5 -136.5t136.5 -56.5q58 0 106 32
q65 -32 138 -32q75 0 142 34q56 -34 122 -34q92 0 159 62t75 152q1 12 1 21q0 14 -3 33zM914 464q-7 -65 -55 -108.5t-114 -43.5q-57 0 -103 35q-11 9 -24.5 7t-21.5 -13v0q-54 -29 -115 -29q-65 0 -122 32q-14 8 -29 1q-8 -1 -15 -6q-34 -27 -78 -27q-53 0 -90.5 37.5
t-37.5 90.5t37.5 90t90.5 37q56 0 94 -41q9 -10 22.5 -10.5t23.5 9t10.5 23t-9.5 22.5q-53 58 -132 62q24 77 88.5 124.5t146.5 47.5q6 0 20 -1q27 -2 54 -10q49 -16 90 -52q20 -18 33 -35l-18 -6q-1 -1 -20 -10l-8 -4t-9 -5q-17 -10 -30 -21q-10 -9 -11 -22.5t7.5 -23.5
t22 -11t23.5 8q6 5 18 12q24 16 53 23q22 5 39 5q47 0 86 -23.5t61 -62.5q14 -24 19 -46v-4.5t1 -3.5q3 -18 3 -29q0 -9 -1 -18zM181 10q0 -8 -5.5 -14t-13.5 -6v0q-7 0 -12.5 6t-5.5 14v162q0 8 5.5 14t12.5 6v0q8 0 13.5 -6t5.5 -14v-162zM414 -46q0 -9 -5.5 -15t-13.5 -6
v0q-7 0 -12.5 6t-5.5 15v161q0 9 5.5 15t12.5 6v0q8 0 13.5 -6t5.5 -15v-161zM647 -46q0 -9 -5.5 -15t-12.5 -6v0q-8 0 -13.5 6t-5.5 15v161q0 9 5.5 15t13.5 6v0q7 0 12.5 -6t5.5 -15v-161zM880 10q0 -8 -5.5 -14t-12.5 -6v0q-8 0 -13.5 6t-5.5 14v162q0 8 5.5 14t13.5 6v0
q7 0 12.5 -6t5.5 -14v-162z" />
    <glyph glyph-name="tq-312" unicode="&#xe626;" 
d="M977 507q-1 13 -7 33q-9 29 -25 55q-31 52 -83 82.5t-113 31.5q-14 23 -35 47q-19 21 -43 40q-39 30 -80 45q-26 10 -56 16q-30 5 -54 5q-112 0 -197 -69.5t-108 -177.5q-58 -19 -95 -69.5t-37 -113.5q0 -79 56.5 -135.5t136.5 -56.5q58 0 106 32q65 -32 138 -32
q75 0 142 34q56 -34 122 -34q92 0 159 62t75 152q1 12 1 20q0 15 -3 33zM914 456q-7 -64 -55 -107.5t-114 -43.5q-57 0 -103 35q-11 8 -24.5 6.5t-21.5 -12.5v-1q-54 -28 -115 -28q-65 0 -122 32q-14 8 -29 1q-8 -1 -15 -6q-34 -27 -78 -27q-53 0 -90.5 37.5t-37.5 90
t37.5 90t90.5 37.5q56 0 94 -41q9 -10 22.5 -10.5t23.5 8.5t10.5 22.5t-9.5 23.5q-53 58 -132 62q24 76 88.5 124t146.5 48q6 0 20 -1q27 -2 54 -11q49 -15 90 -51q20 -18 33 -35q-6 -2 -18 -7q-2 0 -20 -10q-2 -1 -8 -3.5t-9 -4.5q-17 -11 -30 -21q-10 -9 -11 -22.5
t7.5 -23.5t22 -11.5t23.5 7.5q6 5 18 13q24 15 53 22q22 6 39 6q47 0 86 -23.5t61 -63.5q14 -23 19 -46v-3.5t1 -3.5q3 -19 3 -30q0 -8 -1 -18zM221 -1q0 -8 -5.5 -14t-12.5 -6v0q-8 0 -13.5 6t-5.5 14v162q0 8 5.5 14t13.5 6v0q7 0 12.5 -6t5.5 -14v-162zM330 -23
q0 -9 -5.5 -15t-12.5 -6v0q-8 0 -13 6t-5 15v161q0 9 5 15t13 6v0q7 0 12.5 -6t5.5 -15v-161zM439 -49q0 -9 -5 -15t-13 -6v0q-8 0 -13 6t-5 15v161q0 9 5 15t13 6v0q8 0 13 -6t5 -15v-161zM548 -73q0 -9 -5 -15t-13 -6v0q-7 0 -12.5 6t-5.5 15v161q0 8 5.5 14.5t12.5 6.5v0
q8 0 13 -6.5t5 -14.5v-161zM658 -49q0 -9 -5.5 -15t-13.5 -6v0q-7 0 -12.5 6t-5.5 15v161q0 9 5.5 15t12.5 6v0q8 0 13.5 -6t5.5 -15v-161zM767 -23q0 -9 -5.5 -15t-12.5 -6v0q-8 0 -13.5 6t-5.5 15v161q0 9 5.5 15t13.5 6v0q7 0 12.5 -6t5.5 -15v-161zM876 -1
q0 -8 -5.5 -14t-12.5 -6v0q-8 0 -13 6t-5 14v162q0 8 5 14t13 6v0q7 0 12.5 -6t5.5 -14v-162z" />
    <glyph glyph-name="tq313" unicode="&#xe627;" 
d="M948 555q-1 12 -7 31q-8 27 -23 52q-29 48 -77.5 77t-106.5 29q-13 22 -33 45q-17 19 -40 37q-37 28 -75 43q-24 9 -52.5 14t-50.5 5q-105 0 -185 -65t-101 -166q-55 -18 -89.5 -65.5t-34.5 -106.5q0 -74 53 -127t128 -53q55 0 100 30q61 -30 129 -30q70 0 133 32
q53 -32 115 -32q86 0 148.5 58t70.5 142q1 11 1 19q0 14 -3 31zM889 508q-7 -60 -52 -101t-106 -41q-54 0 -97 33q-10 7 -22.5 5.5t-20.5 -11.5v-1q-51 -26 -108 -26q-61 0 -114 30q-13 7 -28 1q-7 -1 -13 -6q-33 -25 -74 -25q-49 0 -84.5 35t-35.5 84.5t35.5 84.5t84.5 35
q52 0 88 -38q9 -10 21.5 -10.5t21.5 8t9.5 21.5t-7.5 22q-50 54 -124 58q22 72 82.5 116.5t137.5 44.5q5 0 19 -1q25 -2 50 -10q46 -15 84 -48q19 -17 31 -33q-5 -2 -16 -6q-2 -1 -19 -10q-1 0 -7 -3t-9 -5q-16 -9 -28 -19q-10 -8 -10.5 -21t7.5 -22.5t20.5 -10.5t22.5 7
q5 5 17 12q22 15 49 21q20 5 37 5q43 0 80 -22t58 -59q12 -21 17 -43v-3.5t1 -3.5q3 -17 3 -28q0 -7 -1 -16zM125 169l56 85l55 -85l-55 -84zM291 85l55 84l56 -84l-56 -85zM457 -36l55 85l55 -85l-55 -84zM622 85l56 84l55 -84l-55 -85zM788 169l55 85l56 -85l-56 -84z" />
    <glyph glyph-name="tq-400" unicode="&#xe628;" 
d="M1011 487q-2 13 -8 35q-9 31 -26 59q-33 54 -88.5 87t-121.5 34q-14 25 -37 50q-20 22 -46 43q-41 32 -85 48q-28 11 -60 17q-32 5 -58 5q-118 0 -209 -74t-115 -189q-63 -21 -102 -74.5t-39 -120.5q0 -85 60 -145.5t145 -60.5q62 0 114 35q69 -35 146 -35q81 0 152 37
q60 -37 131 -37q97 0 169 66.5t80 162.5q1 12 1 22q0 15 -3 35zM944 433q-8 -69 -59.5 -115.5t-120.5 -46.5q-62 0 -111 38q-11 8 -25 6.5t-23 -13.5l-1 -1q-57 -30 -123 -30q-69 0 -129 34q-15 8 -31 2q-9 -2 -16 -7q-37 -29 -84 -29q-56 0 -96 40t-40 96t40 96t96 40
q60 0 100 -43q10 -11 24.5 -11.5t25 9t11 24t-9.5 25.5q-57 61 -141 66q26 81 95 132t155 51q7 0 23 -1q28 -3 57 -12q52 -16 95 -55q22 -19 36 -37q-7 -2 -19 -6l-22 -11q-1 -1 -8 -4t-10 -6q-18 -11 -32 -22q-10 -9 -11.5 -23.5t8 -25.5t24 -12t25.5 8q5 5 19 14
q25 17 56 24q23 6 42 6q49 0 91 -25.5t66 -67.5q14 -24 19 -49q0 -1 0.5 -3.5t0.5 -4.5q4 -19 4 -31q0 -9 -1 -19zM584 -22l-31 18l31 17q9 6 12.5 14.5t-0.5 15t-13 8t-18 -3.5l-31 -18v35q0 10 -5.5 17.5t-13.5 7.5t-13.5 -7.5t-5.5 -17.5v-35l-31 18q-9 5 -18 3.5
t-13 -8.5t-0.5 -15.5t12.5 -13.5l30 -17l-30 -18q-9 -5 -12.5 -13.5t0.5 -15.5t13 -8t18 4l31 17v-35q0 -10 5.5 -17t13.5 -7t13.5 7t5.5 17v35l31 -17q8 -5 17.5 -4t13.5 8t0.5 15.5t-12.5 13.5z" />
    <glyph glyph-name="tq-401" unicode="&#xe629;" 
d="M977 524q-1 12 -7 33q-9 29 -25 55q-31 51 -83 82t-113 32q-14 23 -35 47q-19 21 -43 40q-39 30 -80 45q-26 10 -56 16q-30 5 -54 5q-112 0 -197 -69.5t-108 -177.5q-58 -19 -95 -69.5t-37 -113.5q0 -79 56.5 -136t136.5 -57q58 0 106 33q65 -33 138 -33q75 0 142 35
q56 -35 122 -35q92 0 159 62.5t75 152.5q1 12 1 20q0 15 -3 33zM914 473q-7 -64 -55 -107.5t-114 -43.5q-57 0 -103 35q-11 8 -24.5 6.5t-21.5 -12.5v-1q-54 -28 -115 -28q-65 0 -122 32q-14 8 -29 1q-8 -1 -15 -6q-34 -27 -78 -27q-53 0 -90.5 37.5t-37.5 90t37.5 90
t90.5 37.5q56 0 94 -41q9 -10 22.5 -10.5t23.5 8.5t10.5 22.5t-9.5 23.5q-53 58 -132 62q24 76 88.5 124t146.5 48q6 0 20 -1q28 -3 54 -11q49 -15 90 -51q20 -18 33 -35q-6 -2 -18 -7l-20 -10q-2 -1 -8 -3.5t-9 -4.5q-17 -11 -30 -21q-10 -9 -11 -22.5t7.5 -23.5t22 -11.5
t23.5 7.5q6 5 18 13q24 16 53 22q22 6 39 6q47 0 86 -23.5t61 -63.5q14 -23 19 -46v-3.5t1 -3.5q3 -19 3 -30q0 -8 -1 -18zM577 -40l-29 16l29 17q8 5 11 13t-0.5 14.5t-12 7.5t-16.5 -4l-29 -16v33q0 9 -5.5 16t-12.5 7t-12.5 -7t-5.5 -16v-33l-29 16q-8 5 -16.5 4
t-12 -7.5t-0.5 -14.5t11 -13l29 -17l-29 -16q-8 -5 -11 -13t0.5 -14.5t12 -7.5t16.5 4l29 16v-33q0 -9 5.5 -16t12.5 -7t12.5 7t5.5 16v33l29 -16q8 -5 16.5 -4t12 7.5t0.5 14.5t-11 13zM310 66l-28 16l28 17q8 5 11.5 13t-0.5 14.5t-12.5 7.5t-16.5 -4l-29 -16v33
q0 9 -5 16t-12.5 7t-13 -7t-5.5 -16v-33l-28 16q-9 5 -17.5 4t-12 -7.5t-0.5 -14.5t12 -13l28 -17l-28 -16q-9 -5 -12 -13t0.5 -14.5t12 -7.5t17.5 4l28 16v-33q0 -9 5.5 -16t13 -7t12.5 7t5 16v33l29 -16q8 -5 16.5 -4t12.5 7.5t0.5 14.5t-11.5 13zM839 66l-29 16l29 17
q8 5 11.5 13t-0.5 14.5t-12.5 7.5t-16.5 -4l-29 -16v33q0 9 -5 16t-12.5 7t-13 -7t-5.5 -16v-33l-28 16q-9 5 -17.5 4t-12 -7.5t-0.5 -14.5t12 -13l28 -17l-28 -16q-9 -5 -12 -13t0.5 -14.5t12 -7.5t17.5 4l28 16v-33q0 -9 5.5 -16t13 -7t12.5 7t5 16v33l29 -16
q8 -5 16.5 -4t12.5 7.5t0.5 14.5t-11.5 13z" />
    <glyph glyph-name="tq-402" unicode="&#xe62a;" 
d="M977 524q-1 12 -7 33q-9 29 -25 55q-31 51 -83 82t-113 32q-14 23 -35 47q-19 21 -43 40q-39 30 -80 45q-26 10 -56 16q-30 5 -54 5q-112 0 -197 -69.5t-108 -177.5q-58 -19 -95 -69.5t-37 -113.5q0 -79 56.5 -136t136.5 -57q58 0 106 33q65 -33 138 -33q75 0 142 35
q56 -35 122 -35q92 0 159 62.5t75 152.5q1 12 1 20q0 15 -3 33zM914 473q-7 -64 -55 -107.5t-114 -43.5q-57 0 -103 35q-11 8 -24.5 6.5t-21.5 -12.5v-1q-54 -28 -115 -28q-65 0 -122 32q-14 8 -29 1q-8 -1 -15 -6q-34 -27 -78 -27q-53 0 -90.5 37.5t-37.5 90t37.5 90
t90.5 37.5q56 0 94 -41q9 -10 22.5 -10.5t23.5 8.5t10.5 22.5t-9.5 23.5q-53 58 -132 62q24 76 88.5 124t146.5 48q6 0 20 -1q28 -3 54 -11q49 -15 90 -51q20 -18 33 -35q-6 -2 -18 -7l-20 -10q-2 -1 -8 -3.5t-9 -4.5q-17 -11 -30 -21q-10 -9 -11 -22.5t7.5 -23.5t22 -11.5
t23.5 7.5q6 5 18 13q24 16 53 22q22 6 39 6q47 0 86 -23.5t61 -63.5q14 -23 19 -46v-3.5t1 -3.5q3 -19 3 -30q0 -8 -1 -18zM585 -40l-29 16l29 17q8 5 11.5 13t-0.5 14.5t-12.5 7.5t-16.5 -4l-29 -16v33q0 9 -5 16t-12.5 7t-13 -7t-5.5 -16v-33l-28 16q-9 5 -17.5 4
t-12 -7.5t-0.5 -14.5t12 -13l28 -17l-28 -16q-9 -5 -12 -13t0.5 -14.5t12 -7.5t17.5 4l28 16v-33q0 -9 5.5 -16t13 -7t12.5 7t5 16v33l29 -16q8 -5 16.5 -4t12.5 7.5t0.5 14.5t-11.5 13zM276 73l-29 17l29 16q8 5 11.5 13t-0.5 14.5t-12.5 7.5t-16.5 -4l-29 -16v33
q0 9 -5 16t-12.5 7t-13 -7t-5.5 -16v-33l-28 16q-9 5 -17.5 4t-12 -7.5t-0.5 -14.5t12 -13l28 -16l-28 -17q-9 -5 -12 -13t0.5 -14.5t12 -7.5t17.5 4l28 16v-33q0 -9 5.5 -16t13 -7t12.5 7t5 16v33l29 -16q8 -5 16.5 -4t12.5 7.5t0.5 14.5t-11.5 13zM410 54l-17 10l17 9
q12 7 6.5 16t-17.5 3l-16 -10v19q0 6 -3.5 10t-7.5 4t-7.5 -4t-3.5 -10v-19l-16 10q-12 6 -17 -3t6 -16l17 -9l-17 -10q-11 -7 -6 -16t17 -2l16 9v-19q0 -5 3.5 -9t7.5 -4t7.5 4t3.5 9v19l16 -9q12 -7 17 2t-6 16v0zM707 54l-17 10l17 9q12 7 6.5 16t-17.5 3l-16 -10v19
q0 6 -3 10t-7.5 4t-7.5 -4t-3 -10v-19l-17 10q-12 6 -17 -3t6 -16l17 -9l-17 -10q-11 -7 -6 -16t17 -2l17 9v-19q0 -5 3 -9t7.5 -4t7.5 4t3 9v20l16 -10q12 -7 17 2q6 9 -6 16v0zM894 73l-28 17l28 16q8 5 11.5 13t-0.5 14.5t-12.5 7.5t-16.5 -4l-29 -16v33q0 9 -5 16
t-12.5 7t-13 -7t-5.5 -16v-33l-28 16q-9 5 -17.5 4t-12 -7.5t-0.5 -14.5t12 -13l28 -16l-28 -17q-9 -5 -12 -13t0.5 -14.5t12 -7.5t17.5 4l28 16v-33q0 -9 5.5 -16t13 -7t12.5 7t5 16v33l29 -16q8 -5 16.5 -4t12.5 7.5t0.5 14.5t-11.5 13z" />
    <glyph glyph-name="tq-403" unicode="&#xe62b;" 
d="M1008 506q-1 13 -8 35q-9 31 -26 59q-33 55 -88.5 87.5t-121.5 33.5q-14 25 -37 51q-19 22 -46 42q-41 32 -84 48q-28 11 -61 17q-32 6 -57 6q-119 0 -210 -74t-115 -190q-62 -20 -101.5 -74t-39.5 -121q0 -85 60 -145t145 -60q62 0 114 34q69 -34 147 -34q80 0 151 36
q60 -36 131 -36q98 0 169.5 66t79.5 162q1 13 1 22q0 15 -3 35zM941 452q-8 -69 -59 -115.5t-121 -46.5q-62 0 -111 38q-11 9 -25 7t-23 -14h-1q-57 -31 -122 -31q-70 0 -130 34q-15 9 -31 2q-9 -2 -16 -7q-37 -29 -84 -29q-56 0 -96 40t-40 96.5t40 96.5t96 40
q60 0 101 -44q9 -11 23.5 -11.5t25 9.5t11 24t-8.5 25q-58 62 -142 66q26 81 95 132t156 51q6 0 22 -1q29 -3 57 -11q52 -17 95 -55q22 -20 36 -38q-7 -2 -19 -6q-3 -1 -22 -11q-1 -1 -8 -4t-10 -5q-18 -11 -31 -23q-11 -9 -12.5 -23.5t8 -25.5t24 -12t25.5 8q6 6 19 14
q25 17 56 24q23 6 42 6q50 0 91.5 -25.5t65.5 -67.5q14 -24 19 -49q1 -1 1 -3.5v-4.5q4 -19 4 -31q0 -9 -1 -19zM282 78l-30 17l30 18q9 5 12.5 13.5t-0.5 15.5t-13 8t-18 -4l-30 -17v35q0 10 -6 17t-14 7t-13.5 -7t-5.5 -17v-35l-31 17q-8 5 -17 4t-13.5 -8t-1 -15.5
t12.5 -13.5l31 -18l-31 -17q-9 -5 -12 -14t0.5 -15.5t13 -8t17.5 3.5l31 18v-35q0 -10 5.5 -17.5t13.5 -7.5t14 7.5t6 17.5v35l30 -18q9 -5 18 -3.5t13 8.5t0.5 15.5t-12.5 13.5zM455 85l-18 10l18 10q12 8 6.5 17.5t-18.5 2.5l-17 -10v20q0 6 -3.5 10.5t-8 4.5t-8 -4.5
t-3.5 -10.5v-20l-18 10q-12 7 -17.5 -2.5t6.5 -17.5l18 -10l-18 -10q-12 -7 -6.5 -17t17.5 -3l18 11v-21q0 -6 3.5 -10t8 -4t8 4t3.5 10v21l17 -10q13 -8 18.5 2t-6.5 17zM358 -72l-18 10l18 10q13 7 7 17t-18 3l-18 -11v21q0 6 -3.5 10t-8 4t-8 -4t-3.5 -10v-21l-17 11
q-13 7 -18.5 -3t7.5 -17l17 -10l-17 -10q-13 -8 -7.5 -17.5t18.5 -2.5l17 10v-20q0 -6 3.5 -10.5t8 -4.5t8 4.5t3.5 10.5v20l18 -10q12 -7 18 2.5t-7 17.5zM764 -72l-17 10l17 10q13 7 7.5 17t-18.5 3l-18 -11v21q0 6 -3 10t-8 4t-8 -4t-3 -10v-21l-18 11q-12 7 -18 -3
t7 -17l18 -10l-18 -10q-13 -8 -7 -17.5t18 -2.5l18 10v-20q0 -6 3 -10.5t8 -4.5t8 4.5t3 10.5v20l18 -10q13 -7 18.5 2.5t-7.5 17.5zM668 85l-18 10l18 10q12 8 6.5 17.5t-18.5 2.5l-17 -10v20q0 6 -3.5 10.5t-8 4.5t-8 -4.5t-3.5 -10.5v-20l-18 10q-12 7 -17.5 -2.5
t6.5 -16.5l18 -11l-18 -10q-12 -7 -6.5 -17t17.5 -3l18 11v-21q0 -6 3.5 -10t8 -4t8 4t3.5 10v21l18 -10q12 -8 17.5 2t-6.5 17v0zM890 78l-30 17l30 18q9 5 12.5 13.5t-0.5 15.5t-13 8t-18 -4l-31 -17v35q0 10 -5.5 17t-13.5 7t-13.5 -7t-5.5 -17v-35l-31 17q-9 5 -18 4
t-13 -8t-0.5 -15.5t12.5 -13.5l31 -18l-31 -17q-9 -5 -12.5 -14t0.5 -15.5t13 -8t18 3.5l31 18v-35q0 -10 5.5 -17.5t13.5 -7.5t13.5 7.5t5.5 17.5v35l31 -18q9 -5 18 -3.5t13 8.5t0.5 15.5t-12.5 13.5z" />
    <glyph glyph-name="tq-404" unicode="&#xe62c;" 
d="M572 -42q0 -25 -17.5 -42.5t-42.5 -17.5t-42.5 17.5t-17.5 42.5q0 15 15 45.5t30 53.5l15 23q60 -89 60 -122zM263 49q0 -25 -17.5 -42.5t-42.5 -17.5t-42.5 17.5t-17.5 42.5q0 15 15 45.5t30 53.5l15 23q60 -89 60 -122zM881 49q0 -25 -17.5 -42.5t-42.5 -17.5
t-42.5 17.5t-17.5 42.5q0 15 15 45.5t30 53.5l15 23q60 -89 60 -122zM977 515q-1 12 -7 33q-9 29 -25 55q-31 51 -83 82t-113 31q-14 24 -35 48q-19 20 -43 40q-39 29 -80 45q-26 10 -56 15q-30 6 -54 6q-112 0 -197 -69.5t-108 -177.5q-58 -19 -95 -69.5t-37 -113.5
q0 -80 56.5 -136.5t136.5 -56.5q58 0 106 32q65 -32 138 -32q75 0 142 35q56 -35 122 -35q92 0 159 62t75 153q1 11 1 20q0 14 -3 33zM914 464q-7 -64 -55 -108t-114 -44q-57 0 -103 36q-11 8 -24.5 6t-21.5 -12v-1q-54 -29 -115 -29q-65 0 -122 32q-14 8 -29 2
q-8 -1 -15 -6q-34 -28 -78 -28q-53 0 -90.5 37.5t-37.5 90.5t37.5 90.5t90.5 37.5q56 0 94 -41q9 -10 22.5 -10.5t23.5 8.5t10.5 22.5t-9.5 23.5q-53 58 -132 62q24 76 88.5 124t146.5 48q6 0 20 -1q28 -3 54 -11q49 -16 90 -52q20 -18 33 -35q-6 -1 -18 -6l-20 -10l-8 -4
t-9 -5q-17 -10 -30 -21q-10 -8 -11 -21.5t7.5 -24t22 -11.5t23.5 8q6 5 18 13q24 15 53 22q22 5 39 5q47 0 86 -23.5t61 -62.5q14 -23 19 -46v-3.5t1 -3.5q3 -19 3 -30q0 -9 -1 -18zM382 -4l-17 9l17 10q12 7 6.5 16t-16.5 2l-17 -10v20q0 5 -3 9t-7.5 4t-7.5 -4t-3 -9v-20
l-17 10q-12 7 -17 -2.5t7 -15.5l16 -10l-16 -9q-12 -7 -7 -16t17 -3l17 10v-19q0 -6 3 -10t7.5 -4t7.5 4t3 10v19l17 -10q11 -6 16.5 3t-6.5 16v0zM707 -4l-17 9l17 10q11 7 6 16t-17 2l-17 -10v20q0 5 -3 9t-7 4t-7.5 -4t-3.5 -9v-20l-16 10q-12 7 -17 -2.5t6 -15.5l17 -10
l-17 -9q-11 -7 -6 -16t17 -3l16 10v-19q0 -6 3.5 -10t7.5 -4t7.5 4t3.5 10v19l16 -10q12 -6 17 3t-6 16v0z" />
    <glyph glyph-name="tq-405" unicode="&#xe62d;" 
d="M958 43q0 -62 -43.5 -105.5t-105.5 -43.5t-105.5 43.5t-43.5 105.5q0 74 137 287q12 18 12 17q6 -9 16 -24.5t35.5 -58t45.5 -79.5t36 -78t16 -64zM500 542l-91 53l91 52q27 16 37 41.5t-2 46t-39 24.5t-54 -11l-91 -53v105q0 31 -17 52.5t-41 21.5t-41 -21.5t-17 -52.5
v-105l-91 53q-27 15 -54 11t-39 -24.5t-2 -46t37 -41.5l91 -52l-91 -53q-27 -16 -37 -41t2 -46t39 -25t54 12l91 52v-105q0 -31 17 -52.5t41 -21.5t41 21.5t17 52.5v106l91 -53q27 -16 54 -12t39 25t2 46t-37 41zM215 -62q-17 -17 -34.5 -24t-24.5 0v0q-8 7 -0.5 24.5
t24.5 34.5l737 737q17 17 34.5 24.5t24.5 -0.5v0q7 -7 0 -24.5t-24 -34.5z" />
    <glyph glyph-name="tq-406" unicode="&#xe62e;" 
d="M334 -9q0 -20 -14.5 -34.5t-35 -14.5t-34.5 14.5t-14 34.5q0 12 12 37t24 44l13 19q49 -73 49 -100zM637 -2l-24 14l24 13q6 4 9 10.5t-0.5 12t-10 6.5t-13.5 -3l-24 -14v27q0 8 -4 13.5t-10.5 5.5t-10.5 -5.5t-4 -13.5v-27l-24 14q-7 4 -14 3t-10 -6.5t-0.5 -12
t9.5 -10.5l24 -13l-24 -14q-6 -4 -9 -10.5t0 -11.5t10 -6t14 2l24 14v-27q0 -8 4 -13.5t10.5 -5.5t10.5 5.5t4 13.5v27l24 -14q6 -3 13 -2t10.5 6t0.5 11.5t-9 10.5zM967 547h-47q-10 0 -17 -6.5t-7 -16.5t7 -16.5t17 -6.5h47q9 0 16 6.5t7 16.5t-7 16.5t-16 6.5zM504 673
q7 -7 16.5 -7t16.5 7t7 16.5t-7 16.5l-33 33q-7 7 -16.5 7t-16.5 -7t-7 -16.5t7 -16.5zM868 673l33 33q7 7 7 16.5t-7 16.5t-16.5 7t-16.5 -7l-33 -33q-7 -7 -7 -16.5t7 -16.5t16.5 -7t16.5 7zM686 734q10 0 16.5 7t6.5 17v47q0 9 -6.5 16t-16.5 7t-16.5 -7t-6.5 -16v-47
q0 -10 6.5 -17t16.5 -7zM868 375q-7 7 -16.5 7t-16.5 -7t-7 -16.5t7 -16.5l33 -33q7 -7 16.5 -7t16.5 7t7 16.5t-7 16.5zM686 641q48 0 82.5 -34t34.5 -83q0 -43 -30 -77q13 -21 20 -45q57 49 57 122q0 68 -48 116t-116 48q-43 0 -79.5 -20.5t-58.5 -55.5q20 -16 35 -33
q16 28 43 45t60 17zM793 402q-22 -20 -47 -30q3 -15 3 -24q0 -8 -1 -15q-6 -53 -45.5 -88.5t-93.5 -35.5q-47 0 -84 29q-9 6 -20 5t-18 -10v-0.5v-0.5q-45 -23 -95 -23q-53 0 -99 26q-12 7 -24 1q-7 -1 -12 -5q-29 -22 -65 -22q-43 0 -73.5 30.5t-30.5 74t30.5 74t73.5 30.5
q46 0 77 -33q8 -9 19 -9t19 7.5t8.5 18.5t-7.5 19q-43 47 -108 50q19 63 72 102.5t120 39.5q5 0 17 -1q23 -2 44 -9q41 -13 74 -42q6 27 21 51q-31 24 -65 37q-22 8 -46 13q-25 4 -45 4q-91 0 -161 -57t-88 -146q-48 -15 -78.5 -56.5t-30.5 -92.5q0 -66 46.5 -112.5
t111.5 -46.5q48 0 87 27q54 -27 113 -27q62 0 117 29q46 -29 100 -29q76 0 131 51t61 125q1 10 1 17q0 12 -2 27q-2 11 -7 27zM485 494q-9 -7 -10 -18t6.5 -19.5t18.5 -9.5t19 7q4 3 15 10q-10 26 -11 54q-1 0 -6.5 -2.5t-7.5 -4.5q-14 -8 -24 -17zM730 416q25 10 43 31
q-25 42 -67.5 67t-93.5 26q-11 20 -29 39q-14 -26 -14 -55q0 -21 8 -41q18 4 33 4q38 0 70 -19.5t50 -51.5zM554 532q-6 -2 -14 -5q-2 -1 -17 -9q1 -28 11 -54q20 13 43 19q-8 20 -8 41q0 29 14 55q-15 17 -35 33q-15 -24 -21 -51q16 -15 27 -29zM730 416q11 -19 15 -38
q0 -1 0.5 -3t0.5 -3q25 10 47 30q-7 24 -20 45q-18 -21 -43 -31z" />
    <glyph glyph-name="tq-407" unicode="&#xe62f;" 
d="M997 488h-50q-10 0 -17.5 -7.5t-7.5 -18t7.5 -17.5t17.5 -7h50q10 0 17.5 7t7.5 17.5t-7.5 18t-17.5 7.5zM504 621q7 -7 17.5 -7t17.5 7.5t7 17.5t-7 18l-35 35q-8 7 -18 7t-17.5 -7t-7.5 -17.5t7 -17.5zM892 621l35 36q7 7 7 17.5t-7.5 17.5t-17.5 7t-17 -7l-36 -35
q-7 -8 -7 -18t7.5 -17.5t17.5 -7.5t18 7zM697.5 687q10.5 0 17.5 7.5t7 17.5v50q0 10 -7 17.5t-17.5 7.5t-17.5 -7.5t-7 -17.5v-50q0 -10 7 -17.5t17.5 -7.5zM892 304q-8 7 -18 7t-17.5 -7t-7.5 -17.5t7 -17.5l36 -35q7 -8 17.5 -8t17.5 7.5t7 17.5t-7 18zM698 587
q51 0 87.5 -36.5t36.5 -87.5q0 -47 -31 -82q14 -23 21 -49q60 53 60 131q0 72 -51 123t-123 51q-46 0 -85 -22t-62 -59q21 -16 37 -35q16 30 45.5 48t64.5 18zM483 431q-9 -8 -10 -19.5t6.5 -20.5t19.5 -10t21 7q4 3 16 11q-11 27 -12 58q-2 -1 -7.5 -3.5t-7.5 -4.5
q-16 -9 -26 -18zM745 347q26 11 46 34q-27 44 -72.5 71t-99.5 28q-12 21 -31 41q-15 -28 -15 -58q0 -22 8 -44q20 4 35 4q41 0 75 -20.5t54 -55.5zM557 471l-15 -5q-1 0 -18 -9q1 -31 11 -58q22 14 46 20q-8 22 -8 44q0 30 15 58q-16 19 -37 35q-17 -25 -23 -54
q18 -16 29 -31zM745 347q11 -20 16 -40v-3v-3q28 11 51 31q-7 26 -21 49q-20 -23 -46 -34zM297 144q-5 2 -7 3l-3 1.5t-3 2t-6 3.5q-12 7 -25 2q-8 -2 -13 -6q-30 -24 -69 -24q-46 0 -79 33t-33 79t33 79t79 33q49 0 82 -36q8 -9 20 -9.5t20.5 7.5t9 20t-7.5 21
q-47 50 -116 54q21 67 77.5 108.5t127.5 41.5q6 0 18 -1q24 -2 47 -9q44 -14 79 -45q6 29 23 54q-34 26 -70 40q-23 9 -49 13.5t-48 4.5q-97 0 -171.5 -60.5t-94.5 -155.5q-51 -17 -83.5 -61t-32.5 -99q0 -70 49.5 -119.5t119.5 -49.5q51 0 93 28q14 -6 17 -7zM819 304
q-1 10 -7 28q-23 -21 -51 -31q3 -16 3 -26v-16q-6 -56 -48.5 -94.5t-99.5 -38.5q-51 0 -91 31q-9 8 -20.5 6.5t-18.5 -11.5h-1v-1q-7 -3 -16 -6l19 -55q6 2 21 10q49 -30 107 -30q80 0 139 54t66 133v18q0 13 -2 29zM448 53l-29 16l29 17q8 5 11.5 13t-0.5 14.5t-12.5 8
t-16.5 -3.5l-29 -17v34q0 9 -5.5 16t-13 7t-13 -7t-5.5 -16v-34l-29 17q-8 5 -16.5 3.5t-12.5 -8t-0.5 -14.5t11.5 -13l29 -16l-29 -17q-8 -5 -11.5 -13t0.5 -14.5t12.5 -8t16.5 3.5l29 17v-34q0 -9 5.5 -16t13 -7t13 7t5.5 16v34l29 -17q8 -5 16.5 -3.5t12.5 8t0.5 14.5
t-11.5 13v0z" />
    <glyph glyph-name="tq-500" unicode="&#xe630;" 
d="M536 536q0 -13 -9.5 -22.5t-22.5 -9.5h-469q-14 0 -23.5 9.5t-9.5 22.5v0q0 14 9.5 23.5t23.5 9.5h469q13 0 22.5 -9.5t9.5 -23.5v0zM1022 384q0 -14 -9.5 -23.5t-23.5 -9.5h-857q-14 0 -23.5 9.5t-9.5 23.5v0q0 14 9.5 23.5t23.5 9.5h857q14 0 23.5 -9.5t9.5 -23.5v0z
M876 232q0 -14 -9.5 -23.5t-23.5 -9.5h-808q-14 0 -23.5 9.5t-9.5 23.5v0q0 13 9.5 22.5t23.5 9.5h808q14 0 23.5 -9.5t9.5 -22.5v0zM512 85q-124 0 -211.5 87.5t-87.5 211.5t87.5 211.5t211.5 87.5t211.5 -87.5t87.5 -211.5t-87.5 -211.5t-211.5 -87.5zM512 619
q-97 0 -166 -69t-69 -166t69 -166t166 -69t166 69t69 166t-69 166t-166 69z" />
    <glyph glyph-name="tq-501" unicode="&#xe631;" 
d="M1022 704q0 -19 -13.5 -32.5t-32.5 -13.5h-928q-19 0 -32.5 13.5t-13.5 32.5v0q0 19 13.5 32.5t32.5 13.5h928q19 0 32.5 -13.5t13.5 -32.5v0zM1022 491q0 -19 -13.5 -32.5t-32.5 -13.5h-928q-19 0 -32.5 13.5t-13.5 32.5v0q0 19 13.5 32t32.5 13h928q19 0 32.5 -13
t13.5 -32v0zM1022 277q0 -19 -13.5 -32t-32.5 -13h-928q-19 0 -32.5 13t-13.5 32v0q0 19 13.5 32.5t32.5 13.5h928q19 0 32.5 -13.5t13.5 -32.5v0zM1022 64q0 -19 -13.5 -32.5t-32.5 -13.5h-928q-19 0 -32.5 13.5t-13.5 32.5v0q0 19 13.5 32.5t32.5 13.5h928
q19 0 32.5 -13.5t13.5 -32.5v0z" />
    <glyph glyph-name="tq-502" unicode="&#xe632;" 
d="M274.5 178q-112.5 0 -192.5 60.5t-80 145.5t80 145.5t192.5 60.5t192 -60.5t79.5 -145.5t-79.5 -145.5t-192 -60.5zM274 522q-83 0 -143.5 -41t-60.5 -97t60.5 -97t143.5 -41t143.5 41t60.5 97t-60.5 97t-143.5 41zM749.5 178q-112.5 0 -192 60.5t-79.5 145.5t80 145.5
t192 60.5t192 -60.5t80 -145.5t-80 -145.5t-192.5 -60.5zM750 522q-83 0 -143.5 -41t-60.5 -97t60.5 -97t143.5 -41t143.5 41t60.5 97t-60.5 97t-143.5 41z" />
    <glyph glyph-name="tq-503" unicode="&#xe633;" 
d="M1022 587q0 94 -110.5 169t-286.5 106q106 -41 166.5 -101t60.5 -128q0 -77 -92 -145q-14 -11 -24 -17q-92 -60 -234.5 -95.5t-296.5 -35.5q-103 0 -203 18q164 -64 373 -64q121 0 236 22t206 62q8 -22 8 -41q0 -49 -50 -96q-14 -12 -30 -24q-71 -49 -185.5 -79
t-240.5 -30q-80 0 -159 14q129 -50 292 -50q185 0 334 60v0v-1q0 -53 -49.5 -97.5t-138.5 -70.5t-196 -26q-69 0 -135 12q109 -43 248 -43q107 0 196 26t138.5 71t49.5 98q0 37 -30 73q90 59 90 127q0 62 -65 116q128 77 128 170zM172 713q15 0 26 -11t11 -26t-11 -25.5
t-26 -10.5v73zM83 533q15 0 26 -10.5t11 -25.5t-11 -25.5t-26 -10.5v72zM366 620q15 0 26 -10.5t11 -25.5t-11 -26t-26 -11v73zM581 528q16 0 27 -11t11 -26t-11 -25.5t-27 -10.5v73zM277 441q15 0 26 -10.5t11 -25.5t-11 -26t-26 -11v73zM324 203q16 0 26.5 -10.5
t10.5 -25.5t-10.5 -25.5t-26.5 -10.5v72zM528 203q15 0 26 -10.5t11 -25.5t-11 -25.5t-26 -10.5v72zM433 19q15 0 26 -11t11 -26t-11 -25.5t-26 -10.5v73zM456 789q16 0 27 -10.5t11 -25.5t-11 -26t-27 -11v73z" />
    <glyph glyph-name="tq-504" unicode="&#xe634;" 
d="M1022 72q0 -17 -13.5 -29t-32.5 -12h-928q-19 0 -32.5 12t-13.5 29v0q0 16 13.5 28t32.5 12h928q19 0 32.5 -12t13.5 -28v0zM120 671q0 -27 19.5 -46.5t46.5 -19.5t46 19.5t19 46.5v0q0 27 -19 46.5t-46 19.5t-46.5 -19.5t-19.5 -46.5zM120 409q0 -27 19.5 -46.5
t46.5 -19.5t46 19.5t19 46.5v0q0 27 -19 46t-46 19t-46.5 -19t-19.5 -46zM773 671v0q0 -27 19 -46.5t46 -19.5t46.5 19.5t19.5 46.5v0v0q0 27 -19.5 46.5t-46.5 19.5t-46 -19.5t-19 -46.5v0zM773 409v0q0 -27 19 -46.5t46 -19.5t46.5 19.5t19.5 46.5v0v0q0 27 -19.5 46
t-46.5 19t-46 -19t-19 -46v0zM455 571v0q0 -27 19 -46t46 -19t46.5 19t19.5 46v0q0 27 -19.5 46.5t-46.5 19.5t-46 -19.5t-19 -46.5zM455 309v0q0 -27 19 -46.5t46 -19.5t46.5 19.5t19.5 46.5v0q0 27 -19.5 46.5t-46.5 19.5t-46 -19.5t-19 -46.5z" />
    <glyph glyph-name="tq-507" unicode="&#xe635;" 
d="M751 175q0 -17 -14 -29t-33 -12h-643q-19 0 -32.5 12t-13.5 29v0q0 17 13.5 28.5t32.5 11.5h643q19 0 33 -11.5t14 -28.5v0zM965 384q0 -17 -13.5 -28.5t-32.5 -11.5h-870q-20 0 -33.5 11.5t-13.5 28.5v0q0 17 13.5 28.5t33.5 11.5h870q19 0 32.5 -11.5t13.5 -28.5v0z
M610 593q0 -17 -14 -28.5t-33 -11.5h-496q-19 0 -32.5 11.5t-13.5 28.5v0q0 17 13.5 29t32.5 12h496q19 0 33 -12t14 -29v0zM464 654q0 -42 29.5 -71.5t71.5 -29.5t72 29.5t30 71.5t-30 71.5t-72 29.5t-71.5 -29.5t-29.5 -71.5zM819 445q0 -42 30 -71.5t71.5 -29.5
t71.5 29.5t30 71.5t-30 71.5t-71.5 29.5t-71.5 -29.5t-30 -71.5zM617 114q0 -42 29.5 -71.5t71.5 -29.5t71.5 29.5t29.5 71.5t-29.5 71.5t-71.5 29.5t-71.5 -29.5t-29.5 -71.5z" />
    <glyph glyph-name="tq-508" unicode="&#xe636;" 
d="M125 861q0 -13 9 -22t22.5 -9t22.5 9t9 22t-9 22.5t-22.5 9.5t-22.5 -9.5t-9 -22.5zM157 829h-4q-13 2 -21.5 12t-7.5 24q2 12 11 20.5t21 8.5h4q13 -2 21.5 -12.5t7.5 -23.5q-2 -12 -11 -20.5t-21 -8.5zM156 892q-11 0 -20 -8t-10 -20t7 -22t20 -11h4q11 0 20 8t10 19
q1 13 -7 23t-20 11h-4zM700 861q0 -13 9 -22t22.5 -9t22.5 9t9 22t-9 22.5t-22.5 9.5t-22.5 -9.5t-9 -22.5zM731 829h-3q-13 2 -21.5 12t-7.5 24q2 12 11 20.5t21 8.5h4q13 -2 21.5 -12.5t7.5 -23.5q-2 -12 -11 -20.5t-22 -8.5zM731 892q-11 0 -20 -8t-10 -20t7 -22t20 -11
h2h1q12 0 21 8t10 19q1 13 -7 23t-21 11h-1h-2zM905 688q0 -13 9.5 -22t22.5 -9t22 9t9 22t-9 22.5t-22 9.5t-22.5 -9.5t-9.5 -22.5zM937 656h-4q-13 2 -21.5 12t-7.5 24q2 12 11 20.5t22 8.5h3q13 -2 21.5 -12.5t7.5 -23.5q-1 -12 -10.5 -20.5t-21.5 -8.5zM937 719
q-12 0 -21 -8t-10 -20t7 -22t21 -11h3q12 0 20.5 8t9.5 19q1 13 -7 23t-20 11h-2h-1zM56 738.5q0 -13.5 9 -22.5t22 -9t22.5 9t9.5 22.5t-9.5 22.5t-22.5 9t-22 -9t-9 -22.5zM87 706h-3q-13 2 -21.5 12t-7.5 24q1 12 10.5 20.5t21.5 8.5h4q13 -2 21.5 -12t7.5 -24
q-2 -12 -11 -20.5t-22 -8.5zM87 769q-12 0 -20.5 -8t-9.5 -19q-1 -13 7 -23t20 -11h3q12 0 21 8t10 19q1 13 -7 23t-21 11h-3v0zM500 802q0 -14 9.5 -23t22.5 -9t22 9t9 22.5t-9 22.5t-22 9t-22.5 -9t-9.5 -22v0zM532 769h-3q-14 2 -22.5 12.5t-6.5 23.5q1 12 10 20.5
t22 8.5h3q13 -2 21.5 -12t7.5 -24q-1 -12 -10.5 -20.5t-21.5 -8.5zM532 832q-12 0 -21 -8t-10 -19q-1 -13 7 -23t21 -11h3q12 0 20.5 8t9.5 19q1 13 -7 23t-20 11h-3zM375.5 546q-13.5 0 -23 9.5t-9.5 23t9.5 23t23 9.5t23 -9.5t9.5 -23t-9.5 -23t-23 -9.5zM375.5 609
q-12.5 0 -21.5 -9t-9 -21.5t9 -21.5t21.5 -9t21.5 9t9 21.5t-9 21.5t-21.5 9zM473 390q-10 0 -17 7t-7 17t7 17t17 7q92 0 157 23q19 7 31.5 14.5t16.5 12.5t4 8t-4 8t-16.5 13t-31.5 14q-65 23 -157 23q-10 0 -17 7t-7 17t7 17.5t17 7.5q101 0 173 -26q84 -30 84 -81
t-84 -81q-72 -25 -173 -25zM463.5 390q-160.5 0 -275.5 46q-60 25 -92.5 58.5t-32.5 72t32.5 72t92.5 58.5q115 46 275 46q161 0 275 -46q61 -25 93 -58.5t32 -72t-32 -72t-93 -58.5q-114 -46 -274.5 -46zM463 694q-151 0 -256 -42q-45 -19 -70 -41.5t-25 -44.5t25 -44.5
t70 -40.5q105 -43 256 -43t257 43q44 18 69.5 40.5t25.5 44.5t-25.5 45t-69.5 41q-106 42 -257 42zM463 -126q-72 0 -124 27q-60 31 -60 80q0 10 7.5 17t17.5 7t17 -7t7 -17q0 -20 33 -37q42 -21 102 -21t102 21q33 17 33 37q0 10 7.5 17t17.5 7t17 -7t7 -17q0 -49 -60 -80
q-52 -27 -124 -27zM463 37q-101 0 -173 30q-84 34 -84 89q0 10 7.5 17t17.5 7t17 -7t7 -17t14.5 -22t38.5 -22q63 -26 155 -26t155 26q24 10 38.5 22t14.5 22t7 17t17.5 7t17.5 -7t7 -17q0 -55 -83 -89q-73 -30 -174 -30zM463 201q-117 0 -200 34q-95 38 -95 100q0 10 7 17
t17.5 7t17.5 -7t7 -17q0 -14 17 -28.5t47 -26.5q75 -31 182 -31t182 31q30 12 47.5 26.5t17.5 28.5q0 10 7 17t17 7t17 -7t7 -17q0 -62 -94 -100q-84 -34 -201 -34z" />
    <glyph glyph-name="tq-900" unicode="&#xe637;" 
d="M521.5 -126q-98.5 0 -168.5 70t-70 169q0 60 29.5 113.5t80.5 86.5v452q0 53 37.5 91t90.5 38t91 -38t38 -91v-452q51 -33 80.5 -86.5t29.5 -113.5q0 -99 -70 -169t-168.5 -70zM521 857q-38 0 -64.5 -27t-26.5 -65v-473l-9 -5q-48 -28 -74.5 -74t-26.5 -100
q0 -84 59 -143t142.5 -59t142.5 59t59 143q0 54 -26.5 100t-74.5 74l-9 5v473q0 38 -27 65t-65 27zM280 784q-6 0 -11 -5t-5 -11.5t5 -11.5t11 -5h94v33h-94zM280 523q-6 0 -11 -5t-5 -11.5t5 -11.5t11 -5h94v33h-94zM302 718q-7 0 -11.5 -4.5t-4.5 -11.5t4.5 -11.5
t11.5 -4.5h72v32h-72zM302 653q-7 0 -11.5 -4.5t-4.5 -11.5t4.5 -11.5t11.5 -4.5h72v32h-72zM302 588q-7 0 -11.5 -5t-4.5 -11.5t4.5 -11.5t11.5 -5h72v33h-72zM624 744h-205v61q8 8 20.5 19.5t40.5 31t41.5 19.5t39 -17.5t44.5 -34.5l19 -18v-61z" />
    <glyph glyph-name="tq-901" unicode="&#xe638;" 
d="M521.5 -126q-98.5 0 -168.5 70t-70 169q0 60 29.5 113.5t80.5 86.5v452q0 53 37.5 91t90.5 38t91 -38t38 -91v-452q51 -33 80.5 -86.5t29.5 -113.5q0 -99 -70 -169t-168.5 -70zM521 857q-38 0 -64.5 -27t-26.5 -65v-473l-9 -5q-48 -28 -74.5 -74t-26.5 -100
q0 -84 59 -143t142.5 -59t142.5 59t59 143q0 54 -26.5 100t-74.5 74l-9 5v473q0 38 -27 65t-65 27zM280 784q-6 0 -11 -5t-5 -11.5t5 -11.5t11 -5h94v33h-94zM280 523q-6 0 -11 -5t-5 -11.5t5 -11.5t11 -5h94v33h-94zM302 718q-7 0 -11.5 -4.5t-4.5 -11.5t4.5 -11.5
t11.5 -4.5h72v32h-72zM302 653q-7 0 -11.5 -4.5t-4.5 -11.5t4.5 -11.5t11.5 -4.5h72v32h-72zM302 588q-7 0 -11.5 -5t-4.5 -11.5t4.5 -11.5t11.5 -5h72v33h-72zM624 543h-205v262q8 8 20.5 19.5t40.5 31t41.5 19.5t39 -17.5t44.5 -34.5l19 -18v-262z" />
    <glyph glyph-name="tq-999" unicode="&#xe639;" 
d="M112 393l-34 70h-4l11 -70v-231h-83v447h64l167 -236l34 -68h3l-10 68v233h82v-447h-63l-167 234v0zM895 261h-136l-34 -99h-86l159 447h64l160 -447h-91zM781 330h95l-33 99l-13 70h-3l-14 -71zM592 609l-199 -450h75l199 450h-75z" />
    <glyph glyph-name="nav-110" unicode="&#xe63a;" 
d="M727 851q-127 0 -215 -119q-88 119 -215 119q-79 0 -146.5 -43t-107 -116t-39.5 -159q0 -38 7 -72t22 -66t26 -50.5t30 -48.5q18 -28 42 -57.5t50 -57t54 -54.5t56 -51.5t53.5 -45.5t49 -39t40 -30.5t28.5 -21t12 -9.5q17 -13 38 -13t38 13q0 1 10 8.5t23.5 17t33.5 25.5
t41.5 32.5t47 38.5t49.5 44t50 47t48.5 49.5t44 51.5t37.5 52q19 30 29.5 48.5t26 51t22.5 66t7 71.5q0 86 -39.5 159t-107 116t-146.5 43v0v0v0zM894 337q-25 -40 -59.5 -81.5t-69.5 -76.5t-72 -67.5t-69 -57.5t-57.5 -43.5t-39.5 -28.5l-15 -9q-11 7 -29 19.5t-69.5 52
t-97 79.5t-98 98.5t-85.5 112.5q-27 44 -38.5 65t-24 60t-12.5 77q0 105 68 179t165 74q69 0 120.5 -40.5t79.5 -110.5v1v0q5 -16 20.5 -16t19.5 16h1q28 69 79 110t120 41q97 0 165.5 -74.5t68.5 -179.5q0 -55 -18 -99.5t-53 -100.5v0v0v0zM894 337z" />
    <glyph glyph-name="nav-109" unicode="&#xe63b;" 
d="M678 820q-51 28 -101 43.5t-89 17.5t-74.5 -2t-61 -14t-44 -19.5t-27.5 -16.5l-10 -8v-514q9 5 28 17.5t32 21t36.5 16t46.5 8.5t57 -7t73 -26q63 -29 125.5 -40t106 -6t77.5 16t51 20t17 10v498q-17 -10 -27.5 -15t-39 -15t-52.5 -12t-58.5 4t-65.5 23zM862 372
q-4 -3 -12 -7.5t-38 -11t-65.5 -6t-95.5 14.5t-127 44q-105 47 -197 -4l3 386q4 4 12 10t36.5 16.5t61.5 12t88.5 -12t115.5 -46.5q104 -57 213 -28q3 1 4 1zM173 870h62v-998h-62v998z" />
    <glyph glyph-name="nav-1081" unicode="&#xe63c;" 
d="M484 42h73v-98h-73v98zM814 -76q0 -11 -8 -19t-18 -8h-542q-11 0 -19 8t-8 19v0q0 10 8 18t19 8h542q10 0 18 -8t8 -18v0v0zM218 570h38v-284h-38v284zM346 319q-39 42 -39 109t38.5 108.5t100.5 41.5t100.5 -41.5t38.5 -108.5t-38.5 -108.5t-100.5 -41.5t-100 41v0z
M518 344q27 32 27 84t-27.5 84t-71.5 32t-71.5 -32t-27.5 -84t27.5 -84t71.5 -32t72 32v0zM702 536h-96v34h231v-34h-97v-250h-38v250v0zM946 807h-868q-31 0 -53 -22.5t-22 -53.5v-613q0 -32 22 -54t53 -22h868q31 0 53 22t22 54v613q0 31 -22 53.5t-53 22.5v0zM973 163
q0 -20 -1 -29t-7 -19.5t-20.5 -14.5t-39.5 -4h-786q-45 0 -56.5 13t-11.5 54l-2 522q-1 34 15.5 51t52.5 16h787q41 3 55 -13.5t13 -53.5zM953 175z" />
    <glyph glyph-name="nav-107" unicode="&#xe63d;" horiz-adv-x="1029" 
d="M167 769h48v-801h-48v801zM820 769h47v-801h-47v801zM278 854h48v-910h-48v910zM707 854h47v-910h-47v910zM278 880h476v-47h-476v47zM182 769h103v-47h-103v47zM740 769h103v-47h-103v47zM373 745h63v-104h-63v104zM373 511h63v-104h-63v104zM481 511h63v-104h-63v104z
M596 511h63v-104h-63v104zM596 277h63v-104h-63v104zM485 277h63v-104h-63v104zM373 277h63v-104h-63v104zM481 745h63v-104h-63v104zM596 745h63v-104h-63v104zM86.5 168q-22.5 0 -38.5 -16t-16 -38t16 -38t38 -16q54 0 54 54q0 22 -15.5 38t-38 16zM86.5 88
q-10.5 0 -18 7.5t-7.5 18.5t7.5 18.5t18 7.5t18 -7.5t7.5 -18.5t-7.5 -18.5t-18 -7.5zM69 66v-86h34v86q-1 0 -7 -2.5t-12.5 -2.5t-14.5 5zM942 168q-22 0 -38 -16t-16 -38t16 -38t38 -16q54 0 54 54q0 22 -16 38t-38 16zM941.5 88q-10.5 0 -18 7.5t-7.5 18.5t7.5 18.5
t18 7.5t18.5 -7.5t8 -18.5t-8 -18.5t-18.5 -7.5zM925 66v-86h34v86q-2 0 -7.5 -2.5t-12.5 -2.5t-14 5zM0 -20h1028v-67h-1028v67v0z" />
    <glyph glyph-name="tq-104" unicode="&#xe60a;" 
d="M849 602q-32 54 -86 85t-117 31q-57 0 -106.5 -25t-82.5 -69q-28 5 -50 5q-104 0 -183.5 -64.5t-100.5 -165.5q-54 -18 -88.5 -64.5t-34.5 -105.5q0 -74 52.5 -126.5t127.5 -52.5q54 0 99 29q60 -29 128 -29q70 0 132 32q53 -32 114 -32q86 0 148.5 57.5t69.5 141.5
q65 9 109 59t44 117q0 73 -51 124.5t-124 52.5zM810 251q-6 -59 -51 -100t-106 -41q-54 0 -96 33q-10 8 -22.5 6t-20.5 -11v-1v0q-50 -27 -107 -27q-61 0 -113 30q-13 7 -27 1q-8 -1 -14 -6q-32 -25 -73 -25q-50 0 -84.5 35t-34.5 84t34.5 84t84.5 35q52 0 87 -38
q9 -9 21.5 -9.5t21.5 8t9.5 21t-7.5 21.5q-50 54 -124 57q22 72 82.5 116.5t136.5 44.5q6 0 19 -1q26 -3 50 -10q70 -23 114 -81q-6 -2 -16 -6q-17 -6 -35 -17q-16 -10 -27 -20q-10 -8 -11 -20.5t7 -22t20.5 -10.5t22.5 7q44 38 102 38q56 0 99 -35t55 -88q4 -18 4 -35
q0 -8 -1 -17z" />
    <glyph glyph-name="2" unicode="&#xe66d;" 
d="M570 526v115q0 35 -29.5 51t-57.5 -3l-333 -230q-25 -18 -25 -48.5t25 -47.5l333 -231q28 -19 57.5 -3t29.5 51v115q107 0 193 -64t121 -167q19 57 19 116q0 94 -44.5 173.5t-121.5 126t-167 46.5z" />
    <glyph glyph-name="1" unicode="&#xe66e;" 
d="M879 459l-334 230q-28 19 -57 3t-29 -51v-115q-91 0 -168 -46.5t-121.5 -126t-44.5 -173.5q0 -59 19 -116q35 103 121 167t194 64v-115q0 -35 29 -51t57 3l334 231q24 17 24 47.5t-24 48.5z" />
    <glyph glyph-name="nav-1071" unicode="&#xe63f;" 
d="M992 592v-497q0 -37 -24.5 -63t-58.5 -26h-84v44h84q17 0 29 13t12 32v467h-167q-34 0 -58.5 26t-24.5 63v200h-376q-17 0 -29.5 -13t-12.5 -31h-41q0 37 24.5 63t58.5 26h313h11h22h58l258 -296zM742 814v-163q0 -18 12 -31t29 -13h141zM783 459v-498q0 -37 -24.5 -63
t-58.5 -26h-585q-34 0 -58.5 26t-24.5 63v712q0 37 24.5 63t58.5 26h313h12h21h59l257 -295zM533 681v-163q0 -19 12 -32t30 -13h141zM74 673v-712q0 -18 12 -31t29 -13h585q17 0 29.5 13t12.5 31v468h-167q-35 0 -59.5 26t-24.5 63v200h-375q-18 0 -30 -13t-12 -32z
M178 406h209v-44h-209v44zM178 540h209v-45h-209v45zM637 228h-459v45h459v-45zM637 95h-459v44h459v-44z" />
    <glyph glyph-name="lishi" unicode="&#xe70d;" 
d="M852 457q-7 34 -21 66q-12 30 -31 58l39 39h-125v-125l49 49q12 -20 21 -41q12 -28 18 -57t6 -60t-6 -61q-6 -29 -18 -56q-11 -27 -27 -51q-17 -24 -37.5 -44.5t-44.5 -37.5q-24 -16 -51 -27q-27 -12 -56 -18q-61 -12 -121 0q-29 6 -57 18q-26 11 -51 27
q-24 17 -44.5 37.5t-36.5 44.5t-28 51q-11 27 -17 56q-6 30 -6 61t6 60t17 57q12 27 28 51t36.5 44.5t44.5 36.5q25 16 51 28q28 11 57 17q60 13 121 0l10 50q-71 15 -142 0q-34 -7 -66 -20q-31 -13 -59 -33q-28 -19 -52 -43t-43 -52t-33 -59q-13 -32 -20 -66q-7 -35 -7 -71
t7 -71q7 -34 20 -66q14 -32 33 -60t43 -52t52 -43t59 -32q32 -14 66 -21q35 -7 71 -7t71 7q34 7 66 21q32 13 60 32t52 43t43 52t32 60q14 32 21 66q7 35 7 71t-7 71zM460 590v-275h15h36h200v51h-200v224h-51z" />
    <glyph glyph-name="cangku" unicode="&#xe72c;" 
d="M930 465l-364 285q-23 19 -55.5 19t-55.5 -19l-361 -285q-9 -7 -10.5 -19t6 -21t19 -10.5t21.5 5.5l11 10v-345q0 -36 30.5 -61t65.5 -25h570q33 0 54 23.5t21 62.5v345l12 -10q8 -6 18 -6q14 0 22 11q8 9 6.5 21t-10.5 19v0zM597 116v-60h-171v160q0 27 22 47.5
t63.5 20.5t63.5 -20.5t22 -47.5v-100zM597 116z" />
    <glyph glyph-name="jieneng" unicode="&#xe643;" 
d="M511.5 842q-85.5 0 -156 -44.5t-110 -120.5t-39.5 -166q0 -130 77 -189v0q9 -10 23.5 -28t38 -58.5t23.5 -64.5l29 -30h229l28 30q0 64 81 151q83 63 83 189q0 90 -40 166t-110.5 120.5t-156 44.5zM738 550q-2 -17 -6 -26q-6 -13 -15 -23q-8 -9 -17 -1q-6 5 -2 12
q1 1 4.5 5.5t5.5 8.5q7 16 8 22q3 26 -6 45q-11 23 -31 35q-10 5 -21 8q-8 2 -18 3q-4 0 -6 3.5t-2 6.5q2 9 11 11q7 1 25 -4q13 -3 25 -11q25 -18 37 -41q12 -26 8 -54zM381 3q1 -3 4 -8.5t13.5 -18.5t23.5 -23t37.5 -18.5t53.5 -8.5t53 9.5t38 22.5t24 27t13.5 22t3.5 9
v87h-264v-100z" />
    <glyph glyph-name="kaiguan" unicode="&#xe644;" 
d="M512 -28q-75 0 -145 28.5t-125 83.5t-84 126.5t-29 143.5t29 144t84 126q11 12 27.5 12t28 -11.5t11.5 -28t-12 -27.5q-89 -89 -89 -215t89 -215t215 -89t215 89t89 215t-89 215q-12 11 -12 27.5t12 28t28 11.5t27 -12q55 -54 84 -126t29 -144t-29 -143.5t-83.5 -126.5
t-125 -83.5t-145.5 -28.5zM512 405v0v0q-20 0 -34.5 14.5t-14.5 34.5v147v146q0 20 14.5 34.5t34.5 14.5v0v0q20 0 34.5 -14t14.5 -35v-146v-147q0 -20 -14.5 -34.5t-34.5 -14.5z" />
    <glyph glyph-name="report0" unicode="&#xe642;" 
d="M899 835h-775q-51 0 -87.5 -36.5t-36.5 -88.5v-642q0 -52 36.5 -88.5t87.5 -36.5h533q20 0 40 -4q45 -10 68 -35q6 -7 15 -7q8 0 13 6q7 5 7 13.5t-5 14.5q-22 24 -57.5 37t-52.5 14.5t-29 1.5h-532q-34 0 -59 24.5t-25 59.5v642q0 35 25 59.5t59 24.5h775q35 0 60 -24.5
t25 -59.5v-642q0 -35 -25 -60t-60 -25h-42q-8 0 -14 -5.5t-6 -14t6 -14.5t14 -6h42q52 0 88.5 36.5t36.5 88.5v642q0 52 -36.5 88.5t-88.5 36.5zM326 224h372v-34h-372v34zM608 620l-247 -247l-21 -82l81 22l247 247z" />
    <glyph glyph-name="report1" unicode="&#xe641;" horiz-adv-x="1026" 
d="M125 -61h533q20 0 40 -4q45 -10 68 -35q6 -7 15 -7q8 0 14 5q6 6 6.5 14.5t-5.5 14.5q-22 24 -57.5 37t-52.5 14.5t-29 0.5h-532q-35 0 -60 25t-25 60v643q0 35 25 59.5t60 24.5h127v-29q0 -8 6 -14t14 -6t14 6t6 14v29h441v-29q0 -8 6 -14t14.5 -6t14.5 6t6 14v29h127
q35 0 59.5 -24.5t24.5 -59.5v-643q0 -35 -24.5 -60t-59.5 -25h-42q-8 0 -14 -6t-6 -14t6 -14t14 -6h42q51 0 87.5 36.5t36.5 88.5v643q0 52 -36.5 88.5t-87.5 36.5h-127v23q0 8 -6 14t-14.5 6t-14.5 -6t-6 -14v-23h-441v23q0 8 -6 14t-14 6t-14 -6t-6 -14v-23h-127
q-52 0 -88.5 -36.5t-36.5 -88.5v-643q0 -52 36.5 -88.5t88.5 -36.5v0v0zM258 558q0 12 10.5 20.5t25.5 8.5v0h437q15 0 25.5 -8.5t10.5 -20.5t-10.5 -20.5t-25.5 -8.5h-437q-15 0 -25.5 8.5t-10.5 20.5zM258 384q0 12 10.5 20.5t25.5 8.5v0h437q15 0 25.5 -8.5t10.5 -20.5
t-10.5 -20.5t-25.5 -8.5h-437q-15 0 -25.5 8.5t-10.5 20.5zM258 210q0 12 10.5 20.5t25.5 8.5v0h437q15 0 25.5 -8.5t10.5 -20.5t-10.5 -20.5t-25.5 -8.5h-437q-15 0 -25.5 8.5t-10.5 20.5zM294 239z" />
    <glyph glyph-name="report2" unicode="&#xe657;" 
d="M894 846h-764q-51 0 -87 -36t-36 -87v-633q0 -51 36 -87t87 -36h525q19 0 40 -4q44 -10 66 -35q6 -6 15 -6q8 0 13 5q7 6 7 14t-5 14q-22 24 -56.5 36.5t-51.5 14t-29 1.5h-524q-34 0 -58.5 24t-24.5 59v633q0 34 24.5 58.5t58.5 24.5h764q34 0 58.5 -24.5t24.5 -58.5
v-633q0 -35 -24.5 -59t-58.5 -24h-41q-9 0 -14.5 -6t-5.5 -14t5.5 -14t14.5 -6h41q51 0 87 36t36 87v633q0 51 -36 87t-87 36zM512 467q-11 0 -18.5 -7t-7.5 -18v-108v-1q0 -10 7 -18l77 -76q7 -7 17.5 -7t18.5 7.5t8 18.5t-7 18l-69 68v98q0 11 -7.5 18t-18.5 7v0zM541 596
v57l-93 -85l94 -76l-1 50q59 -10 102 -52q54 -55 54 -132t-54 -131.5t-131 -54.5t-131 54q-53 54 -54 129v4q0 11 -7.5 18.5t-18.5 7.5t-19 -7.5t-8 -18.5v-0.5v-0.5v0q0 -99 70 -169t168 -70t168 70t70 169q0 91 -60 159t-149 79v0zM541 596z" />
    <glyph glyph-name="nvshi" unicode="&#xe645;" 
d="M651 695q-1 55 -41.5 93t-97.5 38q-56 0 -96 -36.5t-43 -89.5q59 20 137 20q79 0 141 -25v0v0zM651 695zM682 90q-32 30 -30 63t36 58q4 3 10 6t12 12q13 17 3 37q-6 10 -15 18q-71 1 -134 19q-53 16 -100 43q-29 17 -53 37q-2 -10 -6 -20q-21 -61 -82 -85q-5 -9 -9 -23
l4 -32q1 -2 3 -4q4 -6 10 -8l1 -1h1q6 -4 12.5 -9t16.5 -20t10 -30q2 -31 -31 -56q-5 -3 -11 -3v0q38 -63 92.5 -106.5t94.5 -43.5q36 0 86.5 41.5t88.5 101.5q-6 1 -10 5v0v0v0zM682 90zM758 198q27 0 45.5 20t18.5 49q0 42 -34 62q3 21 3 46q0 24 -2 48t-9.5 55t-19.5 58
t-34 54.5t-50 46.5t-70.5 31t-93.5 12q-56 0 -100.5 -12t-73 -30.5t-49.5 -47t-31.5 -54t-16.5 -59t-7 -54.5t-1 -48q0 -25 4 -46q-35 -20 -35 -62q0 -29 18.5 -49t45.5 -20q10 0 20 4q4 -25 14 -52q-3 -1 -6 -4q-5 -5 -12 -13.5t-17 -31.5t-7 -45q5 -44 56 -74q4 -2 9 -2
q10 0 15 9q4 6 2 13t-8 11q-36 21 -39 47q-4 26 21 56q2 5 6 8t8 7l-5 42q-4 4 -8 7q-12 5 -22 17q-20 25 -15 57q5 30 18 46q3 7 10 9q22 8 37.5 22.5t22 28.5t10.5 29.5t4 22v9.5q0 7 4.5 12.5t12.5 5.5q9 1 14 -6l2 -2q1 -2 7.5 -8.5t24.5 -21t39 -26.5q95 -55 218 -55h4
q7 -1 12 -7q17 -13 26 -31q20 -38 -5 -74q-11 -15 -25 -23q-4 -2 -5 -3q-21 -14 -22 -31q-1 -16 19 -35q4 -4 5 -9q21 -27 18 -51q-4 -27 -39 -47q-7 -4 -8.5 -11t1.5 -14q6 -8 16 -8q4 0 9 2q50 30 56 74q2 21 -7.5 44.5t-16.5 32t-12 13.5l-6 4q12 29 16 56q10 -4 20 -4v0
v0zM758 198z" />
    <glyph glyph-name="dianliangtiao0" unicode="&#xe646;" 
d="M950 682h-814q-13 0 -22 -9t-9 -22v-94h-31q-13 0 -22.5 -9t-9.5 -22v-125q0 -13 9.5 -22.5t22.5 -9.5h31v-94q0 -13 9 -22t22 -9h814q13 0 22.5 9t9.5 22v376q0 13 -9.5 22t-22.5 9zM935 322q0 -13 -9.5 -22t-22.5 -9h-720q-13 0 -22 9t-9 22v282q0 13 9 22t22 9h720
q13 0 22.5 -9t9.5 -22v-282v0zM731 307h188v313h-188v-313z" />
    <glyph glyph-name="dianliangtiao3" unicode="&#xe647;" 
d="M950 682h-814q-13 0 -22 -9t-9 -22v-94h-31q-13 0 -22.5 -9t-9.5 -22v-125q0 -13 9.5 -22.5t22.5 -9.5h31v-94q0 -13 9 -22t22 -9h814q13 0 22.5 9t9.5 22v376q0 13 -9.5 22t-22.5 9zM935 322q0 -13 -9.5 -22t-22.5 -9h-720q-13 0 -22 9t-9 22v282q0 13 9 22t22 9h720
q13 0 22.5 -9t9.5 -22v-282v0zM543 620h-375v-313h751v313h-376z" />
    <glyph glyph-name="dianliangtiao2" unicode="&#xe648;" 
d="M543 620h-188v-313h564v313h-376zM950 682h-814q-13 0 -22 -9t-9 -22v-94h-31q-13 0 -22.5 -9t-9.5 -22v-125q0 -13 9.5 -22.5t22.5 -9.5h31v-94q0 -13 9 -22t22 -9h814q13 0 22.5 9t9.5 22v376q0 13 -9.5 22t-22.5 9zM935 322q0 -13 -9.5 -22t-22.5 -9h-720q-13 0 -22 9
t-9 22v282q0 13 9 22t22 9h720q13 0 22.5 -9t9.5 -22v-282v0z" />
    <glyph glyph-name="dianliangtiao1" unicode="&#xe649;" 
d="M950 682h-814q-13 0 -22 -9t-9 -22v-94h-31q-13 0 -22.5 -9t-9.5 -22v-125q0 -13 9.5 -22.5t22.5 -9.5h31v-94q0 -13 9 -22t22 -9h814q13 0 22.5 9t9.5 22v376q0 13 -9.5 22t-22.5 9zM935 322q0 -13 -9.5 -22t-22.5 -9h-720q-13 0 -22 9t-9 22v282q0 13 9 22t22 9h720
q13 0 22.5 -9t9.5 -22v-282v0zM543 620v-313h376v313h-376z" />
    <glyph glyph-name="fengsushezhi" unicode="&#xe64a;" 
d="M536 355q3 48 -29 81q-50 54 -158 54q-88 0 -153 -38q-10 -6 -21 -13l-61 -60q-35 -45 -51 -95.5t-9 -91.5q9 -54 55 -82q36 -23 69 -23q24 0 49.5 14t40.5 28.5t42 43.5q59 63 97 85t83 44q29 14 37 22.5t9 30.5v0v0zM479 361q-2 -1 -15 -7q-46 -22 -86 -46
q-45 -26 -110 -96q-22 -23 -33.5 -34.5t-27.5 -22t-29 -10.5q-16 0 -38 14q-16 9 -23.5 24.5t-6.5 37.5q1 47 34 100q35 54 81 81q51 30 124 30q82 0 116 -36q14 -14 14 -35v0v0zM816 205q-84 19 -122 41q-40 23 -79 50q-32 21 -45 21q-9 0 -25 -8q-58 -30 -60 -100
q-2 -64 41.5 -136t105.5 -107q9 -5 20 -10l77 -23q26 -5 53 -5q34 0 65.5 7.5t59.5 22.5t46 41.5t19 62.5q1 22 -3.5 40t-11 31t-20 24t-24 17t-30.5 12.5t-31.5 9.5t-35.5 9v0v0zM914 64q-1 -34 -35 -54q-37 -23 -97 -23q-70 0 -121 29q-49 28 -84 86q-36 58 -34 105
q1 35 26 49q5 -3 14 -9q42 -28 83 -52q44 -25 137 -47q70 -16 90 -29q22 -16 21 -55v0v0zM572 493q0 -46 -4 -94q-2 -32 1.5 -43.5t21.5 -23.5q28 -18 59 -18q48 0 94.5 42t74 103.5t27.5 118.5q0 22 -5 46l-28 85q-27 54 -70.5 92t-94.5 38v0q-29 0 -56 -14
q-23 -12 -38 -26t-21 -32t-8.5 -32.5t2 -38t8 -37t11.5 -40.5q26 -83 26 -126v0v0zM602 636q-21 68 -19 92q2 28 36.5 46t73.5 -8q25 -17 47 -48t35 -68.5t13 -71.5q0 -71 -49 -141q-21 -30 -44.5 -47.5t-44.5 -17.5q-13 0 -25 7q1 8 1 17q4 53 4 97q0 51 -28 143v0v0z
M602 636z" />
    <glyph glyph-name="moshisheding" unicode="&#xe64b;" 
d="M596 391q-8 5 -3 14q5 8 13 3q10 -7 23 -11t26 -4t26 4q12 4 23 11q8 5 14 -3q4 -9 -4 -14q-13 -8 -28 -13q-15 -4 -31.5 -4t-30.5 4q-15 5 -28 13v0v0v0zM656 784v0q21 0 37.5 -14.5t19.5 -35.5q4 1 9 1q16 0 27 -11q6 -6 8 -13q5 2 9 2q14 0 24 -10t10 -24q0 -9 -5 -17
l7 -7q45 -49 52 -110q4 -38 -8 -118q-7 -43 -7 -66q0 -33 10 -53q3 -6 0.5 -12.5t-8.5 -9.5q-1 -1 -4 -1q-22 -3 -40 0q-20 4 -34 15q-17 13 -22 34l-2 -1q-38 -22 -84 -22q-45 0 -85 23v0q-8 -31 -36 -42.5t-61 -6.5q-6 1 -10 6.5t-3 11.5q0 1 1 3q0 1 1 2q9 21 9 53
q0 23 -6 66q-12 76 -6 118q8 61 53 110l1 1l5 5q-6 8 -6 18q0 14 10 24t23 10q4 0 9 -2q3 7 9 13v0q11 11 26 11q5 0 9 -1q3 21 19.5 35.5t38.5 14.5v0v0v0zM714 661v0q-58 11 -117 0q-43 -8 -61 -27v0q-39 -42 -46 -93q-5 -37 6 -109q7 -45 7 -71t-5 -46q23 1 37 19.5
t0 38.5q-17 26 -19 65.5t2 58t8 32.5q0 1 1 1q4 9 13 5q8 -3 9 -4q39 -15 71 -1v0q29 13 46 50v0q3 5 4 10v0h1q4 13 5 25q0 10 9.5 10t9.5 -10q-1 -16 -5 -29q13 -35 32 -54q22 -22 59 -32q6 -2 7 -7q12 -65 -8 -105q-13 -21 -8.5 -43.5t31.5 -27.5q4 -1 9 -1q-5 20 -5 45
q0 24 7 71q12 76 8 110q-6 50 -44 92q-12 13 -25 18t-39 9v0v0v0zM656 764v0q-16 0 -27.5 -11.5t-11.5 -27.5v-3v0v0v-3q1 -4 -2 -7q-7 -8 -14 -1q-2 2 -5 3v0q-3 2 -7 2q-7 0 -12 -5l-1 -1q-5 -5 -5 -13v0q0 -4 -3 -6q-6 -8 -13 -1l-4 2h-1q-2 1 -5 1q-5 0 -9 -4
q-5 -4 -5 -10q0 -5 4 -9q2 -3 6 -4q27 10 53 14q62 12 124 0q26 -4 52 -14q5 1 7 4q3 4 3 9q0 6 -4 10t-10 4q-2 0 -5 -1v0q-3 -1 -4 -2v0q-4 -3 -7 -3q-9 0 -9 10v0q0 8 -6 13v0q-5 6 -13 6q-3 0 -6 -2q-3 0 -6 -3t-7 -2q-10 1 -9 11l1 2v0v3q0 16 -11.5 27.5t-27.5 11.5v0
v0v0zM770 483v0q-37 11 -61 36q-18 17 -30 43q-19 -35 -52 -50q-37 -17 -85 1v0q-22 -82 10 -123q17 -22 45.5 -34.5t57.5 -12.5q68 0 96.5 39.5t18.5 100.5v0v0v0zM601 479v0q7 0 11.5 -5t4.5 -11.5t-4.5 -11t-11 -4.5t-11.5 4.5t-5 11t5 11.5t11 5v0v0v0zM709 479v0
q7 0 11.5 -5t4.5 -11.5t-4.5 -11t-11.5 -4.5t-11.5 4.5t-4.5 11t4.5 11.5t11.5 5v0v0v0zM844 163h-443q-45 0 -77.5 32.5t-32.5 78.5v442q0 45 32.5 77.5t77.5 32.5h443q45 0 77.5 -32.5t32.5 -77.5v-443q0 -45 -32.5 -77.5t-77.5 -32.5v0v0v0zM899 716q0 22 -16.5 38.5
t-38.5 16.5h-443q-22 0 -38.5 -16.5t-16.5 -38.5v-443q0 -22 16.5 -38.5t38.5 -16.5h443q22 0 38.5 16.5t16.5 38.5v443zM125 495v-443q0 -22 16.5 -38.5t38.5 -16.5h443q22 0 38.5 16.5t16.5 38.5v56h55v-56q0 -45 -32.5 -77.5t-78.5 -32.5h-442q-45 0 -77.5 32.5
t-32.5 77.5v443q0 45 32.5 77.5t77.5 32.5h56v-55h-56q-22 0 -38.5 -16.5t-16.5 -38.5v0v0v0zM125 495z" />
    <glyph glyph-name="shebeishitu" unicode="&#xe64c;" 
d="M480 96h79v-91h-79v91zM792 -14q0 -10 -7 -17t-17 -7h-503q-11 0 -18 7t-7 17v0q0 10 7 17t18 7h503q10 0 17 -7t7 -17v0v0v0zM239 587h35v-264h-35v264zM358 354q-36 38 -36 100q0 63 35.5 101.5t93.5 38.5q57 0 93 -38.5t36 -101t-35.5 -101t-93.5 -38.5t-93 39v0v0z
M517 377q26 29 26 77.5t-25.5 78t-66.5 29.5q-42 0 -67 -29.5t-25 -78t25 -78t67 -29.5q41 0 66 30v0v0zM688 555h-89v32h215v-32h-90v-233h-36v233v0zM915 806h-806q-29 0 -49.5 -20.5t-20.5 -49.5v-570q0 -29 20.5 -49.5t49.5 -20.5h806q29 0 49.5 20.5t20.5 49.5v571
q0 28 -20.5 48.5t-49.5 20.5v0v0zM935 219q0 -24 -6 -39t-18.5 -21t-22.5 -7.5t-27 -1.5h-698q-38 0 -54 13t-17 56l-1 464q0 40 17 56t53 16h699q45 0 59.5 -20t14.5 -52zM935 219z" />
    <glyph glyph-name="fengjipaiguan" unicode="&#xe64d;" 
d="M490 306q-1 16 -13 24.5t-29 7.5l-66 4q-17 -1 -27.5 -13.5t-9.5 -28.5l1 -12q1 -16 13.5 -26.5t28.5 -9.5l65 14q17 1 27.5 11.5t9.5 26.5v2zM546 299q3 8 -0.5 16.5t-12 12t-16.5 0t-12 -12t0 -17t12 -12t16.5 0t12.5 12.5v0v0v0zM538 339l2 -1q15 -6 28 1t20 22l34 57
q6 15 -0.5 30.5t-21.5 21.5l-10 4q-16 7 -31 0.5t-21 -21.5l-17 -64q-6 -15 -1.5 -29.5t18.5 -20.5v0v0v0zM516 581q-110 0 -188 -77.5t-78 -187.5t78 -188t188 -78t188 78t78 188t-78 187.5t-188 77.5v0v0v0zM516 81q-98 0 -167 69t-69 166.5t69 166.5t166.5 69t166.5 -69
t69 -166.5t-69 -166.5t-166 -69v0v0v0zM592 261q-8 15 -21.5 19.5t-28.5 -2.5l-2 -2q-13 -8 -15.5 -23t5.5 -28l26 -62q8 -14 24 -18t30 5l10 6q14 8 18 24t-4 30zM512 700q-40 0 -78 -8v147h-313v-524q0 -105 52 -194t142.5 -140.5t196.5 -51.5t196.5 51.5t142.5 140.5
t52 193.5t-52 193.5t-142.5 140.5t-196.5 51.5v0zM512 -25q-95 0 -175 47t-126.5 127t-46.5 173l4 471h219v-139q16 3 61 7t64 4q95 0 175 -46t126.5 -125t47 -172t-46.5 -173t-127 -127t-175 -47v0zM512 -25z" />
    <glyph glyph-name="wenduchuanganqi" unicode="&#xe64e;" 
d="M625 289v445q0 48 -33 82.5t-80 34.5t-80 -34.5t-33 -82.5v-445q-40 -28 -63 -72t-23 -96q0 -84 58.5 -144t140.5 -60t140.5 60t58.5 144q0 52 -23 96t-63 72v0v0zM512 -54q-70 0 -120 51.5t-50 123.5q0 43 19 81.5t54 62.5l12 9v460q0 36 25 62t60 26t60 -26t25 -62
v-460l12 -9q35 -24 54 -62.5t19 -80.5q0 -73 -50 -124.5t-120 -51.5v0v0zM555 230v318h-1q-1 17 -13 28.5t-29 11.5t-29 -11.5t-13 -29.5h-1v-317q-31 -13 -50.5 -42.5t-19.5 -65.5q0 -49 33 -83t80 -34t80 34t33 83q0 36 -19.5 65.5t-50.5 42.5v0v0zM555 230z" />
    <glyph glyph-name="dingwei" unicode="&#xe64f;" 
d="M512 844q-92 0 -168 -41.5t-121 -118.5t-45 -175q0 -57 17.5 -106.5t48 -89t61.5 -71t69.5 -70t61.5 -69.5q34 -46 53 -90.5t21 -66.5l2 -22q0 9 2.5 24.5t21.5 62t52 92.5q22 31 60.5 70t70 71.5t62 72t48 88t17.5 104.5q0 98 -45 175t-121 118.5t-168 41.5v0zM512 304
q-85 0 -145 60t-60 145t60 145t145 60t145 -60t60 -145t-60 -145t-145 -60v0zM512 304z" />
    <glyph glyph-name="shushi" unicode="&#xe651;" 
d="M512 770q-105 0 -194 -51.5t-140.5 -140.5t-51.5 -194t51.5 -194t140.5 -140.5t194 -51.5t194 51.5t140.5 140.5t51.5 194t-51.5 194t-140.5 140.5t-194 51.5v0v0zM594 523q0 17 12.5 29.5t29.5 12.5t29 -12.5t12 -29.5v-55q0 -17 -12 -29.5t-29 -12.5t-29.5 12.5
t-12.5 29.5v55zM346 523q0 17 12 29.5t29 12.5t29.5 -12.5t12.5 -29.5v-55q0 -17 -12.5 -29.5t-29.5 -12.5t-29 12.5t-12 29.5v55zM709 301q-36 -47 -87.5 -72t-110.5 -25q-57 0 -108.5 25t-86.5 70q-8 9 -6.5 20.5t10.5 18.5t20.5 5.5t18.5 -10.5q28 -35 67.5 -54.5
t84.5 -19.5q46 0 86 19.5t68 55.5q7 9 18 10.5t20.5 -5.5t11 -18t-5.5 -20v0v0zM709 301z" />
    <glyph glyph-name="shezhi" unicode="&#xe652;" 
d="M923 478h-66q-5 20 -13 39l-4 9q-8 18 -17 35l47 47q7 8 7 18.5t-7 17.5l-98 98q-7 7 -18 7t-18 -7l-47 -47q-16 9 -37 18l-9 4q-18 7 -37 12v66q0 11 -7.5 18.5t-17.5 7.5h-138q-10 0 -17.5 -7.5t-7.5 -18.5v-66q-19 -5 -37 -12l-11 -5q-18 -8 -35 -17l-47 47
q-7 7 -18 7t-18 -7l-98 -98q-7 -7 -7 -17.5t7 -18.5l47 -47q-9 -17 -18 -37l-4 -9q-7 -18 -12 -37h-66q-11 0 -18.5 -7.5t-7.5 -17.5v-138q0 -10 7.5 -17.5t18.5 -7.5h66q5 -19 13 -39l4 -9q8 -19 17 -35l-47 -47q-7 -8 -7 -18.5t7 -17.5l98 -98q7 -7 18 -7t18 7l47 47
q17 -10 34 -17l9 -4l3 -1q18 -7 36 -12v-66q0 -11 7.5 -18.5t18.5 -7.5h138q10 0 17.5 7.5t7.5 18.5v66q20 5 39 13l9 4q18 8 35 17l47 -47q7 -7 18 -7t18 7l98 98q7 7 7 17.5t-7 18.5l-47 47q9 17 18 36l1 4l3 6q7 17 12 36h66q11 0 18.5 7.5t7.5 18.5v138q0 10 -7.5 17.5
t-18.5 7.5v0zM512 84q-124 0 -212 88t-88 212t88 212t212 88t212 -88t88 -212t-88 -212t-212 -88v0z" />
    <glyph glyph-name="xinhao2" unicode="&#xe653;" 
d="M512 197q-28 0 -47.5 -20t-19.5 -48.5t19.5 -48.5t47.5 -20t47.5 20t19.5 48.5t-19.5 48.5t-47.5 20v0zM271 273l47 -48q84 74 194 74t194 -74l47 48q-104 94 -241 94t-241 -94v0zM153 394l47 -48q63 58 143.5 90.5t168.5 32.5t168.5 -32.5t143.5 -90.5l47 48
q-73 68 -165 105.5t-194 37.5t-194 -37.5t-165 -105.5v0zM512 708q-136 0 -258.5 -51t-218.5 -143l47 -48q87 82 197.5 127.5t232.5 45.5t232.5 -45.5t197.5 -127.5l47 48q-96 92 -218.5 143t-258.5 51zM941 479q-89 80 -198.5 126t-229.5 46q-121 0 -231.5 -45.5
t-198.5 -125.5l-34 35q199 183 463 183t464 -184z" />
    <glyph glyph-name="xinhao1" unicode="&#xe654;" 
d="M512 195q-28 0 -47.5 -20.5t-19.5 -49t19.5 -48.5t47.5 -20t47.5 20t19.5 48.5t-19.5 49t-47.5 20.5v0zM268 272l47 -49q86 75 197 75t197 -75l47 49q-105 95 -244 95t-244 -95v0zM512 711q-137 0 -261 -51.5t-221 -143.5l47 -49q88 83 200 129t235 46t235 -46t200 -129
l47 49q-97 92 -221 143.5t-261 51.5zM945 480q-89 81 -200 127.5t-232 46.5q-123 0 -234.5 -46t-200.5 -127l-35 35q202 185 470 185q266 0 468 -185zM512 539q-103 0 -196.5 -38t-166.5 -107l47 -49q65 59 146 92t170 33t170 -33t146 -92l47 49q-73 69 -166.5 107
t-196.5 38zM826 361q-63 58 -145.5 90t-169.5 32q-181 -1 -312 -121l-32 33q146 134 346 134q198 0 344 -134z" />
    <glyph glyph-name="xinhao0" unicode="&#xe655;" 
d="M512 200q-27 0 -46 -19.5t-19 -47.5t19 -47.5t46 -19.5t46 19.5t19 47.5t-19 47.5t-46 19.5v0zM512 702q-133 0 -253.5 -50t-214.5 -140l46 -48q85 81 193.5 126t228.5 45t228.5 -45t193.5 -126l46 48q-94 90 -214.5 140t-253.5 50zM933 477q-87 79 -194.5 124t-225.5 45
q-119 0 -227.5 -44.5t-194.5 -123.5l-34 34q196 180 455 180t456 -180zM512 535q-100 0 -190.5 -37.5t-162.5 -103.5l46 -48q63 58 141.5 90t165.5 32t165.5 -32t141.5 -90l46 48q-151 141 -353 141zM818 361q-61 56 -141 87t-165 31q-178 -2 -306 -118l-32 32
q144 132 339 132q193 0 337 -132zM512 367q-135 0 -237 -92l46 -47q83 72 191 72t191 -72l46 47q-102 92 -237 92zM702 241q-80 70 -189 70q-110 0 -190 -70l-34 34v0q50 44 111 64t112 18q129 -3 224 -82z" />
    <glyph glyph-name="xinhao3" unicode="&#xe656;" 
d="M512 200q-27 0 -46 -19.5t-19 -47.5t19 -47.5t46 -19.5t46 19.5t19 47.5t-19 47.5t-46 19.5v0zM512 702q-133 0 -253.5 -50t-214.5 -140l46 -48q85 81 193.5 126t228.5 45t228.5 -45t193.5 -126l46 48q-94 90 -214.5 140t-253.5 50zM512 535q-100 0 -190.5 -37.5
t-162.5 -103.5l46 -48q63 58 141.5 90t165.5 32t165.5 -32t141.5 -90l46 48q-151 141 -353 141zM512 367q-135 0 -237 -92l46 -47q83 72 191 72t191 -72l46 47q-102 92 -237 92z" />
    <glyph glyph-name="xiazhankai" unicode="&#xe658;" 
d="M512 305v0l-68 67v1l-405 405l68 67l405 -405l405 406l68 -68zM512 -77v-1l-68 68v0l-405 406l68 67l405 -405l405 405l68 -67zM512 -77z" />
    <glyph glyph-name="youzhankai" unicode="&#xe659;" 
d="M591 384v0l-67 -68h-1l-405 -405l-68 68l406 405l-406 405l68 68zM973 384h1l-68 -68v0l-406 -405l-67 68l405 405l-405 405l67 68zM973 384z" />
    <glyph glyph-name="diannao" unicode="&#xe65b;" 
d="M908 792h-792q-27 0 -46.5 -19.5t-19.5 -46.5v-528q0 -27 19.5 -46.5t46.5 -19.5h330v-102h-168q-15 0 -25.5 -9.5t-10.5 -26.5v-24h528v24q0 15 -9.5 25.5t-26.5 10.5h-156v102h330q27 0 46.5 19.5t19.5 46.5v528q0 27 -19.5 46.5t-46.5 19.5v0v0zM476 180
q0 15 9.5 25.5t26.5 10.5q15 0 25.5 -9.5t10.5 -26.5q0 -15 -9.5 -25.5t-26.5 -10.5q-36 12 -36 36v0zM98 258v456q0 30 30 30h768q17 0 23.5 -8.5t6.5 -27.5v-450q0 -14 -5 -19t-19 -5h-780q-8 0 -12 1t-8 6.5t-4 16.5z" />
    <glyph glyph-name="fengsu" unicode="&#xe65d;" horiz-adv-x="1028" 
d="M543 360q2 43 -27 74q-46 50 -146 50q-81 0 -141 -35q-8 -5 -19 -12q-24 -14 -56 -55q-32 -42 -47 -88.5t-8 -84.5q8 -49 50 -76q33 -21 64 -21q22 0 45.5 13t37.5 26.5t39 40.5q54 58 89 78q36 21 76 41q27 13 34.5 20.5t8.5 28.5v0v0zM801 221q-78 18 -112 38
q-38 21 -74 46q-29 20 -41 20q-9 0 -23 -8q-54 -27 -56 -92q-1 -59 39 -125t97 -99q2 -2 7.5 -4.5t10.5 -4.5q5 -3 23 -8t33.5 -9.5l15.5 -4.5q23 -3 48 -3q43 0 80 11t65.5 40t30.5 71q0 21 -4 37.5t-9.5 28.5t-18.5 22t-22.5 15.5t-28 12t-29.5 9t-32 7.5v0v0zM576 487
q0 -44 -4 -87q-2 -29 1 -39.5t21 -22.5q26 -16 54 -16q44 0 87 39t68 96t25 110q0 20 -4 42q-3 24 -24 77q-21 51 -63 85.5t-91 34.5v0q-27 0 -51 -13q-21 -11 -35 -24t-19.5 -29.5t-8 -30t1.5 -35t7.5 -34.5t10.5 -37q24 -77 24 -116v0v0z" />
    <glyph glyph-name="fanhui" unicode="&#xe65e;" 
d="M932 414h-714l342 342l-48 54l-420 -426l426 -426l48 54l-342 336h708v66z" />
    <glyph glyph-name="pdf" unicode="&#xe72e;" 
d="M975 596l-234 251h-590v-374h51v322h488v-250h233v-574h-282v0h-490v-51h824v676v0v0zM975 596zM429 300q-11 5 -37 5h-45v-165h46q21 0 33 4t20 11q10 10 15.5 27t5.5 42q0 34 -11 52t-27 24v0zM429 300zM751 417h-702v-389h702v389v0zM264 221q-17 -19 -63 -19h-55v-88
h-29v216h82q21 0 32 -2q16 -3 27 -10.5t17.5 -20.5t6.5 -29q0 -28 -18 -47v0zM491 180q-6 -19 -15 -31.5t-19.5 -19.5t-25.5 -11t-35 -4h-78v216h75q25 0 38 -3q19 -4 32 -15q17 -15 25.5 -37.5t8.5 -51.5q0 -24 -6 -43v0zM683 305v0h-117v-67h101v-26h-101v-98h-29v216h146
v-25v0zM683 305zM228 303q-8 2 -27 2h-55v-78h56q27 0 39 10.5t12 29.5q0 13 -7 23t-18 13v0zM228 303z" />
    <glyph glyph-name="shoudongmoshi" unicode="&#xe65a;" 
d="M810 468q-24 24 -58 24q-18 0 -33 -7q-9 24 -30 38.5t-47 14.5q-20 0 -38 -10q-11 20 -30 31.5t-42 11.5q-17 0 -28 -5v148q0 33 -24 57t-57.5 24t-57.5 -24t-24 -57v-262q-3 3 -6 5.5t-6.5 5.5t-6.5 4q-24 15 -54 15q-5 0 -12.5 -0.5t-10.5 -0.5h-1h-4h-1l-25 -3
q-12 -1 -19 -11q-6 -9 -4 -21q58 -218 59 -226q17 -104 99 -174q81 -70 190 -70q121 0 207 86t86 208v145q2 29 -22 53z" />
    <glyph glyph-name="yonghu" unicode="&#xe65c;" 
d="M512 326q-24 0 -41 -16.5t-17 -40.5q0 -26 20 -45v-51q0 -19 11.5 -32t26.5 -13q14 0 26 12t12 26v52q20 19 20 44q0 29 -17 46.5t-41 17.5v0v0zM787 499h-38v96q0 100 -70 168.5t-167 68.5t-167 -68.5t-70 -168.5v-96h-38q-39 0 -67.5 -28.5t-28.5 -67.5v-371
q0 -38 28.5 -67t67.5 -29h544q38 0 67 29t29 67v371q5 38 -23 67t-67 29v0v0zM506 787q83 0 137.5 -55.5t54.5 -129.5v-96h-378v96v0q5 74 58 129.5t128 55.5v0v0zM838 45q0 -24 -16 -44t-35 -20h-531q-21 0 -42.5 14t-21.5 43v365q0 24 13.5 37.5t37.5 13.5h538
q25 0 41 -15t16 -42v-352v0v0zM838 45z" />
    <glyph glyph-name="yonghu1" unicode="&#xe65f;" 
d="M512 390q-91 0 -154.5 63.5t-63.5 154.5t63 151t155 60q91 0 154.5 -63t63.5 -154t-63 -151.5t-155 -60.5v0zM512 774q-71 0 -118.5 -49t-47.5 -117q0 -73 47.5 -123t118.5 -50t118.5 49t47.5 118q0 71 -49 121.5t-117 50.5v0zM512 774zM947 -51h-870q-13 0 -13 6
q-6 7 -6 13v128q0 6 6 13q63 82 184 130.5t264 48.5q145 0 265.5 -50t182.5 -136q0 -3 3 -6t3 -6v-122q0 -9 -6.5 -14t-12.5 -5v0zM109 -6h813v83q-135 153 -404 153q-133 0 -237 -41t-172 -119v-76v0zM109 -6zM160 435h6v0h-6v0z" />
    <glyph glyph-name="wendushitu" unicode="&#xe660;" 
d="M512 -70q-97 0 -167 67.5t-70 162.5q0 104 103 192v358q4 54 43 91t91 37q54 0 94 -38.5t40 -95.5v-358q103 -56 103 -192q0 -92 -70.5 -158t-166.5 -66zM512 800q-40 0 -65 -27.5t-25 -55.5v-371q0 -8 -0.5 -11.5t-3 -7.5t-8.5 -7q-35 -23 -62.5 -65.5t-27.5 -94.5
q0 -73 58 -129.5t134 -56.5q73 0 129.5 55t56.5 131q0 24 -2.5 42.5t-10.5 41.5t-25.5 42.5t-45.5 33.5q-12 0 -12 26v364q0 32 -24.5 58.5t-65.5 31.5zM557 19q-19 0 -19 13q-4 3 -2 8.5t3 7t5.5 5.5t5.5 5q30 5 42.5 13t21.5 31q1 1 5 6t5.5 6t7 3t8.5 -2q13 -6 13 -25
q-35 -61 -96 -71zM397 653h89q20 0 20 -19.5t-20 -19.5h-89v39zM403 493h90q19 0 19 -19.5t-19 -19.5h-90v39zM397 576h121q20 0 20 -19t-20 -19h-121v38z" />
    <glyph glyph-name="gouxuan" unicode="&#xe661;" 
d="M512 757q-101 0 -187 -50t-136 -136t-50 -187.5t50 -187.5t136 -135.5t187 -49.5t187 50t136 136t50 187t-50 187t-135.5 136t-187.5 50zM719 493l-201 -283q-14 -21 -42 -11q-1 0 -2 1q-1 0 -2 0.5l-1 0.5q-1 1 -3 2t-3 1v0v0q0 1 -1.5 1.5t-1.5 1.5l-150 135
q-12 10 -13 27t10 29t27.5 13t28.5 -10l118 -105l172 244q9 11 24 13t28 -8q14 -10 17.5 -25t-5.5 -27z" />
    <glyph glyph-name="xuanze" unicode="&#xe662;" 
d="M512 845q-93 0 -178.5 -36.5t-147.5 -98.5t-98.5 -147.5t-36.5 -179t36.5 -179t98.5 -147.5t147.5 -98.5t179 -36.5t179 37t147.5 98.5t98.5 147t36.5 179t-37 179t-98.5 147t-147 98.5t-179.5 37zM794 542l-306 -367q0 -1 -1 -1.5t-1 -1.5q-18 -20 -42 -12q-8 2 -15 7
l-4 4l-130 143q-13 10 -14.5 27t9.5 29q10 13 27 14t29 -9l106 -115l280 334q11 12 28 13.5t29 -9.5q13 -10 14.5 -26.5t-9.5 -29.5z" />
    <glyph glyph-name="tianjia1" unicode="&#xe663;" 
d="M164 420h696v-72h-696v72zM476 732h72v-696h-72v696z" />
    <glyph glyph-name="yingshedian" unicode="&#xe650;" 
d="M770 315q65 0 112 -45.5t47 -112.5q0 -64 -46 -111t-113 -47q-64 0 -111 46t-47 112q4 65 50 111.5t108 46.5v0v0zM770 315zM238 743q51 0 86 -35t35 -86.5t-35 -86.5t-86.5 -35t-86.5 35t-35 86q0 49 35.5 85.5t86.5 36.5v0v0zM238 743zM755 764q39 0 67 -28t28 -67.5
t-28 -67t-67.5 -27.5t-67 27.5t-27.5 67t27.5 67.5t67.5 28v0v0zM755 764zM180 205q35 0 59.5 -24.5t24.5 -60t-24.5 -60t-60 -24.5t-60 24.5t-24.5 60t24.5 60t60.5 24.5v0v0zM180 205zM728 690h63v-675h-63v675zM728 690zM159 152h675v-63h-675v63zM159 152zM259 632
l506 -448l-42 -43l-506 449zM259 632z" />
    <glyph glyph-name="suanfadian" unicode="&#xe664;" horiz-adv-x="1056" 
d="M947 314q0 19 -13.5 31.5t-37.5 12.5q-19 0 -26 -6q-32 -13 -83 -13q-62 -1 -110.5 6.5t-77 21t-50.5 30.5t-37.5 33.5t-31 30.5t-38 23t-52.5 9q-147 0 -320 -173q-19 -19 -19 -38q0 -20 14 -32.5t37 -12.5q13 0 39 13v0q160 160 256 153q14 -1 31.5 -17t41.5 -37.5
t60 -42.5t103 -35.5t154 -14.5q58 0 122 13q15 5 26.5 18t11.5 27v0zM1056 301zM250 186q0 -20 8.5 -41.5t23.5 -35.5q32 -32 76 -32q20 0 41.5 9t35.5 23q32 32 32 77q0 19 -9 40.5t-23 35.5q-42 32 -83 32q-19 0 -41 -8.5t-36 -23.5q-11 -17 -18 -36t-7 -40v0zM250 186z
M51 563q0 -25 26 -51q11 -11 24.5 -18.5t26.5 -7.5q32 0 57.5 26t25.5 58t-25 57q-39 19 -58 19q-32 0 -58 -25q-4 -7 -11.5 -24t-7.5 -34v0zM51 563zM480 698q0 -13 13 -39q13 -13 38 -13q13 0 39 13q12 13 12 39q0 12 -12 38q-13 13 -39 13q-13 0 -38 -13q-13 -26 -13 -38
v0zM480 698zM698 122q0 -13 12 -39q13 -13 39 -13q13 0 38 13q13 13 13 39q0 12 -13 38q-13 13 -38 13q-13 0 -39 -13q-4 -5 -8 -17t-4 -21v0zM698 122zM749 486q0 -32 25.5 -57.5t57.5 -25.5t58 26q12 38 12 57q0 32 -25.5 58t-57.5 26t-57 -26q0 -5 -6.5 -24t-6.5 -34v0z
M749 486z" />
    </font>
</defs>
</svg>
