<?xml version="1.0" encoding="utf-8"?>
<!-- Generator: Adobe Illustrator 17.0.0, SVG Export Plug-In . SVG Version: 6.00 Build 0)  -->
<!DOCTYPE svg PUBLIC "-//W3C//DTD SVG 1.1//EN" "http://www.w3.org/Graphics/SVG/1.1/DTD/svg11.dtd">
<svg version="1.1" id="图层_1" xmlns="http://www.w3.org/2000/svg" xmlns:xlink="http://www.w3.org/1999/xlink" x="0px" y="0px"
	 width="16px" height="16px" viewBox="0 0 16 16" enable-background="new 0 0 16 16" xml:space="preserve">
<g>
	<path fill="#9e9e9e" d="M8,14.954c-3.438,0-6.307-0.798-7.019-1.863c-0.111,0.166-0.173,0.337-0.173,0.514
		c0,1.313,3.22,2.377,7.192,2.377c3.972,0,7.192-1.064,7.192-2.377c0-0.177-0.063-0.348-0.173-0.514
		C14.307,14.156,11.437,14.954,8,14.954L8,14.954z M8,5.863c3.972,0,7.192-1.312,7.192-2.931C15.192,1.312,11.972,0,8,0
		C4.028,0,0.808,1.312,0.808,2.931C0.808,4.55,4.028,5.863,8,5.863L8,5.863z M4.825,8.17V7.142C2.897,6.828,1.457,6.237,0.981,5.525
		C0.871,5.691,0.808,5.863,0.808,6.039C0.808,6.975,2.447,7.782,4.825,8.17L4.825,8.17z M11.175,7.142V8.17
		c2.377-0.388,4.016-1.195,4.016-2.131c0-0.177-0.063-0.348-0.173-0.514C14.543,6.237,13.103,6.828,11.175,7.142L11.175,7.142z
		 M11.175,9.689v1.027c2.377-0.388,4.016-1.195,4.016-2.131c0-0.177-0.063-0.348-0.173-0.514
		C14.543,8.783,13.103,9.374,11.175,9.689L11.175,9.689z M4.825,10.716V9.689C2.897,9.374,1.457,8.783,0.981,8.071
		C0.871,8.237,0.808,8.409,0.808,8.585C0.808,9.521,2.447,10.328,4.825,10.716L4.825,10.716z M4.825,13.246v-1.027
		c-1.927-0.315-3.368-0.906-3.843-1.617c-0.111,0.166-0.173,0.337-0.173,0.514C0.808,12.051,2.447,12.858,4.825,13.246L4.825,13.246
		z M11.175,12.218v1.027c2.377-0.388,4.016-1.195,4.016-2.131c0-0.177-0.063-0.348-0.173-0.514
		C14.543,11.313,13.103,11.904,11.175,12.218L11.175,12.218z M7.629,14.015c0.093,0.06,0.192,0.089,0.298,0.089
		c0.107,0,0.208-0.03,0.3-0.089c0.092-0.06,0.138-0.152,0.138-0.278l0.011-0.368c0.626-0.044,1.117-0.215,1.472-0.513
		c0.353-0.298,0.53-0.692,0.53-1.182c0-0.27-0.055-0.5-0.166-0.693c-0.11-0.191-0.256-0.354-0.438-0.49
		c-0.179-0.134-0.385-0.248-0.613-0.339c-0.23-0.091-0.458-0.174-0.687-0.249l0.055-1.639c0.103,0.031,0.191,0.069,0.266,0.113
		C8.87,8.423,8.933,8.46,8.985,8.491c0.081,0.057,0.167,0.107,0.26,0.151c0.093,0.044,0.198,0.066,0.316,0.066
		c0.2,0,0.34-0.045,0.425-0.137c0.085-0.09,0.127-0.208,0.127-0.352c0-0.069-0.033-0.152-0.099-0.25
		C9.948,7.872,9.849,7.774,9.72,7.677C9.591,7.58,9.429,7.488,9.233,7.404C9.039,7.319,8.81,7.256,8.553,7.211l0.022-0.47
		c0-0.12-0.046-0.211-0.139-0.274C8.345,6.404,8.244,6.373,8.138,6.373c-0.107,0-0.208,0.031-0.298,0.094
		C7.747,6.53,7.702,6.621,7.702,6.74L7.69,7.164C7.032,7.195,6.523,7.37,6.163,7.687C5.801,8.004,5.621,8.413,5.621,8.915
		c0,0.264,0.056,0.49,0.171,0.678c0.115,0.188,0.265,0.35,0.454,0.485c0.188,0.136,0.398,0.25,0.63,0.344
		c0.231,0.094,0.468,0.182,0.703,0.264l-0.056,1.667c-0.28-0.075-0.498-0.179-0.652-0.311c-0.082-0.062-0.171-0.12-0.266-0.174
		c-0.096-0.053-0.208-0.083-0.333-0.09c-0.383,0-0.575,0.148-0.575,0.443c0,0.151,0.056,0.287,0.171,0.409
		c0.114,0.123,0.261,0.23,0.438,0.321c0.177,0.091,0.372,0.168,0.586,0.231c0.214,0.063,0.418,0.11,0.608,0.141l-0.009,0.415
		C7.491,13.863,7.537,13.955,7.629,14.015L7.629,14.015z M8.443,11.015c0.191,0.088,0.346,0.19,0.464,0.306
		c0.118,0.116,0.178,0.256,0.178,0.419c0,0.202-0.062,0.355-0.184,0.462c-0.122,0.107-0.289,0.176-0.503,0.207L8.443,11.015
		L8.443,11.015z M7.114,9.297c-0.125-0.11-0.189-0.253-0.189-0.429c0-0.2,0.067-0.361,0.2-0.48c0.133-0.119,0.311-0.192,0.532-0.216
		L7.614,9.593C7.406,9.506,7.24,9.407,7.114,9.297L7.114,9.297z M7.114,9.297"/>
</g>
</svg>
