<?xml version="1.0" encoding="utf-8"?>
<!-- Generator: Adobe Illustrator 17.0.0, SVG Export Plug-In . SVG Version: 6.00 Build 0)  -->
<!DOCTYPE svg PUBLIC "-//W3C//DTD SVG 1.1//EN" "http://www.w3.org/Graphics/SVG/1.1/DTD/svg11.dtd">
<svg version="1.1" id="图层_1" xmlns="http://www.w3.org/2000/svg" xmlns:xlink="http://www.w3.org/1999/xlink" x="0px" y="0px"
	 width="16px" height="16px" viewBox="0 0 16 16" enable-background="new 0 0 16 16" xml:space="preserve">
<g>
	<path fill="#e5e5e5" d="M13.647,7.774c-0.714,0.87-2.372,0.709-2.98,0.041c-0.923-1.014-2.383-0.879-2.97,0.166
		c0.175-0.561,0.59-1.094,1.156-1.465c0.758-0.497,1.695-0.656,2.569-0.435l0.029-0.119C10.544,5.735,9.573,5.9,8.787,6.415
		c-0.551,0.362-0.954,0.854-1.157,1.39c0.793-4.853,7.212-4.64,8.329-0.206C15.197,6.845,14.285,6.997,13.647,7.774L13.647,7.774
		L13.647,7.774z M12.674,5.838l-0.482,0.188l-0.378-0.349l0.032,0.513l-0.451,0.252l0.5,0.128l0.101,0.507l0.277-0.435l0.513,0.058
		l-0.328-0.396L12.674,5.838L12.674,5.838L12.674,5.838z M7.527,8.155c0.024-0.119,0.058-0.236,0.102-0.351
		c-0.02,0.125-0.04,0.25-0.052,0.381C7.56,8.177,7.544,8.164,7.527,8.155L7.527,8.155L7.527,8.155z M7.345,8.042
		C7.404,8.084,7.465,8.12,7.527,8.155C7.524,8.171,7.519,8.187,7.516,8.203C7.456,8.151,7.397,8.099,7.345,8.042L7.345,8.042
		L7.345,8.042z M6.31,6.497C6.07,5.626,6.208,4.689,6.688,3.929L6.585,3.863C6.087,4.653,5.943,5.625,6.193,6.53
		C6.37,7.171,6.721,7.71,7.177,8.068c-4.414-2.244-2.223-8.283,2.361-7.97c-0.954,0.489-1.091,1.4-0.547,2.245
		c0.61,0.945-0.056,2.466-0.88,2.836C6.86,5.741,6.536,7.162,7.345,8.042C6.867,7.703,6.488,7.146,6.31,6.497L6.31,6.497L6.31,6.497
		z M6.924,3.56l0.1,0.505l0.279-0.434l0.512,0.06L7.486,3.294l0.216-0.466l-0.48,0.188L6.844,2.667L6.875,3.18l-0.45,0.251
		L6.924,3.56L6.924,3.56L6.924,3.56z M7.467,8.26c-0.1-0.057-0.198-0.119-0.29-0.191c0.106,0.054,0.218,0.105,0.331,0.155
		C7.495,8.236,7.48,8.247,7.467,8.26L7.467,8.26L7.467,8.26z M7.306,8.394C7.363,8.352,7.416,8.306,7.467,8.26
		c0.014,0.008,0.027,0.019,0.041,0.027C7.442,8.328,7.374,8.363,7.306,8.394L7.306,8.394L7.306,8.394z M5.506,8.901
		C4.6,8.859,3.748,8.439,3.171,7.75L3.076,7.827C3.677,8.544,4.559,8.98,5.5,9.024c0.658,0.03,1.274-0.131,1.754-0.445
		c-3.504,3.46-8.57-0.473-6.858-4.714C0.568,4.92,1.395,5.333,2.369,5.077C3.46,4.792,4.706,5.893,4.804,6.789
		c0.149,1.362,1.411,2.108,2.502,1.605C6.834,8.746,6.183,8.933,5.506,8.901L5.506,8.901L5.506,8.901z M3.293,6.61L2.813,6.797
		L2.434,6.449l0.031,0.513l-0.45,0.251l0.499,0.128l0.101,0.505l0.278-0.433l0.511,0.06L3.076,7.077L3.293,6.61L3.293,6.61
		L3.293,6.61z M7.545,8.351c-0.091,0.082-0.186,0.16-0.291,0.228c0.09-0.089,0.181-0.18,0.269-0.28
		C7.531,8.316,7.538,8.334,7.545,8.351L7.545,8.351L7.545,8.351z M7.622,8.539C7.6,8.474,7.573,8.412,7.545,8.351
		c0.012-0.011,0.027-0.019,0.038-0.03C7.602,8.394,7.614,8.467,7.622,8.539L7.622,8.539L7.622,8.539z M7.552,10.407
		c-0.32,0.847-0.984,1.522-1.821,1.858l0.045,0.113c0.868-0.348,1.557-1.05,1.889-1.928c0.233-0.614,0.269-1.248,0.118-1.8
		c2.219,4.391-3.099,7.976-6.617,5.043c1.06,0.162,1.709-0.494,1.766-1.495c0.064-1.122,1.5-1.962,2.386-1.777
		c1.347,0.279,2.45-0.689,2.304-1.881C7.814,9.096,7.792,9.773,7.552,10.407L7.552,10.407L7.552,10.407z M5.54,11.958l-0.481,0.187
		L4.68,11.797l0.031,0.513l-0.45,0.251l0.5,0.129l0.101,0.505l0.277-0.434l0.514,0.06l-0.329-0.396L5.54,11.958L5.54,11.958
		L5.54,11.958z M7.655,8.305C7.706,8.416,7.75,8.53,7.783,8.65C7.726,8.537,7.668,8.424,7.6,8.31
		C7.619,8.307,7.637,8.307,7.655,8.305L7.655,8.305L7.655,8.305z M7.862,8.29c-0.07,0.001-0.139,0.007-0.207,0.015
		C7.649,8.29,7.645,8.273,7.638,8.259C7.715,8.264,7.79,8.275,7.862,8.29L7.862,8.29L7.862,8.29z M10.83,11.233l0.122-0.008
		c-0.063-0.931-0.52-1.801-1.255-2.386C9.182,8.427,8.588,8.197,8.013,8.171c4.878-0.749,6.657,5.401,2.77,7.829
		c0.483-0.954,0.058-1.772-0.881-2.136c-1.051-0.406-1.409-2.028-0.96-2.812C9.625,9.865,9.042,8.522,7.862,8.29
		C8.452,8.28,9.091,8.51,9.621,8.933C10.329,9.498,10.769,10.337,10.83,11.233L10.83,11.233L10.83,11.233z M10.559,12.213l0.1,0.504
		l0.278-0.433l0.513,0.06l-0.328-0.397l0.215-0.467l-0.48,0.188l-0.379-0.348l0.031,0.513l-0.45,0.251L10.559,12.213L10.559,12.213
		L10.559,12.213z M7.647,8.184C7.767,8.17,7.89,8.165,8.013,8.171c-0.125,0.019-0.25,0.04-0.379,0.068
		C7.637,8.22,7.643,8.202,7.647,8.184L7.647,8.184L7.647,8.184z M7.583,8.189c0.005-0.001,0.009-0.001,0.014-0.001
		C7.596,8.19,7.594,8.193,7.593,8.195C7.59,8.193,7.586,8.191,7.583,8.189L7.583,8.189L7.583,8.189z M7.568,8.251l-0.01-0.06
		C7.564,8.191,7.57,8.191,7.576,8.19C7.574,8.211,7.57,8.23,7.568,8.251L7.568,8.251L7.568,8.251L7.568,8.251z M7.568,8.251
		L7.568,8.251L7.568,8.251C7.568,8.251,7.568,8.251,7.568,8.251L7.568,8.251L7.568,8.251z M7.566,8.249
		C7.567,8.25,7.567,8.251,7.568,8.251l0,0L7.566,8.249L7.566,8.249L7.566,8.249z M7.568,8.251C7.568,8.251,7.568,8.251,7.568,8.251
		L7.568,8.251L7.568,8.251L7.568,8.251L7.568,8.251z M7.568,8.251L7.568,8.251L7.568,8.251C7.568,8.251,7.568,8.251,7.568,8.251
		L7.568,8.251L7.568,8.251L7.568,8.251z M7.568,8.252L7.565,8.253C7.566,8.253,7.567,8.252,7.568,8.252L7.568,8.252
		C7.568,8.252,7.568,8.252,7.568,8.252L7.568,8.252L7.568,8.252z M7.568,8.252L7.54,8.306C7.535,8.303,7.531,8.3,7.525,8.297
		C7.539,8.281,7.554,8.268,7.568,8.252L7.568,8.252L7.568,8.252L7.568,8.252z M7.568,8.252L7.568,8.252L7.568,8.252L7.568,8.252
		L7.568,8.252L7.568,8.252z M7.568,8.252L7.568,8.252L7.568,8.252L7.568,8.252L7.568,8.252L7.568,8.252z M7.581,8.312
		c-0.001,0-0.002,0-0.003,0l-0.01-0.06h0C7.574,8.272,7.577,8.292,7.581,8.312L7.581,8.312L7.581,8.312z M7.568,8.252L7.568,8.252
		C7.568,8.252,7.568,8.252,7.568,8.252L7.568,8.252C7.568,8.252,7.568,8.252,7.568,8.252L7.568,8.252L7.568,8.252z M7.568,8.251
		L7.568,8.251L7.568,8.251C7.568,8.252,7.568,8.252,7.568,8.251L7.568,8.251L7.568,8.251L7.568,8.251z M7.572,8.252
		c-0.001,0-0.002,0-0.004,0l0,0L7.572,8.252L7.572,8.252L7.572,8.252z M7.569,8.251L7.569,8.251L7.569,8.251L7.569,8.251
		L7.569,8.251L7.569,8.251z M7.568,8.251L7.568,8.251C7.569,8.251,7.568,8.251,7.568,8.251L7.568,8.251L7.568,8.251L7.568,8.251z
		 M7.568,8.251L7.568,8.251L7.568,8.251L7.568,8.251L7.568,8.251L7.568,8.251z M7.568,8.251L7.568,8.251L7.568,8.251L7.568,8.251
		L7.568,8.251L7.568,8.251z M7.568,8.252L7.568,8.252L7.568,8.252L7.568,8.252L7.568,8.252L7.568,8.252L7.568,8.252z M7.568,8.252
		L7.568,8.252C7.568,8.252,7.568,8.251,7.568,8.252L7.568,8.252L7.568,8.252L7.568,8.252L7.568,8.252z M7.568,8.251L7.568,8.251
		L7.568,8.251L7.568,8.251L7.568,8.251L7.568,8.251z M7.568,8.251L7.568,8.251L7.568,8.251L7.568,8.251L7.568,8.251L7.568,8.251z
		 M7.568,8.251L7.568,8.251C7.568,8.251,7.568,8.251,7.568,8.251C7.568,8.251,7.568,8.251,7.568,8.251L7.568,8.251L7.568,8.251z
		 M7.593,8.195c0.001,0.001,0.002,0.001,0.003,0.002L7.568,8.251l0,0C7.576,8.232,7.585,8.214,7.593,8.195L7.593,8.195L7.593,8.195z
		 M7.623,8.224C7.626,8.229,7.627,8.235,7.63,8.24C7.609,8.244,7.59,8.246,7.569,8.251L7.623,8.224L7.623,8.224L7.623,8.224z
		 M7.634,8.239c0,0.002-0.001,0.004-0.002,0.007C7.632,8.244,7.631,8.242,7.63,8.24C7.631,8.239,7.633,8.239,7.634,8.239
		L7.634,8.239L7.634,8.239z M7.638,8.259c-0.003,0-0.006-0.001-0.008-0.001C7.63,8.254,7.632,8.25,7.633,8.245
		C7.634,8.25,7.636,8.254,7.638,8.259L7.638,8.259L7.638,8.259z M7.629,8.261L7.572,8.252c0.02,0.001,0.038,0.004,0.057,0.006
		C7.63,8.259,7.629,8.26,7.629,8.261L7.629,8.261L7.629,8.261z M7.612,8.296C7.608,8.3,7.603,8.303,7.599,8.307
		C7.588,8.289,7.58,8.27,7.569,8.252L7.612,8.296L7.612,8.296L7.612,8.296z M7.6,8.31c-0.002,0-0.003,0-0.005,0.001
		c0.001-0.001,0.003-0.002,0.004-0.003C7.6,8.308,7.6,8.309,7.6,8.31L7.6,8.31L7.6,8.31z M7.583,8.321
		C7.583,8.318,7.582,8.315,7.581,8.312C7.586,8.311,7.591,8.311,7.595,8.31C7.591,8.314,7.587,8.317,7.583,8.321L7.583,8.321
		L7.583,8.321z M7.523,8.299C7.522,8.298,7.522,8.296,7.521,8.294c0.001,0.001,0.003,0.002,0.004,0.003
		C7.525,8.298,7.524,8.298,7.523,8.299L7.523,8.299L7.523,8.299z M7.508,8.287c0.003-0.002,0.005-0.003,0.008-0.005
		C7.518,8.286,7.519,8.29,7.521,8.294C7.517,8.292,7.512,8.289,7.508,8.287L7.508,8.287L7.508,8.287z M7.514,8.279l0.051-0.026
		c-0.016,0.011-0.033,0.019-0.05,0.029C7.515,8.281,7.515,8.28,7.514,8.279L7.514,8.279L7.514,8.279z M7.508,8.241
		C7.509,8.236,7.51,8.23,7.511,8.225C7.53,8.233,7.548,8.243,7.567,8.251L7.508,8.241L7.508,8.241L7.508,8.241z M7.509,8.223
		C7.51,8.222,7.511,8.221,7.512,8.22c0,0.002-0.001,0.003-0.001,0.005C7.51,8.224,7.509,8.224,7.509,8.223L7.509,8.223L7.509,8.223z
		 M7.516,8.203C7.519,8.205,7.521,8.208,7.524,8.21C7.52,8.213,7.516,8.217,7.512,8.22C7.513,8.214,7.515,8.209,7.516,8.203
		L7.516,8.203L7.516,8.203z M7.526,8.208l0.04,0.041C7.55,8.237,7.539,8.223,7.524,8.21C7.525,8.209,7.525,8.209,7.526,8.208
		L7.526,8.208L7.526,8.208z M7.577,8.186c0.002,0.001,0.004,0.002,0.006,0.004c-0.002,0-0.004,0-0.007,0.001
		C7.576,8.188,7.577,8.187,7.577,8.186L7.577,8.186L7.577,8.186z M7.697,7.982C7.676,8.049,7.66,8.116,7.647,8.184
		C7.63,8.185,7.613,8.186,7.597,8.188C7.626,8.115,7.66,8.047,7.697,7.982L7.697,7.982L7.697,7.982z M7.697,7.982"/>
</g>
</svg>
