<?xml version="1.0" encoding="utf-8"?>
<!DOCTYPE svg PUBLIC "-//W3C//DTD SVG 1.1//EN" "http://www.w3.org/Graphics/SVG/1.1/DTD/svg11.dtd">
<svg version="1.1" id="图形" xmlns="http://www.w3.org/2000/svg" xmlns:xlink="http://www.w3.org/1999/xlink" x="0px" y="0px" width="1024px" height="1024px" viewBox="0 0 1024 1024" enable-background="new 0 0 1024 1024" xml:space="preserve">
  <path class="svgpath" data-index="path_0" fill="#666666" d="M518.656 10.624C242.176 10.624 17.28 235.52 17.28 512c0 276.48 224.896 501.376 501.376 501.376 276.48 0 501.376-224.896 501.376-501.376C1020.032 235.52 795.136 10.624 518.656 10.624L518.656 10.624 518.656 10.624zM518.656 985.856C257.344 985.856 44.8 773.312 44.8 512c0-261.312 212.608-473.92 473.92-473.92 261.312 0 473.92 212.608 473.92 473.92C992.576 773.312 779.968 985.856 518.656 985.856L518.656 985.856 518.656 985.856zM518.656 985.856" />
<path class="svgpath" data-index="path_1" fill="#666666" d="M516.672 439.936c37.888 0 68.672 30.784 68.672 68.672S554.56 577.28 516.672 577.28C478.848 577.28 448 546.496 448 508.608 448 470.784 478.848 439.936 516.672 439.936M516.672 409.408c-54.784 0-99.2 44.416-99.2 99.2 0 54.784 44.416 99.2 99.2 99.2 54.784 0 99.2-44.416 99.2-99.2C615.872 453.824 571.456 409.408 516.672 409.408" />
<path class="svgpath" data-index="path_2" fill="#666666" d="M761.92 569.216c4.352-18.624 6.592-37.76 6.592-57.216 0-19.392-2.24-38.592-6.592-57.216-1.92-8.192-10.112-13.312-18.368-11.392-8.192 1.92-13.312 10.112-11.392 18.368C736 478.08 737.92 494.912 737.92 512c0 17.088-1.984 33.92-5.76 50.24-1.92 8.192 3.2 16.448 11.392 18.368C751.744 582.464 760 577.408 761.92 569.216L761.92 569.216 761.92 569.216 761.92 569.216zM743.872 580.928c0.96 0 1.792 0 2.496 0.064 8.448 0.384 15.552-6.144 15.936-14.592 0.384-8.448-6.144-15.552-14.592-15.936-1.216 0-2.432 0-3.84 0-8.448 0-15.232 6.848-15.232 15.232C728.576 574.08 735.424 580.928 743.872 580.928L743.872 580.928 743.872 580.928 743.872 580.928zM694.016 672.768c-6.208-9.6-9.6-20.736-9.6-32.384 0-32.832 26.624-59.456 59.456-59.456 8.448 0 15.232-6.848 15.232-15.232 0-8.448-6.848-15.232-15.232-15.232-49.728 0-89.984 40.32-89.984 89.984 0 17.664 5.12 34.56 14.528 49.024 4.608 7.04 14.016 9.088 21.12 4.48C696.64 689.28 698.624 679.808 694.016 672.768L694.016 672.768 694.016 672.768 694.016 672.768zM590.72 751.296c38.016-11.392 72.64-31.744 101.12-59.2 6.08-5.824 6.272-15.552 0.448-21.568-5.824-6.08-15.488-6.272-21.568-0.448-25.024 24.064-55.424 41.92-88.704 51.968-8.064 2.432-12.672 10.944-10.24 19.008C574.144 749.12 582.592 753.728 590.72 751.296L590.72 751.296 590.72 751.296 590.72 751.296zM464.832 743.168c9.728-20.672 30.528-34.176 53.824-34.176 23.232 0 44.096 13.504 53.824 34.176 3.584 7.616 12.672 10.88 20.288 7.296 7.616-3.584 10.88-12.672 7.296-20.288-14.72-31.296-46.272-51.712-81.408-51.712-35.2 0-66.688 20.416-81.408 51.712-3.584 7.616-0.32 16.704 7.296 20.288C452.16 754.112 461.248 750.784 464.832 743.168L464.832 743.168 464.832 743.168 464.832 743.168zM346.24 692.736c28.352 27.072 62.784 47.168 100.416 58.56 8.064 2.432 16.576-2.176 19.008-10.24 2.432-8.064-2.176-16.576-10.24-19.008-33.088-9.92-63.232-27.584-88.192-51.392-6.08-5.824-15.744-5.632-21.568 0.512C339.904 677.248 340.096 686.912 346.24 692.736L346.24 692.736 346.24 692.736 346.24 692.736zM294.528 580.928c32.832 0 59.456 26.624 59.456 59.456 0 11.904-3.456 23.168-9.92 32.896-4.672 7.04-2.752 16.512 4.288 21.184 7.04 4.672 16.512 2.752 21.184-4.288 9.728-14.656 15.04-31.872 15.04-49.792 0-49.728-40.32-89.984-89.984-89.984-8.448 0-15.232 6.848-15.232 15.232C279.232 574.08 286.08 580.928 294.528 580.928L294.528 580.928 294.528 580.928 294.528 580.928zM291.136 580.992c1.024-0.064 2.176-0.128 3.392-0.128 8.448 0 15.232-6.848 15.232-15.232C309.76 557.184 302.912 550.4 294.528 550.4c-1.728 0-3.392 0-4.992 0.128-8.448 0.448-14.848 7.68-14.4 16.064C275.52 574.976 282.688 581.44 291.136 580.992L291.136 580.992 291.136 580.992 291.136 580.992zM275.456 454.784C271.04 473.408 268.864 492.608 268.864 512c0 19.456 2.24 38.592 6.592 57.216 1.92 8.192 10.112 13.312 18.368 11.392 8.192-1.92 13.312-10.112 11.392-18.368C301.312 545.92 299.328 529.088 299.328 512c0-17.088 1.984-33.92 5.824-50.24 1.92-8.192-3.2-16.448-11.392-18.368C285.568 441.472 277.312 446.528 275.456 454.784L275.456 454.784 275.456 454.784 275.456 454.784zM294.528 443.072c-1.216 0-2.304-0.064-3.328-0.128C282.688 442.56 275.52 449.024 275.008 457.408 274.56 465.856 281.024 473.024 289.472 473.472 291.072 473.6 292.736 473.6 294.464 473.6c8.448 0 15.232-6.848 15.232-15.232C309.76 449.92 302.912 443.072 294.528 443.072L294.528 443.072 294.528 443.072 294.528 443.072zM344 350.784C350.464 360.384 353.92 371.776 353.92 383.616c0 32.832-26.624 59.456-59.456 59.456-8.448 0-15.232 6.848-15.232 15.232C279.232 466.816 286.08 473.6 294.528 473.6c49.728 0 89.984-40.256 89.984-89.984 0-17.92-5.312-35.2-15.04-49.792C364.8 326.784 355.264 324.928 348.288 329.536 341.248 334.272 339.328 343.744 344 350.784L344 350.784 344 350.784 344 350.784zM446.656 272.704C408.96 284.032 374.592 304.192 346.24 331.264 340.096 337.088 339.904 346.752 345.664 352.832c5.824 6.08 15.488 6.336 21.568 0.512 24.96-23.808 55.104-41.472 88.192-51.392 8.064-2.432 12.672-10.944 10.24-19.008C463.232 274.88 454.72 270.272 446.656 272.704L446.656 272.704 446.656 272.704 446.656 272.704zM572.48 280.832C562.752 301.504 541.952 315.008 518.656 315.008c-23.232 0-44.096-13.504-53.824-34.176C461.248 273.216 452.16 269.888 444.544 273.536 436.928 277.12 433.664 286.208 437.248 293.824c14.72 31.296 46.208 51.712 81.408 51.712 35.2 0 66.688-20.416 81.408-51.712C603.712 286.208 600.448 277.12 592.768 273.536 585.152 269.888 576.064 273.216 572.48 280.832L572.48 280.832 572.48 280.832 572.48 280.832zM691.84 331.904C663.296 304.512 628.672 284.16 590.72 272.704c-8.064-2.432-16.576 2.176-19.008 10.24C569.28 291.008 573.888 299.52 581.952 301.952c33.344 9.984 63.744 27.904 88.768 51.968 6.08 5.824 15.744 5.632 21.568-0.448C698.112 347.392 697.856 337.728 691.84 331.904L691.84 331.904 691.84 331.904 691.84 331.904zM743.872 443.072c-32.832 0-59.456-26.624-59.456-59.392 0-11.712 3.392-22.848 9.6-32.448 4.608-7.04 2.624-16.512-4.48-21.12-7.04-4.608-16.512-2.56-21.12 4.48-9.472 14.528-14.528 31.424-14.528 49.088 0 49.728 40.32 89.984 89.984 89.984 8.448 0 15.232-6.848 15.232-15.232C759.168 449.92 752.32 443.072 743.872 443.072L743.872 443.072 743.872 443.072 743.872 443.072zM746.368 443.008c-0.704 0.064-1.536 0.064-2.496 0.064-8.448 0-15.232 6.848-15.232 15.232 0 8.448 6.848 15.232 15.232 15.232 1.408 0 2.624-0.064 3.84-0.064 8.448-0.384 14.976-7.488 14.592-15.936C761.92 449.216 754.816 442.688 746.368 443.008L746.368 443.008 746.368 443.008 746.368 443.008zM746.368 443.008" />

</svg>
