<?xml version="1.0" encoding="utf-8"?>
<!DOCTYPE svg PUBLIC "-//W3C//DTD SVG 1.1//EN" "http://www.w3.org/Graphics/SVG/1.1/DTD/svg11.dtd">
<svg version="1.1" id="图形" xmlns="http://www.w3.org/2000/svg" xmlns:xlink="http://www.w3.org/1999/xlink" x="0px" y="0px" width="1024px" height="1024px" viewBox="0 0 1024 1024" enable-background="new 0 0 1024 1024" xml:space="preserve">
  <path class="svgpath" data-index="path_0" fill="#666666" d="M512 9.536C234.496 9.536 9.536 234.496 9.536 512c0 277.504 224.96 502.464 502.464 502.464S1014.464 789.504 1014.464 512C1014.464 234.496 789.504 9.536 512 9.536zM512 989.312c-263.616 0-477.312-213.696-477.312-477.312 0-263.616 213.696-477.312 477.312-477.312S989.312 248.384 989.312 512C989.312 775.616 775.616 989.312 512 989.312zM327.936 602.24c0 85.568 78.848 154.944 168.768 162.24l42.944-131.968-74.752 23.552c0 0-37.44 1.856-23.488-39.232 13.888-41.088 56.96-167.488 56.96-167.488s24.576-18.112 31.36 15.68L488.384 593.28c0 0 3.2 23.552 43.392 7.872 23.552-9.216 74.752-38.784 62.72 0-15.36 49.536-74.752 149.056-74.752 149.056l-7.808 15.68c0.064 0 0.064 0 0.128 0 96.128 0 184.064-73.28 184.064-163.712C696.064 511.808 512 248.384 512 248.384S327.936 511.808 327.936 602.24z" />

</svg>
