<?xml version="1.0" encoding="utf-8"?>
<!-- Generator: Adobe Illustrator 17.0.0, SVG Export Plug-In . SVG Version: 6.00 Build 0)  -->
<!DOCTYPE svg PUBLIC "-//W3C//DTD SVG 1.1//EN" "http://www.w3.org/Graphics/SVG/1.1/DTD/svg11.dtd">
<svg version="1.1" id="图层_1" xmlns="http://www.w3.org/2000/svg" xmlns:xlink="http://www.w3.org/1999/xlink" x="0px" y="0px"
	 width="566.93px" height="566.93px" viewBox="0 0 566.93 566.93" enable-background="new 0 0 566.93 566.93" xml:space="preserve">
<g>
	<path fill="#666666" d="M284.269,0C127.518,0,0,127.517,0,284.269c0,156.749,127.518,284.266,284.269,284.266
		c156.749,0,284.302-127.517,284.302-284.266C568.572,127.517,441.018,0,284.269,0L284.269,0L284.269,0z M284.269,549.55
		c-146.283,0-265.284-119.001-265.284-265.282c0-146.283,119.001-265.284,265.284-265.284c146.28,0,265.281,119.001,265.281,265.284
		C549.55,430.549,430.549,549.55,284.269,549.55L284.269,549.55L284.269,549.55z M284.269,549.55"/>
	<path fill="#666666" d="M451.479,275.918c-2.407-24.321-16.372-47.007-38.321-62.242c-15.803-10.99-34.311-17.07-52.454-17.638
		c-4.575-19.178-15.167-36.651-30.401-49.347c-18.309-15.232-41.226-22.117-64.514-19.41c-42.663,5.011-76.574,40.859-81.251,82.32
		c-30.804,12.864-53.02,45.639-51.45,80.217c1.838,40.291,35.547,75.269,76.74,79.646l0.068-0.602
		c7.015,0.668,13.262-3.574,14.131-9.788c0.902-6.416-4.243-12.462-11.559-13.497h-0.102l0.069-0.535
		c-28.966-3.041-53.555-28.331-54.825-56.328c-1.338-29.333,21.449-56.828,49.712-60.037v-0.132h1.537l-0.701-3.408l0.602-0.067
		c-3.308-35.58,24.12-69.19,59.869-73.401c16.538-1.97,32.873,3.007,45.97,13.899c14.068,11.728,22.821,28.933,24.024,47.275
		l0.532-0.033v9.989l3.576-0.869l0.132,0.499c18.14-4.776,39.157-0.499,56.295,11.394c16.035,11.159,26.193,27.363,27.895,44.502
		c2.039,20.513-7.516,35.448-15.903,44.4c-14.231,15.169-35.881,24.156-56.362,23.419v0.37l-7.65,0.066
		c-7.351,0.067-13.298,5.445-13.231,11.993c0.069,6.548,6.082,11.827,13.466,11.761l6.581-0.067v0.367
		c1.068,0.033,2.138,0.067,3.206,0.067c26.728,0,53.387-11.526,71.897-31.237C445.798,321.655,453.783,299.07,451.479,275.918
		L451.479,275.918L451.479,275.918z M467.932,274.793"/>
	<path fill="#666666" d="M228.005,269.035l-0.234,0.668c-7.017-1.871-14.032,1.603-15.737,7.751
		c-1.603,5.913,2.24,12.128,8.62,14.432l-0.166,0.535c8.885,2.872,16.168,9.857,18.974,18.243l0.502-0.168l0.235,123.883
		c0,6.915,5.011,12.494,11.159,12.494c6.112,0,11.09-5.612,11.058-12.53l-0.268-131.264l0.569-0.199
		C257.405,286.977,244.441,274.348,228.005,269.035L228.005,269.035L228.005,269.035z M228.005,269.035"/>
	<path fill="#666666" d="M346.64,279.795l0.168-0.036c7.249-0.867,12.461-6.849,11.692-13.328
		c-0.734-5.847-6.145-10.091-12.561-10.157v-0.401c-26.16,0.801-54.356,18.408-55.092,49.444h0.568l0.234,129.026
		c0,6.918,5.279,12.498,11.761,12.498c6.48,0,11.725-5.616,11.692-12.531l-0.268-128.391h0.502
		c0.367-15.969,16.438-25.056,31.303-25.489V279.795L346.64,279.795L346.64,279.795z M346.64,279.795"/>
</g>
</svg>
