<?xml version="1.0" encoding="utf-8"?>
<!-- Generator: Adobe Illustrator 17.0.0, SVG Export Plug-In . SVG Version: 6.00 Build 0)  -->
<!DOCTYPE svg PUBLIC "-//W3C//DTD SVG 1.1//EN" "http://www.w3.org/Graphics/SVG/1.1/DTD/svg11.dtd">
<svg version="1.1" id="图层_1" xmlns="http://www.w3.org/2000/svg" xmlns:xlink="http://www.w3.org/1999/xlink" x="0px" y="0px"
	 width="16px" height="16px" viewBox="0 0 16 16" enable-background="new 0 0 16 16" xml:space="preserve">
<g>
	<path fill="#fefefe" d="M15.888,9.257c0-2.506-1.882-4.59-4.284-4.84l0,0H1.554L4.66,1.262L3.478,1.513L0.167,4.876l3.312,3.362
		L4.66,8.49L1.601,5.384h9.518c2.11,0,3.815,1.734,3.815,3.872c0,2.137-1.705,3.873-3.815,3.873H1.113v0.968h10.49l0,0
		C14.007,13.849,15.888,11.761,15.888,9.257L15.888,9.257z M1.1,4.876l0.013-0.013V4.89L1.1,4.876L1.1,4.876z M1.1,4.876"/>
</g>
</svg>
