<?xml version="1.0" encoding="utf-8"?>
<!-- Generator: Adobe Illustrator 17.0.0, SVG Export Plug-In . SVG Version: 6.00 Build 0)  -->
<!DOCTYPE svg PUBLIC "-//W3C//DTD SVG 1.1//EN" "http://www.w3.org/Graphics/SVG/1.1/DTD/svg11.dtd">
<svg version="1.1" id="图层_1" xmlns="http://www.w3.org/2000/svg" xmlns:xlink="http://www.w3.org/1999/xlink" x="0px" y="0px"
	 width="16px" height="16px" viewBox="0 0 16 16" enable-background="new 0 0 16 16" xml:space="preserve">
<g>
	<path fill="#9e9e9e" d="M9.918,12.718H6.083v1.398H2.431v1.048h11.134v-1.048H9.918V12.718L9.918,12.718L9.918,12.718L9.918,12.718
		L9.918,12.718z M14.953,0.836H1.043C0.467,0.836,0,1.304,0,1.884v9.785c0,0.87,0.84,1.048,1.512,1.048H14.4
		c1.131,0,1.598-0.47,1.598-1.048V1.884C15.997,1.304,15.53,0.836,14.953,0.836L14.953,0.836L14.953,0.836L14.953,0.836
		L14.953,0.836z M15.262,11.52c0,0.201-0.163,0.365-0.363,0.365H1.097c-0.2,0-0.363-0.163-0.363-0.365V2.031
		c0-0.201,0.163-0.365,0.363-0.365h13.802c0.2,0,0.363,0.163,0.363,0.365V11.52L15.262,11.52L15.262,11.52L15.262,11.52
		L15.262,11.52z M11.772,10.644h1.309V5.139h-1.309V10.644L11.772,10.644L11.772,10.644L11.772,10.644L11.772,10.644z M8.751,10.686
		h1.318V3.487H8.751V10.686L8.751,10.686L8.751,10.686L8.751,10.686L8.751,10.686z M3.552,10.65h1.189V8.533H3.552V10.65
		L3.552,10.65L3.552,10.65L3.552,10.65L3.552,10.65z M5.905,10.617H7.17V6.806H5.905V10.617L5.905,10.617L5.905,10.617L5.905,10.617
		L5.905,10.617z M5.905,10.617"/>
</g>
</svg>
