<?xml version="1.0" encoding="utf-8"?>
<!-- Generator: Adobe Illustrator 17.0.0, SVG Export Plug-In . SVG Version: 6.00 Build 0)  -->
<!DOCTYPE svg PUBLIC "-//W3C//DTD SVG 1.1//EN" "http://www.w3.org/Graphics/SVG/1.1/DTD/svg11.dtd">
<svg version="1.1" id="图层_1" xmlns="http://www.w3.org/2000/svg" xmlns:xlink="http://www.w3.org/1999/xlink" x="0px" y="0px"
	 width="40px" height="40px" viewBox="0 0 16 16" enable-background="new 0 0 16 16" xml:space="preserve">
<g>
	<path fill="#fff" d="M8.813,0.04C8.552,0.014,8.288,0,8.021,0C3.614,0,0.042,3.572,0.042,7.979c0,4.407,3.572,7.979,7.979,7.979
		c0.267,0,0.531-0.014,0.792-0.04C12.847,15.521,16,12.119,16,7.979C16,3.84,12.847,0.438,8.813,0.04z M8.813,15.1
		c-0.26,0.029-0.524,0.046-0.792,0.046V0.813c0.268,0,0.531,0.017,0.792,0.046c3.585,0.394,6.375,3.431,6.375,7.121
		C15.188,11.669,12.398,14.705,8.813,15.1z"/>
	<path fill="#fff" d="M8.813,1.728V14.23c3.1-0.4,5.497-3.042,5.497-6.251C14.309,4.771,11.912,2.128,8.813,1.728z"/>
</g>
</svg>
