<?xml version="1.0" encoding="utf-8"?>
<!-- Generator: Adobe Illustrator 17.0.0, SVG Export Plug-In . SVG Version: 6.00 Build 0)  -->
<!DOCTYPE svg PUBLIC "-//W3C//DTD SVG 1.1//EN" "http://www.w3.org/Graphics/SVG/1.1/DTD/svg11.dtd">
<svg version="1.1" id="图层_1" xmlns="http://www.w3.org/2000/svg" xmlns:xlink="http://www.w3.org/1999/xlink" x="0px" y="0px"
	 width="16px" height="16px" viewBox="0 0 16 16" enable-background="new 0 0 16 16" xml:space="preserve">
<circle fill-rule="evenodd" clip-rule="evenodd" fill="#0BAB98" cx="8.009" cy="7.935" r="7.825"/>
<path fill-rule="evenodd" clip-rule="evenodd" fill="#FFFFFF" d="M7.98,0.041c-4.389,0-7.959,3.57-7.959,7.959
	s3.57,7.959,7.959,7.959s7.959-3.57,7.959-7.959S12.369,0.041,7.98,0.041L7.98,0.041 M7.98,15.804c-4.303,0-7.804-3.501-7.804-7.804
	S3.677,0.196,7.98,0.196S15.785,3.697,15.785,8C15.784,12.303,12.283,15.804,7.98,15.804L7.98,15.804 M7.98,15.201L7.98,15.201z"/>
<g>
	<path fill-rule="evenodd" clip-rule="evenodd" fill="#FFFFFF" d="M9.785,3.774h-3.64c-0.842,0-1.504,0.662-1.504,1.504v5.443
		c0,0.842,0.662,1.504,1.504,1.504h3.67c0.842,0,1.504-0.662,1.504-1.504V5.277C11.289,4.466,10.627,3.774,9.785,3.774L9.785,3.774
		 M6.145,4.375h3.67c0.512,0,0.902,0.391,0.902,0.902v4.421H5.243V5.277C5.243,4.797,5.635,4.375,6.145,4.375L6.145,4.375
		 M9.785,11.654h-3.64c-0.512,0-0.902-0.391-0.902-0.902v-0.421h5.473v0.421C10.688,11.232,10.296,11.654,9.785,11.654L9.785,11.654
		 M9.785,11.654L9.785,11.654z"/>
	<path fill-rule="evenodd" clip-rule="evenodd" fill="#FFFFFF" d="M7.95,10.661c0.181,0,0.301,0.12,0.301,0.301
		c0,0.181-0.12,0.301-0.301,0.301c-0.181,0-0.301-0.12-0.301-0.301C7.65,10.782,7.799,10.661,7.95,10.661L7.95,10.661 M7.95,10.661
		L7.95,10.661z"/>
</g>
</svg>
