<?xml version="1.0" encoding="utf-8"?>
<!-- Generator: Adobe Illustrator 17.0.0, SVG Export Plug-In . SVG Version: 6.00 Build 0)  -->
<!DOCTYPE svg PUBLIC "-//W3C//DTD SVG 1.1//EN" "http://www.w3.org/Graphics/SVG/1.1/DTD/svg11.dtd">
<svg version="1.1" id="图层_1" xmlns="http://www.w3.org/2000/svg" xmlns:xlink="http://www.w3.org/1999/xlink" x="0px" y="0px"
	 width="16px" height="16px" viewBox="0 0 16 16" enable-background="new 0 0 16 16" xml:space="preserve">
<path fill="#ff6201" d="M11.896,11.931c-1.493,0.11-2.682-0.446-3.693-1.493C7.101,9.298,5.948,8.206,4.847,7.064
	c-0.868-0.9-1.463-1.943-1.319-3.257c0.124-1.129,0.779-1.93,1.689-2.538C5.315,1.204,5.601,1.261,5.686,1.36
	c0.733,0.846,1.447,1.707,2.143,2.584c0.083,0.105,0.063,0.341,0.012,0.49C7.765,4.656,7.599,4.846,7.509,5.066
	C7.335,5.495,7.372,5.874,7.743,6.223c0.66,0.62,1.299,1.263,1.921,1.922c0.308,0.327,0.599,0.295,0.915,0.07
	c0.183-0.13,0.359-0.279,0.51-0.446c0.193-0.214,0.369-0.233,0.577-0.037c0.901,0.85,1.803,1.699,2.706,2.547
	c0.231,0.217,0.215,0.416-0.052,0.582c-0.395,0.245-0.784,0.505-1.198,0.712c-0.204,0.102-0.273,0.202-0.249,0.419
	c0.062,0.562-0.08,1.083-0.358,1.57c-0.947,1.66-2.832,1.935-4.206,0.588c-0.98-0.96-1.922-1.959-2.88-2.942
	c-0.4-0.41-0.794-0.827-1.199-1.231C3.8,9.551,3.275,9.531,2.886,9.912c-0.427,0.418-0.432,0.985-0.007,1.415
	c0.44,0.446,0.887,0.885,1.327,1.33c0.282,0.284,0.321,0.564,0.089,0.759c-0.265,0.223-0.514,0.139-0.739-0.088
	c-0.469-0.473-0.943-0.942-1.413-1.415c-0.716-0.72-0.684-1.898,0.07-2.653c0.734-0.735,1.897-0.75,2.613-0.018
	c1.324,1.352,2.638,2.713,3.958,4.068c0.121,0.124,0.246,0.246,0.384,0.349c0.586,0.441,1.316,0.519,1.831,0.206
	C11.617,13.49,12.011,12.657,11.896,11.931z"/>
</svg>
