<?xml version="1.0" encoding="utf-8"?>
<!-- Generator: Adobe Illustrator 17.0.0, SVG Export Plug-In . SVG Version: 6.00 Build 0)  -->
<!DOCTYPE svg PUBLIC "-//W3C//DTD SVG 1.1//EN" "http://www.w3.org/Graphics/SVG/1.1/DTD/svg11.dtd">
<svg version="1.1" id="图层_1" xmlns="http://www.w3.org/2000/svg" xmlns:xlink="http://www.w3.org/1999/xlink" x="0px" y="0px"
	 width="16px" height="16px" viewBox="0 0 16 16" enable-background="new 0 0 16 16" xml:space="preserve">
<g>
	<path fill="#9e9e9e" d="M13,5c0-2.8-2.2-5-5-5S3,2.2,3,5H1v2v1v8h14V8V7V5H13L13,5L13,5z M8,1c2.2,0,4,1.8,4,4c0,0.7-0.2,1.4-0.6,2
		H8H4.6C4.2,6.4,4,5.7,4,5C4,2.8,5.8,1,8,1L8,1L8,1z M2,6h1.1V5.9C3.2,6.3,3.3,6.7,3.4,7H2V6L2,6L2,6z M14,15H2V8h2h8h2V15L14,15
		L14,15z M12.6,7c0.1-0.3,0.3-0.7,0.3-1.1V6H14v1H12.6L12.6,7L12.6,7z M12.6,7"/>
	<path fill="#272635" d="M10,5c0-1.1-0.9-2-2-2S6,3.9,6,5c0,1.1,0.9,2,2,2C9.1,7,10,6.1,10,5L10,5L10,5z M8,6C7.4,6,7,5.6,7,5
		c0-0.6,0.4-1,1-1c0.6,0,1,0.4,1,1C9,5.6,8.6,6,8,6L8,6L8,6z M8,6"/>
</g>
</svg>
