<?xml version="1.0" encoding="utf-8"?>
<!-- Generator: Adobe Illustrator 19.0.0, SVG Export Plug-In . SVG Version: 6.00 Build 0)  -->
<svg version="1.1" id="图层_1" xmlns="http://www.w3.org/2000/svg" xmlns:xlink="http://www.w3.org/1999/xlink" x="0px" y="0px"
	 viewBox="0 0 16 16" style="enable-background:new 0 0 16 16;" xml:space="preserve">
<style type="text/css">
	.st0{fill-rule:evenodd;clip-rule:evenodd;fill:#999999;}
</style>
<g id="XMLID_11_">
	<path id="XMLID_9_" class="st0" d="M8,12.6c0.2,0,0.4-0.2,0.4-0.4V8.4h3.8c0.2,0,0.4-0.2,0.4-0.4c0-0.2-0.2-0.4-0.4-0.4H8.4V3.8
		c0-0.2-0.2-0.4-0.4-0.4c-0.2,0-0.4,0.2-0.4,0.4v3.8H3.8C3.6,7.6,3.4,7.8,3.4,8c0,0.2,0.2,0.4,0.4,0.4h3.8v3.8
		C7.6,12.4,7.8,12.6,8,12.6L8,12.6z"/>
	<path id="XMLID_8_" class="st0" d="M6.7,1.2h2.6c0.2,0,0.4-0.2,0.4-0.4c0-0.2-0.2-0.4-0.4-0.4H6.7c-0.2,0-0.4,0.2-0.4,0.4
		C6.3,1.1,6.5,1.2,6.7,1.2L6.7,1.2z"/>
	<path id="XMLID_7_" class="st0" d="M0.8,4.5c0.2,0,0.4-0.2,0.4-0.4V2.3c0-0.6,0.5-1,1-1h1.8c0.2,0,0.4-0.2,0.4-0.4
		c0-0.2-0.2-0.4-0.4-0.4H2.3c-1,0-1.8,0.8-1.8,1.8v1.8C0.4,4.3,0.6,4.5,0.8,4.5L0.8,4.5z"/>
	<path id="XMLID_6_" class="st0" d="M0.8,9.7c0.2,0,0.4-0.2,0.4-0.4V6.7c0-0.2-0.2-0.4-0.4-0.4c-0.2,0-0.4,0.2-0.4,0.4v2.6
		C0.4,9.5,0.6,9.7,0.8,9.7L0.8,9.7z"/>
	<path id="XMLID_5_" class="st0" d="M4.1,14.8H2.3c-0.6,0-1-0.5-1-1v-1.8c0-0.2-0.2-0.4-0.4-0.4c-0.2,0-0.4,0.2-0.4,0.4v1.8
		c0,1,0.8,1.8,1.8,1.8h1.8c0.2,0,0.4-0.2,0.4-0.4C4.5,14.9,4.3,14.8,4.1,14.8L4.1,14.8z"/>
	<path id="XMLID_4_" class="st0" d="M9.3,14.8H6.7c-0.2,0-0.4,0.2-0.4,0.4c0,0.2,0.2,0.4,0.4,0.4h2.6c0.2,0,0.4-0.2,0.4-0.4
		C9.7,14.9,9.5,14.8,9.3,14.8L9.3,14.8z"/>
	<path id="XMLID_3_" class="st0" d="M15.2,11.5c-0.2,0-0.4,0.2-0.4,0.4v1.8c0,0.6-0.5,1-1,1h-1.8c-0.2,0-0.4,0.2-0.4,0.4
		c0,0.2,0.2,0.4,0.4,0.4h1.8c1,0,1.8-0.8,1.8-1.8v-1.8C15.6,11.7,15.4,11.5,15.2,11.5L15.2,11.5z"/>
	<path id="XMLID_2_" class="st0" d="M15.2,6.3c-0.2,0-0.4,0.2-0.4,0.4v2.6c0,0.2,0.2,0.4,0.4,0.4c0.2,0,0.4-0.2,0.4-0.4V6.7
		C15.6,6.5,15.4,6.3,15.2,6.3L15.2,6.3z"/>
	<path id="XMLID_1_" class="st0" d="M13.7,0.4h-1.8c-0.2,0-0.4,0.2-0.4,0.4c0,0.2,0.2,0.4,0.4,0.4h1.8c0.6,0,1,0.5,1,1v1.8
		c0,0.2,0.2,0.4,0.4,0.4c0.2,0,0.4-0.2,0.4-0.4V2.3C15.6,1.3,14.7,0.4,13.7,0.4L13.7,0.4z"/>
</g>
</svg>
