<?xml version="1.0" standalone="no"?><!DOCTYPE svg PUBLIC "-//W3C//DTD SVG 1.1//EN" "http://www.w3.org/Graphics/SVG/1.1/DTD/svg11.dtd"><svg width="200" height="200" viewBox="0 0 200 200" version="1.1" xmlns="http://www.w3.org/2000/svg" xmlns:xlink="http://www.w3.org/1999/xlink"><defs><style type="text/css"><![CDATA[
@font-face { font-family: ifont; src: url(http://at.alicdn.com/t/font_1442373896_4754455.eot?#iefix) format(embedded-opentype), url(http://at.alicdn.com/t/font_1442373896_4754455.woff) format(woff), url(http://at.alicdn.com/t/font_1442373896_4754455.ttf) format(truetype), url(http://at.alicdn.com/t/font_1442373896_4754455.svg#ifont) format(svg); }

]]></style></defs><g class="transform-group"><g transform="scale(0.1953125, 0.1953125)"><path d="M921.6 819.2 128 819.2 128 134.4c0-12.8-12.8-25.6-25.6-25.6L102.4 108.8c-12.8 0-25.6 12.8-25.6 25.6l0 716.8c0 12.8 12.8 25.6 25.6 25.6l6.4 0c0 0 0 0 0 0l812.8 0c12.8 0 25.6-12.8 25.6-25.6l0-6.4C947.2 825.6 934.4 819.2 921.6 819.2zM236.8 774.4 320 774.4c19.2 0 38.4-19.2 38.4-38.4L358.4 620.8c0-19.2-19.2-38.4-38.4-38.4L236.8 582.4c-19.2 0-38.4 19.2-38.4 38.4l0 115.2C198.4 755.2 217.6 774.4 236.8 774.4zM467.2 774.4l89.6 0c19.2 0 38.4-19.2 38.4-38.4L595.2 243.2c0-19.2-19.2-38.4-38.4-38.4L467.2 204.8C448 204.8 435.2 224 435.2 243.2l0 492.8C435.2 755.2 448 774.4 467.2 774.4zM710.4 774.4l89.6 0c19.2 0 38.4-19.2 38.4-38.4L838.4 396.8c0-19.2-19.2-38.4-38.4-38.4l-89.6 0c-19.2 0-38.4 19.2-38.4 38.4l0 339.2C678.4 755.2 691.2 774.4 710.4 774.4z" fill="#272636"></path></g></g></svg>