<?xml version="1.0" standalone="no"?><!DOCTYPE svg PUBLIC "-//W3C//DTD SVG 1.1//EN" "http://www.w3.org/Graphics/SVG/1.1/DTD/svg11.dtd"><svg width="200" height="200" viewBox="0 0 200 200" version="1.1" xmlns="http://www.w3.org/2000/svg" xmlns:xlink="http://www.w3.org/1999/xlink"><defs><style type="text/css"><![CDATA[
@font-face { font-family: ifont; src: url(http://at.alicdn.com/t/font_1442373896_4754455.eot?#iefix) format(embedded-opentype), url(http://at.alicdn.com/t/font_1442373896_4754455.woff) format(woff), url(http://at.alicdn.com/t/font_1442373896_4754455.ttf) format(truetype), url(http://at.alicdn.com/t/font_1442373896_4754455.svg#ifont) format(svg); }

]]></style></defs><g class="transform-group"><g transform="scale(0.1953125, 0.1953125)"><path d="M550.4 518.4 524.8 499.2C524.8 492.8 518.4 492.8 512 499.2 505.6 505.6 505.6 512 512 518.4l19.2 19.2c6.4 6.4 12.8 6.4 12.8 0C550.4 531.2 550.4 518.4 550.4 518.4zM691.2 531.2 710.4 512c6.4-6.4 6.4-12.8 0-12.8-6.4-6.4-12.8-6.4-12.8 0l-19.2 19.2c-6.4 6.4-6.4 12.8 0 12.8C684.8 537.6 691.2 537.6 691.2 531.2zM697.6 588.8c0 6.4 6.4 12.8 12.8 12.8l25.6 0c6.4 0 12.8-6.4 12.8-12.8 0-6.4-6.4-12.8-12.8-12.8l-25.6 0C704 576 697.6 582.4 697.6 588.8zM627.2 499.2 627.2 473.6c0-6.4-6.4-12.8-12.8-12.8-6.4 0-12.8 6.4-12.8 12.8l0 25.6C601.6 505.6 608 512 614.4 512 620.8 512 627.2 505.6 627.2 499.2zM633.6 742.4 601.6 742.4c-6.4 0-12.8 6.4-12.8 12.8 0 6.4 6.4 12.8 12.8 12.8l32 0c6.4 0 12.8-6.4 12.8-12.8C646.4 748.8 640 742.4 633.6 742.4zM518.4 576 492.8 576C486.4 576 480 582.4 480 588.8c0 6.4 6.4 12.8 12.8 12.8l25.6 0c6.4 0 12.8-6.4 12.8-12.8C531.2 582.4 524.8 576 518.4 576zM563.2 550.4C550.4 563.2 544 582.4 544 601.6c0 19.2 6.4 38.4 19.2 51.2 12.8 12.8 32 19.2 51.2 19.2 19.2 0 38.4-6.4 51.2-19.2 12.8-12.8 19.2-32 19.2-51.2 0-19.2-6.4-38.4-19.2-51.2-12.8-12.8-32-19.2-51.2-19.2C595.2 524.8 576 537.6 563.2 550.4zM665.6 601.6c0 25.6-25.6 51.2-51.2 51.2S563.2 627.2 563.2 601.6c0-25.6 25.6-51.2 51.2-51.2C640 550.4 665.6 569.6 665.6 601.6zM646.4 697.6l-64 0c-6.4 0-12.8 6.4-12.8 12.8 0 6.4 6.4 12.8 12.8 12.8l64 0c6.4 0 12.8-6.4 12.8-12.8C659.2 704 659.2 697.6 646.4 697.6zM409.6 569.6 288 569.6C275.2 569.6 262.4 576 262.4 588.8c0 12.8 6.4 25.6 19.2 25.6l121.6 0c12.8 0 19.2-12.8 19.2-25.6C428.8 576 422.4 569.6 409.6 569.6zM339.2 736 288 736c-12.8 0-19.2 12.8-19.2 25.6 0 12.8 6.4 25.6 19.2 25.6l51.2 0c12.8 0 19.2-12.8 19.2-25.6C358.4 742.4 352 736 339.2 736zM281.6 288l339.2 0c12.8 0 19.2-12.8 19.2-25.6 0-12.8-6.4-25.6-19.2-25.6L281.6 236.8c-12.8 0-19.2 12.8-19.2 25.6C262.4 281.6 268.8 288 281.6 288zM288 448l217.6 0c12.8 0 19.2-12.8 19.2-25.6 0-12.8-6.4-25.6-19.2-25.6L288 396.8c-12.8 0-19.2 12.8-19.2 25.6C262.4 441.6 275.2 448 288 448zM787.2 96 185.6 96c-12.8 0-25.6 12.8-25.6 25.6l0 787.2c0 12.8 12.8 25.6 25.6 25.6l601.6 0c12.8 0 25.6-12.8 25.6-25.6L812.8 121.6C819.2 108.8 806.4 96 787.2 96zM768 896 204.8 896l0-755.2L768 140.8 768 896z" fill="#272636"></path></g></g></svg>