<?xml version="1.0" encoding="utf-8"?>
<!-- Generator: Adobe Illustrator 17.0.0, SVG Export Plug-In . SVG Version: 6.00 Build 0)  -->
<!DOCTYPE svg PUBLIC "-//W3C//DTD SVG 1.1//EN" "http://www.w3.org/Graphics/SVG/1.1/DTD/svg11.dtd">
<svg version="1.1" id="图层_1" xmlns="http://www.w3.org/2000/svg" xmlns:xlink="http://www.w3.org/1999/xlink" x="0px" y="0px"
	 width="16px" height="16px" viewBox="0 0 16 16" enable-background="new 0 0 16 16" xml:space="preserve">
<g>
	<path fill="#9e9e9e" d="M13.653,12.947c-0.227,0.316-0.479,0.613-0.752,0.888c-1.323,1.333-3.151,2.157-5.171,2.157
		c-2.019,0-3.848-0.824-5.171-2.157c-1.324-1.333-2.142-3.174-2.142-5.208c0-2.033,0.819-3.875,2.142-5.208
		c1.288-1.297,3.054-2.113,5.008-2.155l0.077,4.868C7.079,6.167,6.57,6.416,6.194,6.802C5.788,7.219,5.537,7.795,5.537,8.431
		c0,0.636,0.251,1.213,0.657,1.629c0.406,0.417,0.968,0.675,1.587,0.675c0.62,0,1.181-0.258,1.588-0.675
		c0.024-0.024,0.047-0.05,0.07-0.075L13.653,12.947L13.653,12.947L13.653,12.947L13.653,12.947z M8.27,0.038H8.234l-0.16,5.287
		c0.018-0.001,0.037-0.001,0.056-0.001c0.483,0,0.93,0.156,1.296,0.423l3.018-4.392C11.26,0.525,9.821,0.038,8.27,0.038L8.27,0.038
		L8.27,0.038L8.27,0.038z M12.65,2.592l-3.095,3.97c0.056,0.047,0.11,0.098,0.161,0.15c0.406,0.417,0.657,0.993,0.657,1.629
		c0,0.537-0.179,1.032-0.48,1.424l4.444,2.835c0.785-1.174,1.244-2.589,1.244-4.11c0-2.034-0.819-3.875-2.142-5.208
		C13.194,3.034,12.93,2.804,12.65,2.592L12.65,2.592L12.65,2.592z M12.65,2.592"/>
</g>
</svg>
