<?xml version="1.0" encoding="utf-8"?>
<!-- Generator: Adobe Illustrator 17.0.0, SVG Export Plug-In . SVG Version: 6.00 Build 0)  -->
<!DOCTYPE svg PUBLIC "-//W3C//DTD SVG 1.1//EN" "http://www.w3.org/Graphics/SVG/1.1/DTD/svg11.dtd">
<svg version="1.1" id="图层_1" xmlns="http://www.w3.org/2000/svg" xmlns:xlink="http://www.w3.org/1999/xlink" x="0px" y="0px"
	 width="16px" height="16px" viewBox="0 0 16 16" enable-background="new 0 0 16 16" xml:space="preserve">
<path fill="#74807e" d="M14.47,10.125c-0.475-0.539-1.008-0.97-1.604-1.296c-0.596-0.327-1.146-0.534-1.651-0.622
	C10.71,8.12,10.292,8.142,9.959,8.273c-0.332,0.131-0.463,0.378-0.393,0.74c0.046,0.214,0.12,0.478,0.222,0.789
	c0.103,0.312,0.197,0.698,0.284,1.159c0.086,0.46,0.13,0.995,0.13,1.601c-0.001,0.607-0.083,1.329-0.248,2.165
	c-0.069,0.435,0.06,0.756,0.387,0.96c0.327,0.203,0.737,0.264,1.229,0.183c0.855-0.152,1.557-0.429,2.108-0.829
	c0.55-0.4,0.981-0.823,1.291-1.268c0.374-0.547,0.508-1.162,0.399-1.841C15.261,11.253,14.961,10.65,14.47,10.125L14.47,10.125z
	 M14.47,10.125"/>
<path fill="#74807e" d="M10.69,5.749c0.356-0.305,0.796-0.61,1.322-0.913c0.526-0.303,1.192-0.593,1.999-0.868
	c0.412-0.158,0.625-0.43,0.638-0.815c0.013-0.385-0.14-0.771-0.456-1.156c-0.559-0.664-1.15-1.134-1.772-1.411
	c-0.621-0.277-1.203-0.438-1.744-0.484c-0.661-0.051-1.26,0.141-1.794,0.575C8.348,1.109,7.976,1.671,7.767,2.359
	c-0.229,0.68-0.336,1.358-0.321,2.037c0.015,0.679,0.111,1.259,0.287,1.74C7.91,6.618,8.138,6.969,8.418,7.191
	c0.279,0.222,0.559,0.212,0.838-0.03C9.418,7.014,9.61,6.819,9.829,6.575C10.047,6.33,10.335,6.055,10.69,5.749L10.69,5.749z
	 M10.69,5.749"/>
<path fill="#74807e" d="M7.893,8.709C7.684,8.641,7.419,8.573,7.098,8.506C6.777,8.439,6.395,8.328,5.952,8.173
	C5.51,8.017,5.025,7.788,4.5,7.484C3.975,7.18,3.391,6.748,2.749,6.187C2.406,5.909,2.064,5.861,1.724,6.042
	c-0.34,0.182-0.597,0.506-0.772,0.973c-0.296,0.816-0.407,1.563-0.336,2.24c0.071,0.677,0.222,1.261,0.452,1.752
	c0.287,0.598,0.752,1.02,1.395,1.266c0.643,0.247,1.315,0.288,2.015,0.125c0.704-0.142,1.344-0.388,1.924-0.741
	c0.581-0.353,1.035-0.726,1.364-1.119c0.329-0.394,0.519-0.767,0.571-1.121C8.39,9.066,8.241,8.829,7.893,8.709L7.893,8.709z
	 M7.893,8.709"/>
</svg>
