<?xml version="1.0" encoding="utf-8"?>
<!DOCTYPE svg PUBLIC "-//W3C//DTD SVG 1.1//EN" "http://www.w3.org/Graphics/SVG/1.1/DTD/svg11.dtd">
<svg version="1.1" id="图形" xmlns="http://www.w3.org/2000/svg" xmlns:xlink="http://www.w3.org/1999/xlink" x="0px" y="0px" width="1024px" height="1024px" viewBox="0 0 1024 1024" enable-background="new 0 0 1024 1024" xml:space="preserve">
  <path class="svgpath" data-index="path_0" fill="#e5e5e5" d="M512 69.772288c-246.009856 0-445.44 199.430144-445.44 445.44 0 216.930304 155.071488 397.638656 360.408064 437.328896L442.162176 789.7088c-54.561792-20.652032-92.254208-64.746496-92.254208-115.813376 0-62.589952 56.623104-114.702336 131.531776-126.016512L481.439744 352.908288c-27.669504-10.103808-47.055872-33.504256-47.055872-60.766208 0-33.291264 28.908544-60.82048 66.511872-65.410048L500.895744 121.542656c0-6.2208 5.0432-11.264 11.264-11.264s11.264 5.0432 11.264 11.264l0 105.224192c37.44768 4.70528 66.19136 32.178176 66.19136 65.375232 0 27.155456-19.237888 50.475008-46.73536 60.642304l0 195.142656c74.748928 11.414528 131.211264 63.46752 131.211264 125.968384 0 50.9696-37.548032 94.997504-91.943936 115.698688l15.199232 162.884608C802.527232 912.663552 957.44 732.030976 957.44 515.212288 957.44 269.202432 758.009856 69.772288 512 69.772288z" /><!--272636-->

</svg>
