<?xml version="1.0" encoding="utf-8"?>
<!DOCTYPE svg PUBLIC "-//W3C//DTD SVG 1.1//EN" "http://www.w3.org/Graphics/SVG/1.1/DTD/svg11.dtd">
<svg version="1.1" id="图形" xmlns="http://www.w3.org/2000/svg" xmlns:xlink="http://www.w3.org/1999/xlink" x="0px" y="0px" width="1024px" height="1024px" viewBox="0 0 1024 1024" enable-background="new 0 0 1024 1024" xml:space="preserve">
  <path class="svgpath" data-index="path_0" fill="#fcfcfc" d="M726.4 72.896h-428.8c-29.632 0-53.632 24.128-53.632 53.888v754.496c0 29.76 24 53.888 53.632 53.888h428.8c29.568 0 53.632-24.128 53.632-53.888v-754.496c0-29.76-24-53.888-53.632-53.888zM391.424 126.784h241.216c7.424 0 13.376 6.016 13.376 13.504 0 7.424-6.016 13.44-13.376 13.44h-241.216c-7.424 0-13.376-6.016-13.376-13.44-0.064-7.488 5.952-13.504 13.376-13.504zM512 908.16c-14.784 0-26.816-12.032-26.816-26.944s12.032-26.944 26.816-26.944 26.816 12.032 26.816 26.944-12.032 26.944-26.816 26.944zM726.4 827.328h-428.8v-619.712h428.8v619.712z" />

</svg>
