<?xml version="1.0" encoding="utf-8"?>
<!-- Generator: Adobe Illustrator 17.0.0, SVG Export Plug-In . SVG Version: 6.00 Build 0)  -->
<!DOCTYPE svg PUBLIC "-//W3C//DTD SVG 1.1//EN" "http://www.w3.org/Graphics/SVG/1.1/DTD/svg11.dtd">
<svg version="1.1" id="图层_1" xmlns="http://www.w3.org/2000/svg" xmlns:xlink="http://www.w3.org/1999/xlink" x="0px" y="0px"
	 width="16px" height="16px" viewBox="0 0 16 16" enable-background="new 0 0 16 16" xml:space="preserve">
<g>
	<path fill="#74807e" d="M8.488,0c0,0-5.572,6.708-5.572,10.031c0,3.323,2.494,6.02,5.572,6.02s5.572-2.695,5.572-6.019
		C14.06,6.71,8.488,0,8.488,0L8.488,0z M11.508,13.274l-0.005-0.003c-0.032,0.074-0.101,0.132-0.208,0.132
		c-0.195,0-0.264-0.194-0.209-0.334l-0.003-0.002c0.521-1.076,0.801-2.127,0.834-3.122c0.025-0.791-0.104-1.55-0.387-2.255
		c-0.483-1.207-1.257-1.852-1.265-1.858l0.003-0.003c-0.151-0.118-0.104-0.426,0.142-0.426c0.082,0,0.143,0.035,0.181,0.085
		c0.149,0.129,0.883,0.804,1.369,2.003c0.312,0.768,0.456,1.594,0.431,2.453C12.358,11.011,12.06,12.132,11.508,13.274
		L11.508,13.274z M11.508,13.274"/>
</g>
</svg>
