<?xml version="1.0" standalone="no"?><!DOCTYPE svg PUBLIC "-//W3C//DTD SVG 1.1//EN" "http://www.w3.org/Graphics/SVG/1.1/DTD/svg11.dtd"><svg width="14" height="14" viewBox="0 0 200 200" version="1.1" xmlns="http://www.w3.org/2000/svg" xmlns:xlink="http://www.w3.org/1999/xlink"><defs><style type="text/css"><![CDATA[
@font-face { font-family: ifont; src: url("http://at.alicdn.com/t/font_1442373896_4754455.eot?#iefix") format("embedded-opentype"), url("http://at.alicdn.com/t/font_1442373896_4754455.woff") format("woff"), url("http://at.alicdn.com/t/font_1442373896_4754455.ttf") format("truetype"), url("http://at.alicdn.com/t/font_1442373896_4754455.svg#ifont") format("svg"); }

]]></style></defs><g class="transform-group"><g transform="scale(0.1953125, 0.1953125)"><path d="M533.931498 739.588415c-12.692067 12.692067-33.187867 12.773931-45.778626 0.184195L74.382081 326.000795c-12.590759-12.590759-12.507872-33.086559 0.184195-45.778626l0 0c12.692067-12.692067 33.187867-12.773931 45.778626-0.184195l413.771815 413.771815C546.70543 706.400548 546.623565 726.896348 533.931498 739.588415L533.931498 739.588415zM947.851693 281.262872c12.692067 12.692067 12.773931 33.187867 0.184195 45.778626L534.264073 740.812289c-12.590759 12.590759-33.086559 12.507872-45.778626-0.184195l0 0c-12.692067-12.692067-12.773931-33.187867-0.184195-45.778626l413.770791-413.770791C914.663826 268.48894 935.159626 268.570805 947.851693 281.262872L947.851693 281.262872z" fill="#737478"></path></g></g></svg>