<?xml version="1.0" encoding="utf-8"?>
<!-- Generator: Adobe Illustrator 17.0.0, SVG Export Plug-In . SVG Version: 6.00 Build 0)  -->
<!DOCTYPE svg PUBLIC "-//W3C//DTD SVG 1.1//EN" "http://www.w3.org/Graphics/SVG/1.1/DTD/svg11.dtd">
<svg version="1.1" id="图层_1" xmlns="http://www.w3.org/2000/svg" xmlns:xlink="http://www.w3.org/1999/xlink" x="0px" y="0px"
	 width="16px" height="16px" viewBox="0 0 16 16" enable-background="new 0 0 16 16" xml:space="preserve">
<g>
	<path fill="#575757" d="M8.686,0C8.655,0,8.624,0,8.593,0.001C4.639,0.052,1.464,3.31,1.515,7.264c0,0.03,0.004,0.06,0.009,0.089
		C1.028,7.872-0.01,9.059,0,9.883c0.012,0.912,0.879,1.251,1.497,1.265l0.704,0.15l0.176,3.449c0.015,0.7,0.589,1.261,1.288,1.261
		c0.006,0,0.011,0,0.017,0l2.631-0.034c0.284-0.004,0.511-0.237,0.508-0.521c-0.004-0.282-0.233-0.508-0.514-0.508
		c-0.002,0-0.005,0-0.007,0l-2.632,0.034c-0.091-0.001-0.156-0.046-0.185-0.074c-0.029-0.028-0.077-0.089-0.078-0.183l-0.217-4.267
		L1.604,10.12l-0.057,0.001c-0.001-0.001-0.174-0.001-0.335-0.059C1.03,9.996,1.029,9.929,1.029,9.87
		C1.025,9.575,1.665,8.668,2.398,7.929c0.141-0.142,0.182-0.345,0.123-0.523C2.536,7.357,2.544,7.304,2.543,7.25
		C2.5,3.863,5.219,1.073,8.606,1.029c0.027,0,0.054-0.001,0.08-0.001c3.35,0,6.098,2.704,6.141,6.063
		C14.831,7.374,15.06,7.6,15.341,7.6c0.002,0,0.005,0,0.007,0c0.284-0.004,0.511-0.237,0.508-0.521C15.805,3.156,12.598,0,8.686,0
		L8.686,0L8.686,0z M8.686,0"/>
	<path fill="#575757" d="M11.441,7.532l-0.566,0.01c-0.049,0.144-0.108,0.286-0.185,0.423c-0.077,0.138-0.167,0.262-0.264,0.379
		l0.288,0.487c0.118,0.199,0.052,0.457-0.147,0.577l-0.72,0.433C9.649,9.96,9.392,9.896,9.275,9.697L8.984,9.205
		c-0.298,0.06-0.606,0.074-0.911,0.022L7.898,9.54C7.785,9.743,7.53,9.816,7.328,9.704L6.599,9.296
		C6.398,9.184,6.327,8.928,6.44,8.725l0.174-0.312C6.411,8.18,6.261,7.911,6.156,7.625l-0.571,0.01
		C5.353,7.64,5.164,7.455,5.162,7.223l-0.009-0.84C5.15,6.151,5.336,5.959,5.567,5.955l0.566-0.01
		C6.181,5.801,6.24,5.659,6.317,5.522C6.394,5.384,6.484,5.26,6.581,5.142L6.293,4.656C6.175,4.457,6.241,4.199,6.44,4.079
		l0.72-0.433c0.199-0.12,0.455-0.055,0.573,0.144l0.291,0.492c0.298-0.06,0.606-0.074,0.911-0.022L9.11,3.947
		c0.113-0.203,0.369-0.276,0.57-0.164l0.729,0.407c0.201,0.112,0.272,0.368,0.159,0.571l-0.174,0.312
		c0.204,0.233,0.354,0.502,0.459,0.788l0.571-0.01c0.231-0.004,0.42,0.181,0.423,0.413l0.009,0.84
		C11.857,7.336,11.672,7.528,11.441,7.532L11.441,7.532L11.441,7.532z M11.434,6.902l-0.005-0.42
		c-0.001-0.116-0.096-0.208-0.211-0.206l-0.671,0.012c-0.094-0.436-0.324-0.84-0.673-1.141L10.1,4.742
		c0.057-0.102,0.021-0.229-0.08-0.286L9.656,4.253c-0.101-0.056-0.228-0.02-0.285,0.082L9.145,4.739
		C8.706,4.6,8.241,4.615,7.821,4.764L7.479,4.186C7.42,4.087,7.292,4.055,7.193,4.115l-0.36,0.217C6.733,4.391,6.7,4.52,6.759,4.619
		l0.343,0.58C6.94,5.348,6.795,5.522,6.681,5.725C6.568,5.929,6.495,6.143,6.454,6.36L5.78,6.372
		C5.665,6.374,5.572,6.469,5.573,6.585l0.004,0.42c0.001,0.116,0.096,0.208,0.211,0.206L6.46,7.2
		c0.094,0.436,0.324,0.84,0.673,1.141L6.907,8.745c-0.057,0.102-0.021,0.229,0.08,0.286l0.365,0.204
		C7.452,9.29,7.58,9.254,7.636,9.152l0.226-0.404c0.44,0.14,0.904,0.124,1.324-0.025l0.342,0.578C9.587,9.4,9.715,9.432,9.815,9.372
		l0.36-0.216c0.099-0.06,0.132-0.189,0.074-0.288l-0.343-0.58c0.163-0.149,0.307-0.323,0.421-0.526
		c0.114-0.203,0.186-0.418,0.227-0.634l0.674-0.012C11.343,7.113,11.435,7.018,11.434,6.902L11.434,6.902L11.434,6.902z M7.99,7.662
		c-0.503-0.281-0.681-0.92-0.398-1.428c0.284-0.507,0.921-0.691,1.425-0.41c0.503,0.281,0.681,0.92,0.398,1.428
		C9.132,7.76,8.494,7.943,7.99,7.662L7.99,7.662L7.99,7.662z M8.812,6.192C8.51,6.024,8.127,6.134,7.957,6.438
		c-0.17,0.305-0.063,0.688,0.239,0.857C8.498,7.463,8.88,7.353,9.051,7.049C9.221,6.744,9.114,6.361,8.812,6.192L8.812,6.192
		L8.812,6.192z M8.812,6.192"/>
	<path fill="#575757" d="M13.925,10.293l-0.304,0.012c-0.025,0.078-0.055,0.155-0.095,0.23c-0.04,0.075-0.087,0.143-0.138,0.207
		l0.16,0.259c0.065,0.106,0.033,0.245-0.073,0.311l-0.382,0.241c-0.106,0.066-0.244,0.035-0.309-0.071l-0.162-0.261
		c-0.16,0.036-0.325,0.046-0.49,0.022l-0.09,0.17c-0.059,0.11-0.195,0.152-0.304,0.094l-0.396-0.211
		c-0.109-0.058-0.15-0.195-0.092-0.305l0.09-0.17c-0.112-0.123-0.196-0.266-0.255-0.418l-0.307,0.012
		c-0.124,0.005-0.228-0.093-0.232-0.217l-0.014-0.451c-0.004-0.125,0.094-0.229,0.218-0.234l0.304-0.012
		c0.025-0.078,0.055-0.155,0.095-0.23c0.04-0.075,0.087-0.143,0.138-0.207l-0.16-0.259c-0.065-0.106-0.033-0.245,0.073-0.311
		l0.382-0.24c0.106-0.066,0.244-0.035,0.31,0.071l0.162,0.261c0.159-0.036,0.325-0.046,0.489-0.022l0.09-0.17
		c0.059-0.11,0.195-0.152,0.305-0.094l0.396,0.211c0.109,0.058,0.15,0.195,0.092,0.305l-0.09,0.17
		c0.112,0.123,0.196,0.266,0.255,0.418l0.307-0.012c0.124-0.005,0.228,0.093,0.232,0.217l0.014,0.451
		C14.146,10.183,14.049,10.288,13.925,10.293L13.925,10.293L13.925,10.293z M13.914,9.954l-0.007-0.226
		c-0.002-0.062-0.054-0.111-0.116-0.109l-0.36,0.014c-0.055-0.233-0.183-0.448-0.374-0.606l0.117-0.22
		c0.029-0.055,0.009-0.123-0.046-0.153L12.93,8.55c-0.055-0.029-0.123-0.008-0.152,0.047l-0.117,0.22
		c-0.238-0.07-0.487-0.057-0.711,0.028l-0.19-0.307c-0.033-0.053-0.102-0.069-0.155-0.035l-0.191,0.12
		c-0.053,0.033-0.069,0.103-0.036,0.156l0.191,0.308c-0.086,0.082-0.162,0.177-0.221,0.287c-0.059,0.111-0.095,0.226-0.115,0.343
		L10.87,9.73c-0.062,0.002-0.111,0.055-0.109,0.117l0.007,0.226c0.002,0.062,0.054,0.111,0.116,0.109l0.361-0.014
		c0.055,0.233,0.183,0.448,0.374,0.606l-0.117,0.22c-0.029,0.055-0.009,0.124,0.046,0.153l0.198,0.106
		c0.055,0.029,0.123,0.008,0.152-0.047l0.117-0.22c0.238,0.07,0.487,0.057,0.711-0.028l0.19,0.307
		c0.033,0.053,0.102,0.069,0.155,0.036l0.191-0.12c0.053-0.033,0.069-0.103,0.036-0.156l-0.191-0.308
		c0.086-0.082,0.162-0.177,0.221-0.287c0.059-0.111,0.095-0.226,0.115-0.343l0.362-0.014C13.868,10.069,13.916,10.017,13.914,9.954
		L13.914,9.954L13.914,9.954z M12.072,10.4c-0.274-0.146-0.376-0.487-0.229-0.763c0.147-0.276,0.488-0.381,0.761-0.236
		c0.274,0.146,0.376,0.487,0.229,0.763C12.686,10.441,12.345,10.546,12.072,10.4L12.072,10.4L12.072,10.4z M12.497,9.601
		c-0.164-0.087-0.369-0.024-0.457,0.141c-0.088,0.165-0.027,0.37,0.138,0.458c0.164,0.087,0.369,0.024,0.457-0.141
		C12.723,9.894,12.661,9.689,12.497,9.601L12.497,9.601L12.497,9.601z M12.497,9.601"/>
</g>
</svg>
