<?xml version="1.0" standalone="no"?><!DOCTYPE svg PUBLIC "-//W3C//DTD SVG 1.1//EN" "http://www.w3.org/Graphics/SVG/1.1/DTD/svg11.dtd"><svg width="200" height="200" viewBox="0 0 200 200" version="1.1" xmlns="http://www.w3.org/2000/svg" xmlns:xlink="http://www.w3.org/1999/xlink"><defs><style type="text/css"><![CDATA[
@font-face { font-family: ifont; src: url("//at.alicdn.com/t/font_1442373896_4754455.eot?#iefix") format("embedded-opentype"), url("//at.alicdn.com/t/font_1442373896_4754455.woff") format("woff"), url("//at.alicdn.com/t/font_1442373896_4754455.ttf") format("truetype"), url("//at.alicdn.com/t/font_1442373896_4754455.svg#ifont") format("svg"); }

]]></style></defs><g class="transform-group"><g transform="scale(0.1953125, 0.1953125)"><path d="M689.264774 103.416348C635.729487 81.256652 576.992735 69.01484 515.352863 69.01484c-61.636802 0-120.376625 12.242835-173.881213 34.402531l0 0.028653c-55.594179 23.035646-105.712647 56.83238-147.674341 98.792027-41.958624 41.957601-75.754335 92.080162-98.788957 147.673317l-0.031722-0.030699C72.817957 403.415956 60.575122 462.152708 60.575122 523.792581c0 61.637826 12.242835 120.375601 34.401508 173.881213l0.031722 0c23.034623 55.593156 56.830333 105.714693 98.788957 147.674341 41.961694 41.958624 92.080162 75.756381 147.674341 98.78998l0 0.030699c53.504588 22.158672 112.24441 34.401508 173.881213 34.401508 61.638849 0 120.376625-12.242835 173.911912-34.401508l-0.028653-0.030699c55.591109-23.033599 105.71367-56.831356 147.673317-98.78998 41.958624-41.959647 75.756381-92.080162 98.791004-147.674341l0.028653 0c22.158672-53.505611 34.401508-112.243387 34.401508-173.881213 0-61.638849-12.242835-120.375601-34.401508-173.912935l-0.028653 0.030699c-23.034623-55.592133-56.83238-105.714693-98.791004-147.673317-41.959647-41.958624-92.081185-75.755358-147.673317-98.792027L689.264774 103.416348 689.264774 103.416348zM392.863111 298.882158c-0.665149-4.987594 0.603751-10.248412 3.928472-14.570857 3.327792-4.29277 8.102538-6.862291 13.060457-7.497765 4.988618-0.63445 10.249435 0.635473 14.570857 3.960195l293.681716 227.450269c4.29277 3.295046 6.863315 8.070816 7.498788 13.028735 0.633427 4.987594-0.635473 10.247388-3.960195 14.569834-0.545422 0.725524-1.177825 1.420349-1.813299 2.025123-0.604774 0.635473-1.332345 1.239224-2.056845 1.783623l-0.239454 0.181125L424.421874 766.809383c-4.321422 3.325745-9.582239 4.595668-14.570857 3.960195-4.956895-0.63445-9.731642-3.203972-13.060457-7.496741-3.324722-4.323469-4.593622-9.583263-3.928472-14.569834 0.603751-4.958942 3.203972-9.734712 7.495718-13.060457l260.159228-201.450105 13.420661-10.399861-13.420661-10.399861L400.358829 311.910892C396.037407 308.585147 393.465838 303.839053 392.863111 298.882158L392.863111 298.882158zM515.352863 108.495016c114.662483 0 218.502479 46.52257 293.653063 121.644501 38.213323 38.210253 69.046562 84.008322 90.146113 134.886083 20.284999 48.972365 31.497365 102.600773 31.497365 158.76698 0 56.167231-11.212366 109.794615-31.497365 158.736281-21.099551 50.906413-51.93279 96.704482-90.146113 134.915759-38.208207 38.210253-83.9766 69.045539-134.853337 90.115414l0 0.030699c-48.943712 20.283975-102.602819 31.468712-158.799726 31.468712-114.662483 0-218.500433-46.493917-293.653063-121.614825-38.20923-38.211277-69.043493-84.009346-90.14509-134.915759-20.281929-48.941666-31.466666-102.56905-31.466666-158.736281 0-56.166207 11.184737-109.794615 31.466666-158.76698 21.101597-50.877761 51.935859-96.67583 90.14509-134.886083 38.2123-38.210253 83.980693-69.044516 134.857431-90.14509l0 0C405.497872 119.709429 459.187679 108.495016 515.352863 108.495016z" fill="#272636"></path></g></g></svg>