<?xml version="1.0" encoding="utf-8"?>
<!DOCTYPE svg PUBLIC "-//W3C//DTD SVG 1.1//EN" "http://www.w3.org/Graphics/SVG/1.1/DTD/svg11.dtd">
<svg style="width:308px;height:308px;" version="1.1" id="图形" xmlns="http://www.w3.org/2000/svg" xmlns:xlink="http://www.w3.org/1999/xlink" x="0px" y="0px" width="1024px" height="1024px" viewBox="0 0 1024 1024" enable-background="new 0 0 1024 1024" xml:space="preserve">
  <path class="svgpath" data-index="path_0" fill="#6e86b1" d="M999.232 493.888l-214.144-214.144c-9.984-9.984-18.112-6.592-18.112 7.488l0 156.736L579.968 443.968 579.968 257.024l156.736 0c14.08 0 17.472-8.128 7.488-18.112L530.112 24.768c-9.984-9.984-26.24-9.984-36.224 0L279.808 238.912C269.824 248.832 273.216 257.024 287.296 257.024l156.736 0 0 187.008L257.024 444.032 257.024 287.296c0-14.08-8.128-17.472-18.112-7.488L24.768 493.888c-9.984 9.984-9.984 26.24 0 36.224l214.144 214.144c9.984 9.984 18.112 6.592 18.112-7.488L257.024 579.968l187.008 0 0 187.008L287.296 766.976c-14.08 0-17.472 8.128-7.488 18.112l214.144 214.144c9.984 9.984 26.24 9.984 36.224 0l214.144-214.144c9.984-9.984 6.592-18.112-7.488-18.112L579.968 766.976 579.968 579.968l187.008 0 0 156.736c0 14.08 8.128 17.472 18.112 7.488l214.144-214.144C1009.152 520.128 1009.152 503.872 999.232 493.888z" />

</svg>
