<?xml version="1.0" encoding="utf-8"?>
<!DOCTYPE svg PUBLIC "-//W3C//DTD SVG 1.1//EN" "http://www.w3.org/Graphics/SVG/1.1/DTD/svg11.dtd">
<svg version="1.1" id="图形" xmlns="http://www.w3.org/2000/svg" xmlns:xlink="http://www.w3.org/1999/xlink" x="0px" y="0px" width="1024px" height="1024px" viewBox="0 0 1024 1024" enable-background="new 0 0 1024 1024" xml:space="preserve">
  <path class="svgpath" data-index="path_0" fill="#666666" d="M512 3.008C231.296 3.008 3.008 231.296 3.008 512c0 280.704 228.352 508.992 508.992 508.992 280.704 0 508.992-228.352 508.992-508.992C1020.992 231.296 792.704 3.008 512 3.008L512 3.008 512 3.008zM512 993.088c-265.28 0-481.088-215.808-481.088-481.088 0-265.28 215.808-481.088 481.088-481.088 265.28 0 481.152 215.808 481.152 481.088C993.088 777.28 777.28 993.088 512 993.088L512 993.088 512 993.088zM512 993.088" />
<path class="svgpath" data-index="path_1" fill="#666666" d="M572.48 691.136 451.648 691.136l0 43.84L336.64 734.976l0 32.832 350.72 0 0-32.832L572.48 734.976 572.48 691.136 572.48 691.136 572.48 691.136 572.48 691.136 572.48 691.136zM731.072 318.656 292.928 318.656c-18.112 0-32.832 14.72-32.832 32.832l0 306.688c0 18.112 14.72 32.832 15.424 32.832l438.144 0c35.648 0 50.304-14.72 50.304-32.832L763.968 351.552C763.904 333.376 749.248 318.656 731.072 318.656L731.072 318.656 731.072 318.656 731.072 318.656 731.072 318.656zM736.768 650.944c0 6.208-4.992 11.264-11.264 11.264L298.432 662.208c-6.208 0-11.264-5.056-11.264-11.264L287.168 358.72c0-6.208 5.056-11.264 11.264-11.264l427.072 0c6.208 0 11.264 5.056 11.264 11.264L736.768 650.944 736.768 650.944 736.768 650.944 736.768 650.944 736.768 650.944zM618.816 626.304l59.264 0L678.08 453.76 618.816 453.76 618.816 626.304 618.816 626.304 618.816 626.304 618.816 626.304 618.816 626.304zM524.032 626.304l59.264 0L583.296 400.64 524.032 400.64 524.032 626.304 524.032 626.304 524.032 626.304 524.032 626.304 524.032 626.304zM346.24 626.304l59.264 0L405.504 559.936 346.24 559.936 346.24 626.304 346.24 626.304 346.24 626.304 346.24 626.304 346.24 626.304zM429.248 626.304l59.264 0L488.512 506.816 429.248 506.816 429.248 626.304 429.248 626.304 429.248 626.304 429.248 626.304 429.248 626.304zM429.248 626.304" />

</svg>
