<?xml version="1.0" encoding="utf-8"?>
<!-- Generator: Adobe Illustrator 17.0.0, SVG Export Plug-In . SVG Version: 6.00 Build 0)  -->
<!DOCTYPE svg PUBLIC "-//W3C//DTD SVG 1.1//EN" "http://www.w3.org/Graphics/SVG/1.1/DTD/svg11.dtd">
<svg version="1.1" id="图层_1" xmlns="http://www.w3.org/2000/svg" xmlns:xlink="http://www.w3.org/1999/xlink" x="0px" y="0px"
	 width="16px" height="16px" viewBox="0 0 16 16" enable-background="new 0 0 16 16" xml:space="preserve">
<g>
	<path fill="#E0954C" d="M7.36,8.16c0,0.209,0.086,0.418,0.234,0.566C7.742,8.874,7.951,8.96,8.16,8.96
		c0.209,0,0.418-0.086,0.566-0.234C8.874,8.578,8.96,8.369,8.96,8.16c0-0.209-0.086-0.418-0.234-0.566
		C8.578,7.446,8.369,7.36,8.16,7.36c-0.209,0-0.418,0.086-0.566,0.234C7.446,7.742,7.36,7.951,7.36,8.16L7.36,8.16z M7.36,8.16"/>
	<path fill="#E0954C" d="M8.962,11.519v-0.411c0.248-0.068,0.483-0.164,0.702-0.289l0.394,0.394c0.251,0.251,0.657,0.251,0.908,0
		l0.227-0.227c0.251-0.251,0.251-0.657,0-0.908l-0.392-0.391c0.126-0.219,0.225-0.456,0.294-0.705h0.423
		c0.354,0,0.642-0.287,0.641-0.641V8.02c0-0.354-0.287-0.642-0.642-0.642H11.1c-0.066-0.247-0.161-0.482-0.284-0.7l0.377-0.377
		c0.251-0.251,0.251-0.657,0-0.907l-0.227-0.227c-0.251-0.251-0.657-0.251-0.908,0L9.69,5.537C9.464,5.405,9.22,5.303,8.963,5.233
		V4.802c0-0.354-0.287-0.642-0.642-0.642H8c-0.354,0-0.642,0.287-0.642,0.642v0.431c-0.258,0.07-0.501,0.172-0.727,0.304
		L6.262,5.168c-0.25-0.251-0.657-0.251-0.907,0L5.128,5.395c-0.251,0.251-0.251,0.657,0,0.907l0.376,0.376
		c-0.123,0.218-0.218,0.453-0.284,0.7H4.802c-0.354,0-0.642,0.287-0.642,0.642V8.34c0,0.354,0.287,0.642,0.642,0.642h0.424
		c0.069,0.249,0.168,0.485,0.294,0.705l-0.392,0.391c-0.251,0.251-0.251,0.657,0,0.908l0.227,0.227c0.251,0.251,0.657,0.251,0.907,0
		l0.394-0.394c0.219,0.124,0.454,0.221,0.702,0.289v0.411c0,0.354,0.287,0.641,0.642,0.641h0.321
		C8.675,12.16,8.962,11.873,8.962,11.519L8.962,11.519z M6.4,8.16c0-0.972,0.788-1.76,1.76-1.76c0.972,0,1.76,0.788,1.76,1.76
		c0,0.972-0.788,1.76-1.76,1.76C7.188,9.92,6.4,9.132,6.4,8.16L6.4,8.16z M6.4,8.16"/>
	<path fill="#E0954C" d="M16,8c0-4.418-3.582-8-8-8S0,3.582,0,8c0,4.418,3.582,8,8,8S16,12.418,16,8L16,8z M0.648,8.597L2.011,8.08
		L0.64,7.559C0.862,3.817,3.868,0.831,7.62,0.64l0.527,1.351l0.521-1.336c3.618,0.325,6.476,3.258,6.692,6.904l-1.371,0.52
		l1.363,0.517c-0.287,3.574-3.118,6.428-6.684,6.748l-0.521-1.336L7.62,15.36C3.92,15.171,0.943,12.266,0.648,8.597L0.648,8.597z
		 M0.648,8.597"/>
</g>
</svg>
