<?xml version="1.0" encoding="utf-8"?>
<!-- Generator: Adobe Illustrator 17.0.0, SVG Export Plug-In . SVG Version: 6.00 Build 0)  -->
<!DOCTYPE svg PUBLIC "-//W3C//DTD SVG 1.1//EN" "http://www.w3.org/Graphics/SVG/1.1/DTD/svg11.dtd">
<svg version="1.1" id="图层_1" xmlns="http://www.w3.org/2000/svg" xmlns:xlink="http://www.w3.org/1999/xlink" x="0px" y="0px"
	 width="16px" height="16px" viewBox="0 0 16 16" enable-background="new 0 0 16 16" xml:space="preserve">
<path fill="none" d="M15.625,5.51V1.217h-3.378C13.823,2.201,15.034,3.713,15.625,5.51z"/>
<path fill="none" d="M3.783,1.217H0.375v4.374C0.956,3.758,2.182,2.216,3.783,1.217z"/>
<path fill="none" d="M0.375,10.438v4.094h2.987C1.968,13.536,0.904,12.108,0.375,10.438z"/>
<path fill="none" d="M15.625,10.519c-0.538,1.634-1.586,3.033-2.957,4.013h2.957V10.519z"/>
<path fill="none" d="M15.625,10.519V5.51c-0.591-1.797-1.802-3.309-3.378-4.293H3.783c-1.601,0.999-2.827,2.54-3.408,4.374v4.847
	c0.529,1.67,1.593,3.097,2.987,4.094h9.305C14.039,13.552,15.087,12.154,15.625,10.519z"/>
<g>
	<g>
		<path fill-rule="evenodd" clip-rule="evenodd" fill="#fff" d="M12.023,7.24V6.873h-0.213V5.335h-0.213v1.538h-0.106V7.24
			h-0.744V7.02h-0.213V6.653h-0.106V5.188h-0.106v1.465h-0.106V7.02h-0.213v5.934H9.792v0.366H9.579v-0.293H8.623v-0.22H8.516
			v-0.293H8.304v0.293H8.198v0.22H7.241v0.293H7.04C7.067-1.725,6.391,0.133,6.391,0.133L6.179,0.28L3.735,1.965
			c-0.3,0.817-0.325,9-0.323,12.495c1.045,0.765,2.277,1.283,3.617,1.477v0c0.382,0.055,0.77,0.093,1.167,0.093
			c0.546,0,1.079-0.056,1.595-0.159c0.875-0.174,1.695-0.493,2.444-0.924V7.24H12.023z"/><!--626363-->
	</g>
</g>
</svg>
