<?xml version="1.0" standalone="no"?>
<!DOCTYPE svg PUBLIC "-//W3C//DTD SVG 1.1//EN"
"http://www.w3.org/Graphics/SVG/1.1/DTD/svg11.dtd">
<svg xmlns="http://www.w3.org/2000/svg" version="1.1" x="0px" y="0px" width="30px" height="30px" viewBox="0 0 30 30" enable-background="new 0 0 30 30" xml:space="preserve">
    <g fill="#3893c6">
        <path fill-rule="evenodd" clip-rule="evenodd" d="M28.775,15.645c0-4.414-2.228-8.306-5.619-10.619
                                    c0.066-0.275,0.11-0.559,0.11-0.854c0-2.027-1.644-3.671-3.672-3.671c-1.546,0-2.862,0.957-3.405,2.308
                                    c-0.09-0.002-0.178-0.014-0.268-0.014c-7.035,0-12.742,5.651-12.845,12.66c-1.35,0.543-2.305,1.858-2.305,3.402
                                    c0,2.027,1.644,3.671,3.672,3.671c0.205,0,0.402-0.028,0.599-0.061c2.274,3.616,6.29,6.027,10.878,6.027
                                    c1.729,0,3.376-0.347,4.882-0.966c0.652,0.594,1.512,0.966,2.463,0.966c2.028,0,3.673-1.645,3.673-3.672
                                    c0-0.662-0.189-1.274-0.496-1.811C27.908,20.925,28.775,18.388,28.775,15.645z M25.133,21.678
                                    c-0.549-0.326-1.182-0.526-1.867-0.526c-2.028,0-3.672,1.645-3.672,3.672c0,0.395,0.079,0.769,0.194,1.125
                                    c-1.205,0.452-2.504,0.711-3.867,0.711c-3.842,0-7.22-1.969-9.192-4.948c0.839-0.673,1.388-1.694,1.388-2.854
                                    c0-1.864-1.394-3.387-3.193-3.623C5.141,9.343,9.974,4.631,15.92,4.631c0.016,0,0.031,0.002,0.046,0.002
                                    c0.229,1.808,1.756,3.21,3.626,3.21c1.064,0,2.015-0.46,2.686-1.183c2.816,1.995,4.66,5.271,4.66,8.984
                                    C26.938,17.873,26.271,19.944,25.133,21.678z">
            </path>
    </g>
</svg>