<?xml version="1.0" standalone="no"?>
<!DOCTYPE svg PUBLIC "-//W3C//DTD SVG 1.1//EN"
"http://www.w3.org/Graphics/SVG/1.1/DTD/svg11.dtd">
<svg xmlns="http://www.w3.org/2000/svg" version="1.1" x="0px" y="0px" width="30px" height="30px" viewBox="0 0 30 30" enable-background="new 0 0 30 30" xml:space="preserve">
    <g fill="#3893c6">
        <path fill-rule="evenodd" clip-rule="evenodd" d="M20.976,6.535l-0.953-0.531L19,9.008h1L20.976,6.535z
                                        M18.527,15.022L14.766,0l-3.371,15.157c-0.257,0.549-0.39,1.151-0.392,1.762l-0.002,0.007h0.002
                                	    c-0.001,0.696,0.167,1.402,0.532,2.048c1.104,1.956,3.548,2.627,5.46,1.497c1.282-0.757,1.995-2.131,1.995-3.545h0.014
                                	    l-0.013-0.049C18.984,16.247,18.832,15.613,18.527,15.022z M15.003,19.998c-1.658,0-3.001-1.375-3.001-3.072
                                	    c0-1.695,1.343-3.07,3.001-3.07c1.657,0,3.001,1.375,3.001,3.07C18.004,18.623,16.66,19.998,15.003,19.998z M17.745,2.28
                                	    l-0.392,1.962C22.854,5.336,27,10.187,27,16.008c0,6.627-5.373,12-12,12s-12-5.373-12-12c0-5.821,4.146-10.672,9.646-11.766
                                	    L12.254,2.28C5.838,3.557,1,9.216,1,16.008c0,7.732,6.268,14,14,14s14-6.268,14-14C29,9.216,24.162,3.557,17.745,2.28z M22,11.008
                                	    v1l2.801-1.387L24.251,9.7L22,11.008z M4,16.008h3v-1H4V16.008z M26,16.008v-1h-3v1H26z M10,9.008h1L9.976,6.004L9.023,6.535
                                	    L10,9.008z M8.606,11.295L5.749,9.7l-0.55,0.921l2.858,1.595L8.606,11.295z M15.003,14.879c-1.105,0-2.001,0.917-2.001,2.047
                                	    c0,1.131,0.896,2.048,2.001,2.048c1.104,0,2-0.917,2-2.048C17.003,15.796,16.107,14.879,15.003,14.879z">
        </path>
    </g>
</svg>