<?xml version="1.0" standalone="no"?><!DOCTYPE svg PUBLIC "-//W3C//DTD SVG 1.1//EN" "http://www.w3.org/Graphics/SVG/1.1/DTD/svg11.dtd"><svg width="200" height="200" viewBox="0 0 200 200" version="1.1" xmlns="http://www.w3.org/2000/svg" xmlns:xlink="http://www.w3.org/1999/xlink"><defs><style type="text/css"><![CDATA[
@font-face { font-family: ifont; src: url(http://at.alicdn.com/t/font_1442373896_4754455.eot?#iefix) format(embedded-opentype), url(http://at.alicdn.com/t/font_1442373896_4754455.woff) format(woff), url(http://at.alicdn.com/t/font_1442373896_4754455.ttf) format(truetype), url(http://at.alicdn.com/t/font_1442373896_4754455.svg#ifont) format(svg); }

]]></style></defs><g class="transform-group"><g transform="scale(0.1953125, 0.1953125)"><path d="M800 691.2 800 691.2C800 691.2 800 691.2 800 691.2 800 691.2 800 691.2 800 691.2l-51.2-121.6c0 0 0 0 0 0L748.8 550.4c0 0 0-6.4-6.4-6.4L640 544 640 505.6c0 0 0-6.4-6.4-6.4L614.4 499.2c0 0-6.4 0-6.4 6.4l0 38.4L505.6 544c0 0-6.4 0-6.4 6.4l0 19.2c0 0 0 0 0 0L448 691.2c0 0 0 0 0 0 0 12.8 25.6 25.6 57.6 25.6 32 0 57.6-12.8 57.6-25.6l0 0 0 0c0 0 0 0 0 0 0 0 0 0 0 0L512 576l96 0 0 211.2L556.8 787.2c0 0-6.4 0-6.4 6.4l0 19.2c0 0 0 6.4 6.4 6.4l128 0c0 0 6.4 0 6.4-6.4l0-19.2c0 0 0-6.4-6.4-6.4L640 787.2 640 576l96 0-51.2 121.6c0 0 0 0 0 0 0 12.8 25.6 25.6 57.6 25.6C774.4 716.8 793.6 710.4 800 691.2L800 691.2 800 691.2zM473.6 678.4l32-76.8 32 76.8L473.6 678.4 473.6 678.4zM742.4 601.6l32 76.8-64 0L742.4 601.6 742.4 601.6zM742.4 601.6M524.8 448 281.6 448C268.8 448 262.4 435.2 262.4 422.4c0-12.8 12.8-25.6 25.6-25.6l236.8 0c12.8 0 25.6 12.8 25.6 25.6C544 435.2 537.6 448 524.8 448L524.8 448zM416 627.2 281.6 627.2c-12.8 0-25.6-12.8-25.6-25.6 0-12.8 12.8-25.6 25.6-25.6l134.4 0c12.8 0 25.6 12.8 25.6 25.6C441.6 614.4 428.8 627.2 416 627.2L416 627.2zM339.2 806.4 281.6 806.4c-12.8 0-25.6-12.8-25.6-25.6 0-12.8 12.8-25.6 25.6-25.6l57.6 0c12.8 0 25.6 12.8 25.6 25.6C364.8 793.6 352 806.4 339.2 806.4L339.2 806.4zM646.4 275.2 281.6 275.2C268.8 275.2 256 262.4 256 243.2c0-12.8 12.8-25.6 25.6-25.6l364.8 0c12.8 0 25.6 12.8 25.6 25.6C672 262.4 659.2 275.2 646.4 275.2L646.4 275.2zM646.4 275.2M838.4 57.6 185.6 57.6c-19.2 0-32 12.8-32 32l0 851.2c0 19.2 12.8 32 32 32l652.8 0c19.2 0 32-12.8 32-32L870.4 89.6C870.4 70.4 857.6 57.6 838.4 57.6zM819.2 921.6 204.8 921.6l0-812.8 614.4 0L819.2 921.6z" fill="#272636"></path></g></g></svg>