<?xml version="1.0" encoding="utf-8"?>
<!-- Generator: Adobe Illustrator 17.0.0, SVG Export Plug-In . SVG Version: 6.00 Build 0)  -->
<!DOCTYPE svg PUBLIC "-//W3C//DTD SVG 1.1//EN" "http://www.w3.org/Graphics/SVG/1.1/DTD/svg11.dtd">
<svg version="1.1" id="图层_1" xmlns="http://www.w3.org/2000/svg" xmlns:xlink="http://www.w3.org/1999/xlink" x="0px" y="0px"
	 width="16px" height="16px" viewBox="0 0 16 16" enable-background="new 0 0 16 16" xml:space="preserve">
<g>
	<path fill="#575757" d="M10.272,2.881c2.707,0,4.9,2.194,4.9,4.9c0,2.706-2.193,4.9-4.9,4.9H3.299c-1.447,0-2.62-1.173-2.62-2.62
		c0-1.446,1.173-2.62,2.62-2.62c0.878,0,1.654,0.432,2.13,1.094c0,0-0.057-0.447-0.057-0.755C5.371,5.076,7.565,2.881,10.272,2.881
		 M10.272,2.035c-2.852,0-5.225,2.088-5.671,4.816c-0.408-0.166-0.85-0.255-1.302-0.255c-1.911,0-3.466,1.555-3.466,3.466
		c0,1.911,1.555,3.466,3.466,3.466h6.973c3.168,0,5.746-2.578,5.746-5.746C16.019,4.614,13.441,2.035,10.272,2.035L10.272,2.035
		L10.272,2.035z M10.272,2.035"/>
	<path fill="#575757" d="M5.246,9.781H5.037c0,0-0.144-0.003-0.189-0.137L4.848,9.643c-0.034-0.118-0.08-0.23-0.139-0.335V9.307
		C4.645,9.181,4.746,9.078,4.746,9.078l0.146-0.147c0.063-0.063,0.063-0.163,0-0.227L4.695,8.506c-0.062-0.063-0.163-0.063-0.226,0
		L4.323,8.652c0,0-0.104,0.101-0.23,0.038l0,0C3.987,8.631,3.876,8.584,3.758,8.552C3.757,8.551,3.757,8.551,3.757,8.55
		C3.622,8.505,3.62,8.361,3.62,8.361V8.153c0-0.089-0.072-0.161-0.159-0.161H3.179c-0.088,0-0.16,0.072-0.16,0.161v0.207
		c0,0-0.002,0.145-0.136,0.189L2.881,8.552C2.764,8.583,2.651,8.63,2.546,8.69H2.546C2.42,8.752,2.316,8.651,2.316,8.651
		L2.169,8.505c-0.062-0.063-0.163-0.063-0.226,0L1.745,8.702c-0.062,0.063-0.062,0.163,0,0.226l0.147,0.148
		c0,0,0.102,0.103,0.037,0.229v0.001C1.87,9.411,1.823,9.524,1.79,9.641v0.001C1.745,9.776,1.602,9.779,1.602,9.779h-0.21
		c-0.088,0-0.159,0.071-0.159,0.159v0.281c0,0.088,0.072,0.159,0.159,0.159h0.21c0,0,0.143,0.002,0.188,0.136v0.001
		c0.034,0.118,0.08,0.23,0.14,0.336l0,0c0.063,0.127-0.037,0.23-0.037,0.23l-0.147,0.147c-0.062,0.063-0.062,0.163,0,0.227
		l0.199,0.197c0.062,0.062,0.163,0.062,0.226,0l0.147-0.147c0,0,0.104-0.101,0.229-0.037h0.001c0.105,0.058,0.217,0.105,0.335,0.139
		c0.001,0.001,0.001,0.001,0.002,0.001c0.134,0.045,0.136,0.189,0.136,0.189v0.209c0,0.089,0.071,0.159,0.16,0.159h0.28
		c0.088,0,0.159-0.07,0.159-0.159v-0.207c0,0,0.002-0.145,0.137-0.189l0.001-0.001c0.118-0.034,0.23-0.08,0.335-0.139l0,0
		c0.127-0.063,0.23,0.037,0.23,0.037l0.147,0.147c0.062,0.062,0.163,0.062,0.226,0l0.199-0.197c0.063-0.063,0.063-0.163,0-0.227
		l-0.145-0.146c0,0-0.101-0.103-0.037-0.229v-0.001c0.058-0.106,0.106-0.218,0.139-0.336l0.001-0.001
		c0.045-0.134,0.189-0.136,0.189-0.136h0.209c0.088,0,0.159-0.072,0.159-0.159V9.94C5.405,9.852,5.334,9.781,5.246,9.781
		L5.246,9.781z M3.319,11.355c-0.705,0-1.275-0.571-1.275-1.275c0-0.705,0.571-1.276,1.275-1.276s1.275,0.571,1.275,1.276
		C4.595,10.784,4.023,11.355,3.319,11.355L3.319,11.355z M3.319,11.355"/>
	<text transform="matrix(1 0 0 1 7.4938 10.8932)" fill="#272636" font-family="'MicrosoftYaHeiUI'" font-size="8.2593">A</text>
</g>
</svg>
