<?xml version="1.0" encoding="utf-8"?>
<!-- Generator: Adobe Illustrator 17.0.0, SVG Export Plug-In . SVG Version: 6.00 Build 0)  -->
<!DOCTYPE svg PUBLIC "-//W3C//DTD SVG 1.1//EN" "http://www.w3.org/Graphics/SVG/1.1/DTD/svg11.dtd">
<svg version="1.1" id="图层_1" xmlns="http://www.w3.org/2000/svg" xmlns:xlink="http://www.w3.org/1999/xlink" x="0px" y="0px"
	 width="16px" height="16px" viewBox="0 0 16 16" enable-background="new 0 0 16 16" xml:space="preserve">
<circle fill="none" stroke="#666666" stroke-width="0.5" stroke-miterlimit="10" cx="8" cy="8.021" r="7.814"/>
<g>
	<path fill="#646464" d="M8,12.117c-2.392,0-4.334-1.942-4.334-4.334c0-2.392,1.942-4.334,4.334-4.334
		c2.392,0,4.334,1.942,4.334,4.334C12.334,10.176,10.392,12.117,8,12.117L8,12.117z M8,3.796c-2.202,0-3.987,1.786-3.987,3.987
		c0,2.202,1.786,3.987,3.987,3.987c2.202,0,3.987-1.786,3.987-3.987C11.987,5.582,10.202,3.796,8,3.796L8,3.796z M8,11.597
		c-2.098,0-3.814-1.699-3.814-3.814c0-2.115,1.716-3.814,3.814-3.814c2.098,0,3.814,1.699,3.814,3.814
		C11.814,9.898,10.115,11.597,8,11.597L8,11.597z M8,4.143c-2.011,0-3.641,1.63-3.641,3.641S5.989,11.424,8,11.424
		s3.641-1.63,3.641-3.641S10.011,4.143,8,4.143L8,4.143z M7.411,9.534L7.411,9.534L5.833,7.957l0.243-0.243l1.387,1.387l2.739-2.895
		l0.243,0.243L7.48,9.603L7.411,9.534L7.411,9.534z M7.411,9.534"/>
</g>
</svg>
