<?xml version="1.0" encoding="utf-8"?>
<!-- Generator: Adobe Illustrator 17.0.0, SVG Export Plug-In . SVG Version: 6.00 Build 0)  -->
<!DOCTYPE svg PUBLIC "-//W3C//DTD SVG 1.1//EN" "http://www.w3.org/Graphics/SVG/1.1/DTD/svg11.dtd">
<svg version="1.1" id="图层_1" xmlns="http://www.w3.org/2000/svg" xmlns:xlink="http://www.w3.org/1999/xlink" x="0px" y="0px"
	 width="566.93px" height="566.93px" viewBox="0 0 566.93 566.93" enable-background="new 0 0 566.93 566.93" xml:space="preserve">
<g>
	<path fill="#666666" d="M283.59-1.66C127.213-1.66,0,125.553,0,281.93c0,156.377,127.213,283.59,283.59,283.59
		c156.377,0,283.59-127.213,283.59-283.59C567.18,125.553,439.967-1.66,283.59-1.66L283.59-1.66L283.59-1.66L283.59-1.66
		L283.59-1.66z M283.59,549.951c-147.789,0-268.021-120.234-268.021-268.021c0-147.789,120.232-268.057,268.057-268.057
		c147.787,0,268.057,120.231,268.057,268.057C551.611,429.717,431.377,549.951,283.59,549.951L283.59,549.951L283.59,549.951
		L283.59,549.951L283.59,549.951z M283.59,549.951"/>
	<path fill="#666666" d="M270.527,399.051h24.506v32.672h-24.506V399.051L270.527,399.051L270.527,399.051L270.527,399.051z
		 M270.527,399.051"/>
	<path fill="#666666" d="M380.425,438.671c0,4.827-3.925,8.701-8.696,8.701H191.071c-4.823,0-8.697-3.925-8.697-8.701l0,0
		c0-4.823,3.925-8.696,8.697-8.696h180.658C376.552,429.922,380.425,433.848,380.425,438.671L380.425,438.671L380.425,438.671
		L380.425,438.671L380.425,438.671z M380.425,438.671"/>
	<path fill="#666666" d="M181.845,223.173h6.365h6.418v94.78h-6.365h-6.418V223.173L181.845,223.173L181.845,223.173
		L181.845,223.173z M181.845,223.173"/>
	<path fill="#666666" d="M224.436,306.763c-8.485-9.177-12.731-21.216-12.731-36.12c0-14.957,4.245-27.051,12.731-36.226
		c8.485-9.177,19.626-13.79,33.413-13.79c13.843,0,24.984,4.613,33.469,13.79c8.486,9.174,12.732,21.269,12.732,36.226
		c0,14.956-4.245,26.943-12.732,36.12c-8.485,9.174-19.626,13.739-33.469,13.739C244.114,320.502,232.974,315.938,224.436,306.763
		L224.436,306.763L224.436,306.763L224.436,306.763z M281.773,298.541c6.098-7.107,9.069-16.39,9.069-27.898
		c0-11.565-3.023-20.897-9.069-28.006c-6.046-7.107-14.006-10.659-23.924-10.659c-9.809,0-17.821,3.552-23.867,10.659
		c-6.046,7.11-9.069,16.441-9.069,28.006c0,11.508,3.023,20.844,9.069,27.898c6.046,7.11,14.005,10.61,23.867,10.61
		C267.714,309.204,275.727,305.651,281.773,298.541L281.773,298.541L281.773,298.541L281.773,298.541z M281.773,298.541"/>
	<path fill="#666666" d="M343.139,234.523h-32.037v-5.678v-5.673h76.91v5.673v5.678h-32.037v83.429h-6.365h-6.418L343.139,234.523
		L343.139,234.523L343.139,234.523L343.139,234.523z M343.139,234.523"/>
	<path fill="#666666" d="M424.448,144.41H135.277c-13.844,0-25.089,11.241-25.089,25.084v204.525
		c0,13.843,11.245,25.085,25.089,25.085h126.974h162.196c13.843,0,25.089-11.242,25.089-25.085V169.442
		C449.537,155.598,438.291,144.41,424.448,144.41L424.448,144.41L424.448,144.41L424.448,144.41z M433.626,358.795
		c0,14.374,0,22.328-22.754,22.328H263.899H148.853c-20.95,0-22.754-5.305-22.754-22.328l-0.53-173.973
		c-0.319-14.956,6.313-22.592,22.807-22.381h262.072c19.201-1.218,23.231,7.215,22.753,22.329L433.626,358.795L433.626,358.795
		L433.626,358.795L433.626,358.795z M433.626,358.795"/>
</g>
</svg>
