<?xml version="1.0" encoding="utf-8"?>
<!DOCTYPE svg PUBLIC "-//W3C//DTD SVG 1.1//EN" "http://www.w3.org/Graphics/SVG/1.1/DTD/svg11.dtd">
<svg version="1.1" id="图形" xmlns="http://www.w3.org/2000/svg" xmlns:xlink="http://www.w3.org/1999/xlink" x="0px" y="0px" width="1024px" height="1024px" viewBox="0 0 1024 1024" enable-background="new 0 0 1024 1024" xml:space="preserve">
  <path class="svgpath" data-index="path_0" fill="#fff" d="M754.842757 949.315893c-299.818525-0.020456-680.181663-320.846794-680.181663-681.375242 0-106.580391 86.697631-193.258589 193.257567-193.258589 106.555845 0 193.253476 86.678198 193.2995 193.238134 0 64.914553-32.182661 124.518855-85.26779 160.220888C387.203973 543.860998 478.130781 637.395885 593.357719 651.980667c35.322583-55.54695 95.799312-89.176839 162.681686-89.176839 106.60187 0 193.2995 86.699676 193.2995 193.253476 0 106.238784-86.65672 192.957893-193.186995 193.258589L754.842757 949.315893 754.842757 949.315893 754.842757 949.315893zM267.918661 140.286988c-70.386403 0-127.655708 57.247826-127.655708 127.654685 0 317.109572 346.239248 615.755996 614.579804 615.776452l1.109712 0c70.470271-0.196373 127.785601-57.490224 127.785601-127.660822 0-70.402768-57.269305-127.650594-127.697642-127.650594-49.290631 0-93.275102 27.693699-114.842374 72.305131l-9.438175 19.498197-21.613297-1.004366c-165.071913-7.620702-297.253404-143.05462-300.88528-308.292222l-0.44593-20.39108 18.068356-9.417719c42.408373-22.122639 68.738712-65.474012 68.738712-113.158885C395.616303 197.534815 338.300974 140.286988 267.918661 140.286988L267.918661 140.286988zM267.918661 140.286988" />

</svg>
