<?xml version="1.0" encoding="utf-8"?>
<!DOCTYPE svg PUBLIC "-//W3C//DTD SVG 1.1//EN" "http://www.w3.org/Graphics/SVG/1.1/DTD/svg11.dtd">
<svg version="1.1" id="图形" xmlns="http://www.w3.org/2000/svg" xmlns:xlink="http://www.w3.org/1999/xlink" x="0px" y="0px" width="1024px" height="1024px" viewBox="0 0 1024 1024" enable-background="new 0 0 1024 1024" xml:space="preserve">
  <path class="svgpath" data-index="path_0" fill="#edf2f5" d="M511.096993 1023.999982C229.361548 1023.999982 0 794.638434 0 511.096993 0 229.361548 229.361548 0 511.096993 0 794.638434 0 1023.999982 229.361548 1023.999982 511.096993 1023.999982 794.638434 794.638434 1023.999982 511.096993 1023.999982M368.423274 406.349199l-99.329804 0 0 319.66137 99.329804 0L368.423274 406.349199zM377.453256 310.631388c0-30.701939-23.477954-55.98589-59.597883-55.98589-36.119929 0-61.403879 23.477954-61.403879 55.98589 0 30.701939 23.477954 55.98589 59.597883 55.98589l0 0C353.975302 366.617277 377.453256 343.139324 377.453256 310.631388zM767.548487 549.022918c0-99.329804-55.98589-144.479715-126.419751-144.479715-57.791886 0-92.105818 30.701939-99.329804 52.373897l0-50.5679-111.971779 0c1.805996 27.089947 0 319.66137 0 319.66137L541.798932 726.010569l0-173.375658c0-9.029982 0-19.865961 1.805996-25.28395 7.223986-19.865961 23.477954-39.731922 54.179893-39.731922 39.731922 0 55.98589 28.895943 55.98589 72.239858l0 166.151673 113.777776 0L767.548487 549.022918z" />

</svg>
