<?xml version="1.0" encoding="utf-8"?>
<!-- Generator: Adobe Illustrator 17.0.0, SVG Export Plug-In . SVG Version: 6.00 Build 0)  -->
<!DOCTYPE svg PUBLIC "-//W3C//DTD SVG 1.1//EN" "http://www.w3.org/Graphics/SVG/1.1/DTD/svg11.dtd">
<svg version="1.1" id="图层_1" xmlns="http://www.w3.org/2000/svg" xmlns:xlink="http://www.w3.org/1999/xlink" x="0px" y="0px"
	 width="16px" height="16px" viewBox="0 0 16 16" enable-background="new 0 0 16 16" xml:space="preserve">
<g>
	<path fill="#e3e1e2" d="M8,0C3.582,0,0,3.582,0,8s3.582,8,8,8s8-3.582,8-8S12.418,0,8,0z M9.617,10.167
		c0,0.891-0.725,1.616-1.617,1.616c-0.891,0-1.616-0.725-1.616-1.616c0-0.502,0.232-0.972,0.626-1.277V4.844
		c0-0.546,0.445-0.991,0.991-0.991s0.991,0.445,0.991,0.991v4.046C9.384,9.195,9.617,9.665,9.617,10.167z M12.544,12.362
		c-0.59,0.59-1.277,1.053-2.042,1.377C9.709,14.074,8.867,14.244,8,14.244c-0.402,0-0.798-0.036-1.186-0.109
		c0.102-0.256,0.215-0.542,0.328-0.831C7.424,13.348,7.71,13.37,8,13.37c1.483,0,2.877-0.578,3.926-1.626
		c1.049-1.049,1.626-2.443,1.626-3.926s-0.578-2.877-1.626-3.926C10.877,2.844,9.483,2.266,8,2.266S5.123,2.844,4.074,3.892
		C3.026,4.941,2.448,6.335,2.448,7.818c0,0.954,0.239,1.871,0.689,2.683l0.928-0.928l0.422,2.809l-2.809-0.422l0.819-0.819
		c-0.158-0.262-0.298-0.536-0.419-0.82C1.744,9.527,1.574,8.685,1.574,7.818s0.17-1.709,0.505-2.501
		c0.324-0.765,0.787-1.452,1.377-2.042c0.59-0.59,1.277-1.053,2.042-1.377C6.291,1.562,7.133,1.392,8,1.392s1.709,0.17,2.501,0.505
		c0.765,0.324,1.452,0.787,2.042,1.377c0.59,0.59,1.053,1.277,1.377,2.042c0.335,0.793,0.505,1.634,0.505,2.501
		s-0.17,1.709-0.505,2.501C13.597,11.085,13.134,11.772,12.544,12.362z"/>
	<path fill="#e3e1e2" d="M8.688,9.149C8.634,9.113,8.602,9.053,8.602,8.988V4.844c0-0.332-0.27-0.603-0.602-0.603
		s-0.603,0.27-0.603,0.603v4.145c0,0.064-0.032,0.125-0.085,0.161c-0.338,0.229-0.54,0.61-0.54,1.018
		c0,0.677,0.551,1.228,1.228,1.228c0.677,0,1.228-0.551,1.228-1.228C9.228,9.759,9.026,9.378,8.688,9.149z M8,10.9
		c-0.407,0-0.737-0.331-0.737-0.737c0-0.274,0.149-0.52,0.387-0.648V6.377c0-0.193,0.157-0.35,0.35-0.35s0.35,0.157,0.35,0.35v3.138
		c0.238,0.128,0.387,0.373,0.387,0.648C8.737,10.57,8.406,10.9,8,10.9z"/>
</g>
</svg>
